<ttFont>
          <CharString index="0">
            -106 callsubr
            endchar
          </CharString>
          <CharString index="1">
            9 8 15 4 14 rrcurveto
            return
          </CharString>
          <CharString index="2">
            -9 -9 -80 callsubr
            -57 callsubr
            return
          </CharString>
          <CharString index="3">
            hlineto
            -14 -9 -8 -15 -5 155 callsubr
            return
          </CharString>
          <CharString index="4">
            hlineto
            -13 -105 callsubr
            return
          </CharString>
          <CharString index="5">
            -12 42 -103 callgsubr
          </CharString>
          <CharString index="6">
            -3 51 -26 46 -46 22 -26 5 -48 -2 -29 -7 rrcurveto
            -68 -33 -82 -93 -70 vvcurveto
            -79 61 -92 callsubr
            -12 return
          </CharString>
          <CharString index="7">
            -101 callsubr
            -29 return
          </CharString>
          <CharString index="8">
            259 callgsubr
            -96 callsubr
          </CharString>
          <CharString index="9">
            431 -97 callgsubr
          </CharString>
          <CharString index="10">
            -70 callsubr
            -7 -30 rcurveline
            return
          </CharString>
          <CharString index="11">
            rlinecurve
            57 -98 callsubr
          </CharString>
          <CharString index="12">
            -13 -105 callsubr
            139 hlineto
            -8 -7 -8 -8 -5 -7 77 callgsubr
            33 30 45 21 35 hhcurveto
            24 22 -32 -25 1 hvcurveto
            -1 -79 -98 361 callsubr
            -17 18 rcurveline
            -46 -2 -29 -39 -10 -47 129 callsubr
            return
          </CharString>
          <CharString index="13">
            hlineto
            -93 callsubr
            return
          </CharString>
          <CharString index="14">
            -14 -105 callsubr
            return
          </CharString>
          <CharString index="15">
            -108 100 -69 vhcurveto
            45 8 27 34 -1 30 -85 52 -37 64 -5 61 491 callsubr
            -1 -25 return
          </CharString>
          <CharString index="16">
            rmoveto
            -42 -48 -63 -82 callgsubr
            return
          </CharString>
          <CharString index="17">
            -36 335 callgsubr
            rrcurveto
            17 -6 23 -12 -19 vvcurveto
            -4 -40 -57 -63 -61 -15 -41 23 -16 52 -29 callsubr
            return
          </CharString>
          <CharString index="18">
            rmoveto
            135 311 10 2 11 -307 rlineto
            -1 hlineto
            90 17 rmoveto
            -16 205 17 171 -38 15 -72 6 -68 -36 rlinecurve
            -100 -256 -69 -131 -107 -4 -23 -28 -2 -26 19 -24 rlinecurve
            74 10 -116 -220 16 -28 52 -9 50 13 rlinecurve
            112 259 47 6 133 8 -9 -250 28 -26 55 -11 45 14 rlinecurve
            -22 279 93 5 23 34 1 30 -18 14 rlinecurve
            return
          </CharString>
          <CharString index="19">
            -61 callsubr
            -29 -126 259 callgsubr
            rlinecurve
            return
          </CharString>
          <CharString index="20">
            -9 rrcurveto
            -34 -87 callgsubr
            return
          </CharString>
          <CharString index="21">
            259 callgsubr
            -82 callsubr
          </CharString>
          <CharString index="22">
            hlineto
            -24 44 -39 35 -46 4 293 callsubr
            124 -18 rcurveline
            -37 -58 -69 -45 -67 -8 -17 2 -15 5 -15 7 96 callgsubr
            122 callgsubr
            -15 callgsubr
            147 234 callsubr
            15 -2 14 -3 15 vhcurveto
            return
          </CharString>
          <CharString index="23">
            rmoveto
            -48 -68 -51 -49 -51 -46 -44 13 -18 15 -8 20 47 183 24 113 8 84 -35 38 -42 7 -50 -10 3 -103 -7 -105 -2 -61 -56 -169 rcurveline
            14 -46 43 -46 127 -16 56 57 50 56 40 52 12 -10 rcurveline
            -48 -123 31 -29 51 -11 45 15 rlinecurve
            2 379 callsubr
            12 102 79 153 rcurveline
            -20 32 -35 8 -70 -4 -23 -86 -20 -91 -23 -122 rrcurveto
            endchar
          </CharString>
          <CharString index="24">
            hlineto
            -79 callsubr
          </CharString>
          <CharString index="25">
            rlinecurve
            57 431 138 callsubr
            116 -83 callsubr
          </CharString>
          <CharString index="26">
            -44 39 28 2 hvcurveto
            20 -77 callsubr
            return
          </CharString>
          <CharString index="27">
            -15 -5 -13 return
          </CharString>
          <CharString index="28">
            13 -107 callsubr
          </CharString>
          <CharString index="29">
            rmoveto
            -126 1 116 505 callsubr
            hhcurveto
            129 204 229 147 -2 hvcurveto
            176 -3 -115 190 -96 hhcurveto
            -174 -184 -220 -219 2 hvcurveto
            469 60 rmoveto
            -41 -125 -65 -99 -126 -75 rrcurveto
            -84 51 -44 105 99 vvcurveto
            146 98 141 142 73 vhcurveto
            77 -82 28 -107 15 -127 rrcurveto
            return
          </CharString>
          <CharString index="30">
            56 230 -68 callgsubr
            return
          </CharString>
          <CharString index="31">
            rmoveto
            -73 callgsubr
            return
          </CharString>
          <CharString index="32">
            -19 26 -32 7 -65 -40 callsubr
            -114 -104 callsubr
            117 290 callsubr
            259 callgsubr
            rlinecurve
            57 431 63 28 callsubr
            return
          </CharString>
          <CharString index="33">
            30 -28 47 -12 43 -103 callgsubr
          </CharString>
          <CharString index="34">
            hlineto
            -14 -59 callgsubr
            return
          </CharString>
          <CharString index="35">
            rmoveto
            127 6 50 -60 -68 vvcurveto
            -70 -24 -40 -61 -45 vhcurveto
            -52 -15 -43 -8 -58 -2 1 18 2 18 1 18 rrcurveto
            -57 236 rmoveto
            -20 -185 -25 -141 -24 -136 -49 -166 rlinecurve
            25 -30 72 -9 33 17 18 124 11 95 8 89 16 1 rcurveline
            20 -125 69 -118 130 -75 57 17 32 43 -20 39 -136 48 -61 57 -46 116 40 1 33 4 49 6 117 62 52 59 1 104 rrcurveto
            94 -90 93 -184 -72 -56 -8 -14 -50 vhcurveto
            -17 -10 -1 -29 18 -24 rrcurveto
            return
          </CharString>
          <CharString index="36">
            362 callsubr
            -74 callgsubr
            return
          </CharString>
          <CharString index="37">
            hlineto
            -90 callgsubr
            return
          </CharString>
          <CharString index="38">
            9 -62 -40 callsubr
            return
          </CharString>
          <CharString index="39">
            314 callgsubr
            -50 -31 -53 -31 8 43 6 43 5 41 rrcurveto
            377 -107 callgsubr
          </CharString>
          <CharString index="40">
            rlineto
            -119 hlineto
            -14 -9 -8 -15 -5 -13 13 -13 rcurveline
            125 469 callsubr
            return
          </CharString>
          <CharString index="41">
            30 -28 47 -12 return
          </CharString>
          <CharString index="42">
            -54 callsubr
            36 1 20 1 25 -9 return
          </CharString>
          <CharString index="43">
            -28 48 -102 callsubr
          </CharString>
          <CharString index="44">
            -104 callsubr
            538 109 callgsubr
            -6 -40 callgsubr
            44 hhcurveto
            26 106 callgsubr
            -89 -14 -17 2 -17 4 -14 8 -21 -1 -17 -8 -13 -14 -125 23 -182 -19 -81 99 callsubr
            45 -9 41 57 8 58 -2 53 -6 -3 -8 -2 -9 -2 -9 65 402 callgsubr
            85 -61 278 callgsubr
            rrcurveto
            61 callsubr
            return
          </CharString>
          <CharString index="45">
            rmoveto
            29 49 10 59 1 22 -6 22 rlinecurve
            -44 7 -39 -7 -40 -36 24 -147 rcurveline
            -22 -102 -32 -118 -36 -114 19 -29 54 -10 50 15 17 101 15 96 12 105 62 71 58 49 60 28 20 -10 16 -15 5 -30 -25 -122 -23 -116 -18 -132 29 -29 50 -11 46 15 rrcurveto
            2 122 8 115 6 69 39 103 rcurveline
            -13 53 -46 68 -89 8 -75 -36 -63 -56 -53 -65 rrcurveto
            return
          </CharString>
          <CharString index="46">
            -52 callsubr
            -39 -73 return
          </CharString>
          <CharString index="47">
            -104 callsubr
            104 hlineto
            return
          </CharString>
          <CharString index="48">
            rmoveto
            97 -3 170 -16 85 -30 65 44 35 44 14 50 -14 37 -32 14 -67 -14 -7 -32 -5 -18 -16 -32 -79 11 -126 -1 -94 1 -4 9 rcurveline
            143 127 296 305 48 154 -12 37 -28 11 -61 1 -21 -50 rcurveline
            -84 3 -151 17 -83 23 -69 -28 -32 -63 -16 -59 15 -33 33 -12 63 10 4 37 11 35 24 32 rrcurveto
            -13 62 120 -3 79 hhcurveto
            6 -8 -116 -234 -366 -255 -1 -85 rlinecurve
            -1 -24 4 -18 16 -19 53 -5 26 7 19 20 -8 22 rcurveline
            return
          </CharString>
          <CharString index="49">
            rmoveto
            -27 9 299 callgsubr
            36 21 37 21 35 21 -9 -38 -13 -36 -13 -32 rrcurveto
            return
          </CharString>
          <CharString index="50">
            14 -13 rcurveline
            return
          </CharString>
          <CharString index="51">
            135 rlineto
            return
          </CharString>
          <CharString index="52">
            -94 callsubr
            202 hlineto
            -56 -70 -43 -86 1 -54 -4 -73 48 -87 39 -5 38 5 84 50 30 100 11 84 -6 66 -19 70 rrcurveto
            return
          </CharString>
          <CharString index="53">
            -36 callsubr
            22 -22 35 305 callsubr
            return
          </CharString>
          <CharString index="54">
            rmoveto
            449 callgsubr
            -54 callgsubr
            323 373 callsubr
            38 -47 33 361 callgsubr
            -37 -58 -69 -45 -67 -8 -16 2 -16 5 -15 7 rrcurveto
            -3 -3 0 -1 -2 hvcurveto
            80 -17 -32 67 -51 351 callgsubr
            148 119 rmoveto
            -33 -17 -48 438 callsubr
            89 54 5 hvcurveto
            25 -3 18 -45 6 -42 rrcurveto
            189 168 150 callsubr
            -15 vhcurveto
            -909 143 rmoveto
            139 callgsubr
            67 -72 100 -105 78 -56 278 callgsubr
            -71 54 -84 91 -49 362 callgsubr
            155 507 callsubr
            -75 7 vhcurveto
            -55 -1 -58 -40 -34 -42 rrcurveto
            648 hmoveto
            202 callsubr
            -81 hlineto
            -14 -9 -9 -15 -5 -13 14 -13 rcurveline
            84 hlineto
            -125 -539 -86 callsubr
          </CharString>
          <CharString index="55">
            44 53 38 43 39 44 11 -8 rcurveline
            return
          </CharString>
          <CharString index="56">
            -8 callgsubr
            -35 399 callgsubr
            231 81 callgsubr
            return
          </CharString>
          <CharString index="57">
            309 callgsubr
            4 457 callgsubr
            168 113 108 vvcurveto
            21 -13 27 -20 23 vhcurveto
            return
          </CharString>
          <CharString index="58">
            421 callsubr
            -9 182 callgsubr
            -22 23 vhcurveto
            return
          </CharString>
          <CharString index="59">
            23 41 vvcurveto
            98 65 104 53 6 vhcurveto
            return
          </CharString>
          <CharString index="60">
            -49 -50 rrcurveto
            492 callsubr
            32 -4 return
          </CharString>
          <CharString index="61">
            -70 callsubr
            -6 -30 rcurveline
            -356 -73 callsubr
            359 hlineto
            -32 -147 -3 -2 -26 40 -25 42 -40 4 rlinecurve
            -104 -103 -133 -112 -66 37 -52 76 -14 hvcurveto
            60 41 31 19 55 41 11 -15 rcurveline
            -68 -66 -89 -62 -85 -45 -7 -29 11 -21 42 -21 64 47 59 54 44 49 8 -5 rcurveline
            -38 -90 191 callsubr
            42 303 rlineto
            0 vlineto
            42 45 53 52 26 28 rrcurveto
            return
          </CharString>
          <CharString index="62">
            -90 callsubr
            -55 callgsubr
            return
          </CharString>
          <CharString index="63">
            -29 callgsubr
            35 1 return
          </CharString>
          <CharString index="64">
            rmoveto
            15 67 16 64 475 callgsubr
            -65 -74 -60 -70 -50 rlinecurve
            return
          </CharString>
          <CharString index="65">
            -7 -5 -6 -5 -5 -5 return
          </CharString>
          <CharString index="66">
            -33 -37 -42 -46 -39 -43 -7 5 rcurveline
            29 74 callsubr
            return
          </CharString>
          <CharString index="67">
            -3 -7 -30 rcurveline
            return
          </CharString>
          <CharString index="68">
            rmoveto
            -15 12 -18 23 16 vvcurveto
            28 52 48 31 3 vhcurveto
            41 -6 18 -51 -53 vvcurveto
            -15 -3 -15 -5 -15 vhcurveto
            return
          </CharString>
          <CharString index="69">
            312 callsubr
            30 31 43 25 return
          </CharString>
          <CharString index="70">
            8 rcurveline
            -35 callgsubr
            return
          </CharString>
          <CharString index="71">
            -42 callsubr
            -8 -25 return
          </CharString>
          <CharString index="72">
            63 7 -7 rcurveline
            -22 -43 -60 -261 259 callgsubr
            rlinecurve
            return
          </CharString>
          <CharString index="73">
            34 callsubr
            -26 424 callgsubr
            return
          </CharString>
          <CharString index="74">
            -31 121 -240 49 52 vvcurveto
            32 66 56 66 19 vhcurveto
            31 -38 13 -32 4 -46 64 -11 32 19 4 29 -21 75 -48 37 -67 21 -113 -8 -108 -70 -25 -103 rrcurveto
            32 -111 237 -47 -54 vvcurveto
            -42 -50 -54 -92 -19 vhcurveto
            -45 39 -19 40 -12 63 -46 12 -27 -21 -25 -44 return
          </CharString>
          <CharString index="75">
            -313 124 507 rmoveto
            -30 -189 -26 -104 -48 -178 19 -34 66 -10 45 15 16 155 19 146 10 105 79 315 rcurveline
            7 -16 -15 4 -17 hhcurveto
            -26 -30 -9 -20 -34 hvcurveto
            return
          </CharString>
          <CharString index="76">
            12 callgsubr
            -372 -103 callsubr
            103 hlineto
            -36 -116 -29 -105 -31 -117 rrcurveto
            -39 15 59 -23 45 hhcurveto
            66 55 65 56 67 61 7 -7 rcurveline
            -16 -34 -20 -67 305 callgsubr
            -106 -42 rlinecurve
            -8 -27 11 -22 42 345 callgsubr
            56 85 callsubr
            42 12 rlinecurve
            40 return
          </CharString>
          <CharString index="77">
            -63 113 -21 7 -22 -7 -10 -18 rlinecurve
            76 -130 23 -15 40 -1 37 12 rlinecurve
            return
          </CharString>
          <CharString index="78">
            6 55 5 32 callgsubr
            -25 19 -37 -3 return
          </CharString>
          <CharString index="79">
            -19 -79 callgsubr
            return
          </CharString>
          <CharString index="80">
            -49 -50 rrcurveto
            -31 15 -15 35 40 vvcurveto
            98 return
          </CharString>
          <CharString index="81">
            rmoveto
            11 callgsubr
            131 127 rmoveto
            -37 39 -35 41 -32 41 296 callgsubr
            26 -3 21 -25 18 -31 -14 -25 -8 -25 -3 -22 -1 -9 0 -9 1 -9 rrcurveto
            770 333 1 callgsubr
            -800 -103 callsubr
            802 hlineto
            -27 -118 -38 -42 -43 -31 -54 -4 rlinecurve
            -17 7 -22 16 -15 -74 callgsubr
            -20 -12 -18 -16 -14 -18 -23 41 -30 39 -45 3 rrcurveto
            80 callsubr
            41 46 45 50 42 46 20 -67 48 -56 58 -5 427 callgsubr
            48 26 42 34 rlinecurve
            6 -5 -41 -71 -62 -265 -86 callsubr
          </CharString>
          <CharString index="82">
            rmoveto
            -622 -9 callsubr
            3 -102 -18 -85 -47 -106 -36 -70 rlinecurve
            5 -40 43 -29 55 -8 155 94 rcurveline
            10 -6 2 -68 -20 -85 -28 -73 -68 -74 rlinecurve
            4 -30 22 -19 51 -4 83 92 45 159 -6 122 -19 37 -41 22 -45 -5 -134 -80 rcurveline
            -10 7 53 103 32 130 22 118 rlinecurve
            157 hlineto
            8 -75 -4 -51 -20 -40 -29 -41 rlinecurve
            4 -22 27 -17 40 -3 55 74 23 101 -1 74 rrcurveto
            124 -107 callgsubr
          </CharString>
          <CharString index="83">
            379 callgsubr
            -14 -23 33 -37 hhcurveto
            -96 -76 -126 -63 -47 31 -35 49 -1 hvcurveto
            4 -5 -48 -28 -124 -47 -50 -3 rlinecurve
            -45 6 -60 61 -41 45 -48 callgsubr
            297 hlineto
            -54 -234 rmoveto
            -39 -20 -40 -27 -31 hhcurveto
            -25 -18 20 27 47 44 75 44 5 hvcurveto
            26 -4 18 -43 8 -38 rrcurveto
            297 261 486 callgsubr
            -61 -3 -6 -30 rcurveline
            -680 -12 callgsubr
            -90 -103 -137 -70 -105 -40 -8 -27 11 -22 42 -22 94 52 115 22 callsubr
            121 hlineto
            14 -106 callsubr
            endchar
          </CharString>
          <CharString index="84">
            rmoveto
            32 26 26 31 32 -26 25 -32 -32 -26 -25 -32 -31 26 -26 32 hvcurveto
            188 74 rmoveto
            -10 -7 -7 -10 -9 7 -8 10 9 7 8 9 10 -7 7 -9 hvcurveto
            return
          </CharString>
          <CharString index="85">
            rmoveto
            29 49 10 60 1 22 -6 21 rlinecurve
            -45 7 -40 -8 -38 -35 24 -147 rcurveline
            -21 -102 -33 -118 -36 -114 19 -29 54 -10 50 15 19 105 14 99 13 109 48 56 28 31 36 40 12 -8 8 -23 -1 -28 36 -20 39 6 39 32 -1 74 -45 54 -63 11 rrcurveto
            -44 -48 -50 -57 -46 -53 rrcurveto
            endchar
          </CharString>
          <CharString index="86">
            215 callsubr
            -4 -44 44 -41 45 -23 55 8 41 14 33 14 5 -5 rcurveline
            -64 -50 -76 -46 -46 -68 rrcurveto
            -41 44 -40 54 -15 vhcurveto
            return
          </CharString>
          <CharString index="87">
            rmoveto
            -829 103 callsubr
            19 40 26 41 28 rrcurveto
            -6 vlineto
            137 callgsubr
            -3 46 -24 20 -40 100 callgsubr
            66 5 callgsubr
          </CharString>
          <CharString index="88">
            -56 callgsubr
            -24 -2 -25 -4 -23 rlinecurve
            -57 -33 -56 -31 -53 -27 -22 -14 -8 -27 -2 -26 28 -54 57 -30 61 -9 33 6 33 13 20 21 30 93 30 159 15 126 rrcurveto
            return
          </CharString>
          <CharString index="89">
            -38 callsubr
            45 hhcurveto
            25 143 callsubr
            return
          </CharString>
          <CharString index="90">
            91 callsubr
            -13 8 return
          </CharString>
          <CharString index="91">
            -6 -95 -3 callgsubr
            return
          </CharString>
          <CharString index="92">
            hlineto
            -42 callsubr
            -9 -25 22 210 callsubr
            return
          </CharString>
          <CharString index="93">
            rmoveto
            -37 -58 -69 -45 -67 -8 -17 2 -15 5 -15 7 96 callgsubr
            122 callgsubr
            -15 callgsubr
            147 234 callsubr
            81 -58 89 -76 7 vhcurveto
            293 callsubr
            rrcurveto
            return
          </CharString>
          <CharString index="94">
            hlineto
            -13 -9 -9 -15 -5 -13 14 -13 rcurveline
            227 416 callgsubr
            -37 -24 -18 -53 8 -36 74 -63 156 -1 36 -45 2 -8 rcurveline
            -28 -39 -57 -33 -72 -1 -32 15 -25 19 -21 24 -43 12 -43 -46 -21 -47 64 -71 74 -100 43 -83 rrcurveto
            43 380 callsubr
            -48 72 -61 75 -49 349 callsubr
            return
          </CharString>
          <CharString index="95">
            rmoveto
            -88 callgsubr
            endchar
          </CharString>
          <CharString index="96">
            4 callsubr
            26 -9 48 160 callsubr
            -62 -265 -99 callsubr
          </CharString>
          <CharString index="97">
            -126 -66 callsubr
            return
          </CharString>
          <CharString index="98">
            -104 callsubr
            125 hlineto
            return
          </CharString>
          <CharString index="99">
            9 callgsubr
            -12 12 rcurveline
            return
          </CharString>
          <CharString index="100">
            -19 0 callsubr
            return
          </CharString>
          <CharString index="101">
            513 callgsubr
            -450 476 callgsubr
            -2 -5 -1 -5 -4 vvcurveto
            1 -16 7 -15 11 -15 -121 -79 -165 -81 -116 -56 rrcurveto
            -20 -16 -10 -26 -32 vvcurveto
            33 -51 55 481 callgsubr
            21 5 49 -2 55 -16 48 82 45 84 48 80 52 4 -3 4 -3 4 -3 83 -16 rcurveline
            -82 -67 -127 -53 -55 vvcurveto
            -63 92 -71 71 return
          </CharString>
          <CharString index="102">
            rmoveto
            -43 -16 -45 438 callsubr
            108 54 5 hvcurveto
            30 -3 13 -60 -1 -46 rrcurveto
            return
          </CharString>
          <CharString index="103">
            -45 callsubr
            26 -9 return
          </CharString>
          <CharString index="104">
            53 -112 20 -11 46 -9 33 30 rlinecurve
            -75 147 -24 16 -35 4 -39 -8 rlinecurve
            return
          </CharString>
          <CharString index="105">
            -13 -105 callsubr
            179 hlineto
            14 -98 return
          </CharString>
          <CharString index="106">
            356 callgsubr
            -58 -87 callsubr
            -378 hmoveto
            -65 callsubr
            4 -17 -3 return
          </CharString>
          <CharString index="107">
            -16 -10 -27 -2 callgsubr
            5 return
          </CharString>
          <CharString index="108">
            43 50 48 55 44 297 callgsubr
            return
          </CharString>
          <CharString index="109">
            170 callgsubr
            88 77 return
          </CharString>
          <CharString index="110">
            248 callsubr
            15 -17 25 74 45 rcurveline
            7 return
          </CharString>
          <CharString index="111">
            63 -2 139 82 callgsubr
            return
          </CharString>
          <CharString index="112">
            -94 callsubr
            217 hlineto
            -77 -43 -78 -54 -43 -51 -5 -40 35 -41 41 -16 55 7 39 13 38 13 5 -6 rcurveline
            -61 -48 -75 -44 -46 -68 rrcurveto
            -41 44 -40 return
          </CharString>
          <CharString index="113">
            101 callgsubr
            39 rcurveline
            34 -40 38 -40 35 -32 -53 -45 -59 -47 -47 -35 rrcurveto
            return
          </CharString>
          <CharString index="114">
            rmoveto
            -22 -109 -25 -109 -34 -105 23 -34 61 -10 45 15 12 144 10 117 13 117 40 141 rcurveline
            -31 29 -42 -7 -54 -24 rrcurveto
            return
          </CharString>
          <CharString index="115">
            hvcurveto
            21 90 callsubr
            return
          </CharString>
          <CharString index="116">
            -94 callsubr
            225 hlineto
            -82 -48 -79 -63 -45 -50 -9 -39 35 -48 43 -22 47 5 52 17 36 11 4 -6 rcurveline
            -66 -45 -63 -77 -33 -74 -3 -42 48 -36 55 -18 157 34 246 186 16 137 return
          </CharString>
          <CharString index="117">
            rmoveto
            44 65 82 69 63 484 callgsubr
            -57 -90 -67 -65 -14 rrcurveto
            return
          </CharString>
          <CharString index="118">
            -113 -70 callsubr
            return
          </CharString>
          <CharString index="119">
            49 61 542 callsubr
            487 callsubr
            -54 -138 -39 183 callgsubr
            39 89 callgsubr
            176 527 callsubr
            26 21 callsubr
          </CharString>
          <CharString index="120">
            656 272 callsubr
            266 hlineto
            25 -12 29 -16 16 -21 -2 -8 rcurveline
            -46 -25 -79 -19 -100 -4 -23 -14 -22 -54 17 -27 31 -13 61 -30 22 -11 -3 -7 rcurveline
            -122 2 -115 -73 -83 vvcurveto
            -84 105 -84 106 -10 vhcurveto
            72 4 84 27 38 38 -3 35 -21 18 -28 1 -35 -32 -49 -22 -51 -6 -77 16 -46 48 -8 52 22 67 82 40 50 3 rrcurveto
            20 -1 8 -8 -11 vvcurveto
            -1 -13 -13 -17 -18 -17 6 -16 30 -19 32 5 rrcurveto
            31 35 18 44 33 vvcurveto
            49 -75 30 -76 30 vhcurveto
            2 8 81 9 64 13 58 27 rlinecurve
            26 22 16 32 -5 28 -10 17 -12 13 -17 11 286 callgsubr
          </CharString>
          <CharString index="121">
            401 rmoveto
            -57 -91 -126 -95 -57 -87 callsubr
            -378 hmoveto
            -44 callsubr
            return
          </CharString>
          <CharString index="122">
            -50 -41 3 -86 46 -68 37 -28 73 -30 82 -8 73 109 rcurveline
            8 -5 -24 -60 -55 -130 -36 -69 rlinecurve
            12 -27 33 -19 53 7 33 return
          </CharString>
          <CharString index="123">
            rmoveto
            2 9 12 9 10 5 19 -7 21 -21 10 -19 -8 -29 -18 -31 -27 -31 -20 41 -4 48 3 26 rrcurveto
            281 208 rmoveto
            -706 9 callsubr
            -5 50 -61 49 -52 12 -44 -5 -40 -42 -17 -29 -6 -64 25 -56 36 -52 -69 -66 -97 -58 -87 -20 -9 9 rcurveline
            27 57 68 85 56 47 10 45 -26 32 -49 16 -44 -10 -46 -15 -37 -4 -8 14 rcurveline
            47 50 86 83 92 50 rrcurveto
            372 -107 callgsubr
          </CharString>
          <CharString index="124">
            vvcurveto
            32 -51 56 517 callsubr
            return
          </CharString>
          <CharString index="125">
            vvcurveto
            267 callgsubr
            108 116 callgsubr
            -38 -53 -64 -54 -78 -14 rrcurveto
            -65 26 -34 41 41 vvcurveto
            -1 29 26 28 38 27 return
          </CharString>
          <CharString index="126">
            rmoveto
            -26 9 299 callgsubr
            36 21 36 21 36 21 -10 -38 -12 -35 -14 -33 rrcurveto
            540 389 rmoveto
            -111 hlineto
            -20 24 -32 9 -62 -3 -7 -30 rcurveline
            -432 -19 callsubr
            139 hlineto
            -77 -335 -84 -84 -121 -76 257 callgsubr
            113 hlineto
            14 -106 callsubr
            endchar
          </CharString>
          <CharString index="127">
            rmoveto
            -10 -204 -31 -158 -30 -129 -53 -142 rlinecurve
            5 -38 36 -24 53 -15 315 34 rcurveline
            20 28 11 52 -38 15 -83 -19 -98 -19 -103 -14 61 310 rcurveline
            83 341 -41 21 -43 -8 -54 -31 rlinecurve
            endchar
          </CharString>
          <CharString index="128">
            30 12 34 -9 26 23 callsubr
          </CharString>
          <CharString index="129">
            322 callsubr
            -49 138 callgsubr
            return
          </CharString>
          <CharString index="130">
            338 callgsubr
            -29 19 rrcurveto
            241 -107 callgsubr
          </CharString>
          <CharString index="131">
            48 callsubr
            57 431 138 callsubr
            return
          </CharString>
          <CharString index="132">
            229 callsubr
            53 25 49 rrcurveto
            3 -49 2 -45 -46 vvcurveto
            -11 -72 return
          </CharString>
          <CharString index="133">
            106 callsubr
            32 3 vhcurveto
            29 -6 return
          </CharString>
          <CharString index="134">
            rrcurveto
            -20 -16 -9 -26 -31 348 callsubr
            -26 59 -8 33 6 36 17 15 21 5 41 -2 return
          </CharString>
          <CharString index="135">
            -56 callsubr
            116 hlineto
            9 callgsubr
            return
          </CharString>
          <CharString index="136">
            rmoveto
            -580 -103 callsubr
            238 117 callgsubr
            -3 -8 rcurveline
            return
          </CharString>
          <CharString index="137">
            -68 -26 -34 -41 -29 -39 -2 -22 28 -16 28 2 56 75 rcurveline
            6 2 26 -36 39 -24 75 -20 rlinecurve
            64 30 39 37 22 36 5 24 -25 16 -31 -6 return
          </CharString>
          <CharString index="138">
            316 -23 callgsubr
            return
          </CharString>
          <CharString index="139">
            19 -1 162 callgsubr
            return
          </CharString>
          <CharString index="140">
            310 982 621 rmoveto
            -955 -103 callsubr
            613 419 callsubr
            -41 -49 -90 -38 -76 -43 rrcurveto
            1 vlineto
            -10 -6 -7 -5 -8 -4 -7 -4 rlinecurve
            -46 -27 -51 -22 -43 -17 -6 5 rcurveline
            12 17 5 26 162 callsubr
            -2 -25 43 -29 55 -3 13 6 17 9 20 11 rrcurveto
            1 -87 return
          </CharString>
          <CharString index="141">
            -9 25 callsubr
            return
          </CharString>
          <CharString index="142">
            64 callgsubr
            54 55 27 541 callgsubr
            20 -26 -38 vvcurveto
            -77 -34 -71 -92 -80 vhcurveto
            -5 -15 11 -13 return
          </CharString>
          <CharString index="143">
            -59 -36 144 callsubr
            return
          </CharString>
          <CharString index="144">
            -10 callgsubr
            -2 return
          </CharString>
          <CharString index="145">
            -4 rlinecurve
            -43 callgsubr
            return
          </CharString>
          <CharString index="146">
            rmoveto
            -19 1 -25 16 -1 16 16 20 95 50 114 60 5 -9 3 -9 1 -8 -8 -68 -130 -65 -51 -4 rrcurveto
            return
          </CharString>
          <CharString index="147">
            516 callgsubr
            36 20 37 21 36 22 -10 -38 -13 542 callgsubr
            542 402 308 callsubr
            14 -95 -2 -29 -3 -28 -4 -27 rlinecurve
            -57 -33 -57 -31 -57 -29 -19 -13 -9 -26 -2 -25 29 -56 57 -30 60 -9 36 7 31 13 22 23 29 95 32 160 16 133 rrcurveto
            137 290 callsubr
            259 callgsubr
            387 callgsubr
          </CharString>
          <CharString index="148">
            43 336 callgsubr
            42 callgsubr
            return
          </CharString>
          <CharString index="149">
            rmoveto
            -277 -438 12 -25 24 -8 42 5 rlinecurve
            503 896 -14 25 -28 8 -45 -7 rlinecurve
            return
          </CharString>
          <CharString index="150">
            rmoveto
            -84 -88 -132 -87 -113 401 callsubr
            111 62 124 91 81 105 rrcurveto
            -280 4 rmoveto
            -26 9 299 callgsubr
            36 21 36 21 36 21 -10 -38 -12 -35 -14 -33 rrcurveto
            348 389 rmoveto
            -472 -19 callsubr
            176 -107 callgsubr
          </CharString>
          <CharString index="151">
            82 534 239 49 callgsubr
            return
          </CharString>
          <CharString index="152">
            vvcurveto
            -66 37 -52 75 -14 vhcurveto
            60 41 32 19 54 41 11 -15 rcurveline
            -67 -66 -89 -62 -86 -45 -7 -29 11 -21 42 -21 65 47 58 54 45 49 8 -5 rcurveline
            -38 -90 298 callsubr
            42 12 rlinecurve
            42 302 42 45 53 53 26 541 callgsubr
            20 -26 -38 vvcurveto
            -78 -36 -72 -93 -79 vhcurveto
            -2 -13 13 -13 25 -12 rrcurveto
            109 83 82 92 108 261 callgsubr
          </CharString>
          <CharString index="153">
            472 callgsubr
            222 hlineto
            37 -16 43 -18 22 -28 -3 -6 rcurveline
            -60 -32 -85 -18 -83 -20 -40 -21 -14 -48 11 -39 76 -49 120 -8 77 -43 -1 -5 rcurveline
            -77 -53 -135 -20 -103 -4 -23 -21 10 -37 36 -28 118 9 165 41 66 47 24 30 11 59 -23 24 -71 40 -115 14 -67 35 2 8 rcurveline
            66 24 96 16 65 37 27 22 11 40 -6 22 -16 18 -20 15 -21 13 rrcurveto
            232 -107 callgsubr
          </CharString>
          <CharString index="154">
            -6 24 -12 -19 vvcurveto
            -4 -40 -57 -63 -61 -15 -42 23 -15 52 6 55 4 41 return
          </CharString>
          <CharString index="155">
            166 callsubr
            191 callsubr
            return
          </CharString>
          <CharString index="156">
            64 772 71 callgsubr
            498 callsubr
            513 hlineto
            -30 -132 -32 -32 -52 -32 -52 -24 rlinecurve
            -7 74 -57 76 -81 4 134 callgsubr
            rrcurveto
            151 callsubr
            50 21 51 26 40 26 7 -12 rcurveline
            return
          </CharString>
          <CharString index="157">
            -48 -62 203 callgsubr
            -22 10 -13 -48 callsubr
            26 -4 26 -38 20 -43 rrcurveto
            return
          </CharString>
          <CharString index="158">
            35 44 27 36 25 hvcurveto
            38 -7 -36 43 -28 hhcurveto
            -40 -4 -40 -47 -6 -43 rrcurveto
            -30 4 23 -20 26 hhcurveto
            return
          </CharString>
          <CharString index="159">
            19 callgsubr
            -149 hlineto
            return
          </CharString>
          <CharString index="160">
            -27 callsubr
            63 87 65 7 vhcurveto
            return
          </CharString>
          <CharString index="161">
            rmoveto
            -6 -3 rlineto
            76 -43 -44 65 -45 hhcurveto
            -40 -39 -22 -26 -20 hvcurveto
            -3 -42 31 -24 55 -16 45 42 rcurveline
            45 -32 37 -44 26 -44 -4 -4 rcurveline
            -36 37 -37 25 -34 3 -33 -3 -26 -18 -18 -28 5 -34 28 -19 50 -7 30 502 callgsubr
            29 -27 25 2 17 14 4 13 -22 69 -3 34 -4 52 13 10 rcurveline
            37 -11 16 -18 320 callgsubr
            31 -32 35 -48 23 -64 7 -30 -6 -22 -16 -24 -31 13 -23 14 -27 11 -26 rrcurveto
            endchar
          </CharString>
          <CharString index="162">
            89 callsubr
            rrcurveto
            -20 -15 3 -55 27 -26 rrcurveto
            322 callgsubr
            return
          </CharString>
          <CharString index="163">
            rmoveto
            0 vlineto
            -49 -52 -52 -53 -47 callsubr
            return
          </CharString>
          <CharString index="164">
            hhcurveto
            2 callsubr
            hvcurveto
            return
          </CharString>
          <CharString index="165">
            44 -39 455 callgsubr
            50 68 48 14 32 317 callsubr
            344 callsubr
            return
          </CharString>
          <CharString index="166">
            738 rmoveto
            453 callgsubr
            25 2 17 14 4 13 -22 69 -3 34 -3 52 12 10 rcurveline
            37 -11 16 -18 320 callgsubr
            31 -32 35 -47 23 -65 7 -30 -6 -22 -16 -23 -31 12 -23 14 -27 11 -26 -6 -3 rcurveline
            76 -43 -44 65 -45 225 callsubr
            46 42 rcurveline
            45 -32 36 -44 26 -44 -4 -4 rcurveline
            -36 37 -36 25 -35 3 -33 -3 -25 -18 -19 -28 6 -34 28 -19 49 -7 rrcurveto
            return
          </CharString>
          <CharString index="167">
            -41 -49 callsubr
            return
          </CharString>
          <CharString index="168">
            327 callgsubr
            -51 362 callgsubr
            return
          </CharString>
          <CharString index="169">
            65 363 callgsubr
            return
          </CharString>
          <CharString index="170">
            -7 74 -57 76 -81 283 callgsubr
            return
          </CharString>
          <CharString index="171">
            30 59 callgsubr
            return
          </CharString>
          <CharString index="172">
            50 -53 28 -47 35 -74 rrcurveto
            24 15 5 16 5 hvcurveto
            -23 57 -18 64 -2 49 12 10 rcurveline
            37 -11 26 439 callsubr
            -31 35 -54 27 -58 515 callsubr
            16 -33 13 -27 13 -36 return
          </CharString>
          <CharString index="173">
            117 callsubr
            298 callsubr
            return
          </CharString>
          <CharString index="174">
            -12 76 -47 rrcurveto
            -7 vlineto
            -79 -58 -135 -21 -104 -5 -21 -22 8 -36 35 -30 119 211 callsubr
            96 19 66 40 26 24 return
          </CharString>
          <CharString index="175">
            15 callsubr
            106 45 return
          </CharString>
          <CharString index="176">
            210 callgsubr
            -45 323 callgsubr
            231 81 callgsubr
            return
          </CharString>
          <CharString index="177">
            rmoveto
            -42 13 -53 -12 -16 -45 86 -84 rcurveline
            55 -79 23 -5 19 7 7 15 rlinecurve
            return
          </CharString>
          <CharString index="178">
            35 85 41 57 42 17 18 14 29 -3 31 return
          </CharString>
          <CharString index="179">
            13 51 12 29 19 34 rrcurveto
            24 -15 -39 23 -31 hhcurveto
            -69 -136 -145 -93 -52 hvcurveto
            6 -31 31 -20 38 -2 52 89 61 78 54 39 10 -6 rcurveline
            -15 -64 -20 -87 -20 -95 rrcurveto
            -109 -104 callsubr
            112 hlineto
            -40 -184 -44 -207 -36 -148 282 callsubr
            return
          </CharString>
          <CharString index="180">
            398 callgsubr
            16 33 -5 30 -9 231 callsubr
            return
          </CharString>
          <CharString index="181">
            65 31 65 29 65 rrcurveto
            return
          </CharString>
          <CharString index="182">
            26 callsubr
            22 -38 -29 vvcurveto
            -25 -11 -24 -18 -22 vhcurveto
            -462 -287 rmoveto
            -30 10 -18 14 -17 25 24 14 25 13 25 14 6 -27 1 -27 -6 -29 rrcurveto
            return
          </CharString>
          <CharString index="183">
            -4 vhcurveto
            338 callsubr
            return
          </CharString>
          <CharString index="184">
            30 90 34 88 31 84 -20 44 -48 29 -34 2 -92 -1 -230 -114 -116 -21 callgsubr
            return
          </CharString>
          <CharString index="185">
            281 callgsubr
            51 48 55 504 callgsubr
            17 -28 -40 vvcurveto
            -80 -48 -63 -95 -74 vhcurveto
            35 -38 rlineto
            113 360 callgsubr
            -57 57 -102 107 callgsubr
          </CharString>
          <CharString index="186">
            rmoveto
            -132 -89 1 13 80 317 rlineto
            8 -16 -15 3 -17 hhcurveto
            -27 -29 -9 -19 -35 hvcurveto
            -12 -206 -30 -189 -26 -104 -47 -178 rlinecurve
            18 -34 66 -10 46 15 12 122 14 117 11 95 23 16 rcurveline
            49 -149 92 -142 122 -66 58 18 24 43 -19 40 -150 52 -82 110 -47 118 127 80 158 135 69 73 -4 41 -22 24 -55 7 rrcurveto
            endchar
          </CharString>
          <CharString index="187">
            -124 -102 -148 -126 -89 63 -46 91 -4 hvcurveto
            return
          </CharString>
          <CharString index="188">
            10 -1 16 2 6 2 6 3 5 57 -13 rcurveline
            return
          </CharString>
          <CharString index="189">
            -103 callsubr
            127 hlineto
            -9 -7 -8 -7 -7 -8 -5 -75 callgsubr
            -80 -123 -76 -87 -6 -13 3 -12 4 -10 7 96 callgsubr
            45 -73 70 -103 85 -80 33 7 22 26 -3 34 -68 69 -47 73 -26 54 4 8 rcurveline
            33 -1 36 8 36 13 rrcurveto
            -16 27 39 -24 21 hhcurveto
            return
          </CharString>
          <CharString index="190">
            30 -71 54 -84 91 -49 362 callgsubr
            156 6 146 234 callsubr
            81 -58 124 callsubr
            -82 -104 callsubr
            84 290 callsubr
            -66 callsubr
            43 13 rlinecurve
            56 -98 callsubr
          </CharString>
          <CharString index="191">
            41 71 176 527 callsubr
            88 callsubr
          </CharString>
          <CharString index="192">
            63 66 callsubr
            return
          </CharString>
          <CharString index="193">
            rmoveto
            -691 -103 callsubr
            327 321 callsubr
            -3 105 callsubr
            24 -12 65 -31 37 -11 -3 -7 rcurveline
            -176 -29 -102 -132 -88 vvcurveto
            -91 100 -141 132 -38 vhcurveto
            110 13 112 40 65 55 -3 38 -15 19 -28 3 -42 -43 -112 -58 -84 -7 -77 35 -62 90 -13 82 return
          </CharString>
          <CharString index="194">
            -93 callgsubr
            304 59 54 58 56 42 34 rlinecurve
            30 23 -19 -36 9 hvcurveto
            8 -28 -1 -35 -8 -42 -5 -11 -4 -13 -3 -13 return
          </CharString>
          <CharString index="195">
            541 callsubr
            -8 483 callsubr
            241 -107 callgsubr
          </CharString>
          <CharString index="196">
            46 callgsubr
            -101 16 return
          </CharString>
          <CharString index="197">
            56 230 81 callgsubr
            return
          </CharString>
          <CharString index="198">
            -72 -88 -14 -18 2 -17 4 return
          </CharString>
          <CharString index="199">
            269 callgsubr
            115 hlineto
            14 -106 callsubr
            endchar
          </CharString>
          <CharString index="200">
            44 callgsubr
            -101 16 197 callgsubr
            return
          </CharString>
          <CharString index="201">
            -63 610 621 29 callsubr
            return
          </CharString>
          <CharString index="202">
            145 callgsubr
            299 return
          </CharString>
          <CharString index="203">
            -261 -66 callsubr
            return
          </CharString>
          <CharString index="204">
            -33 -37 hvcurveto
            -1 1 -40 -39 -40 -35 -62 -5 rlinecurve
            -20 7 -21 16 -16 17 -4 callsubr
            24 1 return
          </CharString>
          <CharString index="205">
            vvcurveto
            -75 58 409 callsubr
            -16 31 -81 58 callsubr
            56 44 70 65 52 49 9 -9 rcurveline
            -28 -48 -61 -262 -74 callsubr
          </CharString>
          <CharString index="206">
            -55 27 callsubr
            return
          </CharString>
          <CharString index="207">
            -14 -65 26 -33 41 -1 41 -1 29 27 28 return
          </CharString>
          <CharString index="208">
            -88 64 -44 89 -4 return
          </CharString>
          <CharString index="209">
            49 61 542 callsubr
            487 callsubr
            -54 215 callgsubr
            39 138 38 135 44 106 -27 46 -45 16 -34 -7 -25 -28 -66 -78 -49 -53 -48 15 -45 41 -12 43 84 callsubr
          </CharString>
          <CharString index="210">
            -91 callgsubr
            30 return
          </CharString>
          <CharString index="211">
            rrcurveto
            144 52 callsubr
            return
          </CharString>
          <CharString index="212">
            -7 rcurveline
            -45 -28 -81 -22 -99 -5 -23 -13 -22 -56 17 -27 return
          </CharString>
          <CharString index="213">
            rmoveto
            -10 10 -11 17 12 vvcurveto
            27 55 48 return
          </CharString>
          <CharString index="214">
            hlineto
            26 -13 28 -16 16 250 callsubr
            -24 -13 -22 -56 17 -27 return
          </CharString>
          <CharString index="215">
            rmoveto
            72 callgsubr
            return
          </CharString>
          <CharString index="216">
            1 20 1 25 -9 return
          </CharString>
          <CharString index="217">
            rmoveto
            -31 -59 -44 -36 -65 -9 -47 36 -34 65 -3 73 -36 15 -32 -14 -26 -39 rrcurveto
            -91 21 91 -94 64 hhcurveto
            74 94 48 62 41 hvcurveto
            -10 33 -24 18 -33 -8 rrcurveto
            endchar
          </CharString>
          <CharString index="218">
            -21 callgsubr
            -12 12 rcurveline
            return
          </CharString>
          <CharString index="219">
            277 callgsubr
            278 callgsubr
            61 callsubr
            33 -1 36 8 36 14 rrcurveto
            -15 26 36 -19 20 hhcurveto
            48 119 45 54 75 hvcurveto
            9 -11 -34 -46 -63 -268 -99 callsubr
          </CharString>
          <CharString index="220">
            28 callgsubr
            291 262 -4 callgsubr
            -6 -30 rcurveline
            return
          </CharString>
          <CharString index="221">
            -246 -5 callsubr
            return
          </CharString>
          <CharString index="222">
            5 rcurveline
            12 69 15 63 14 63 67 130 rcurveline
            170 hlineto
            return
          </CharString>
          <CharString index="223">
            153 callsubr
            39 22 return
          </CharString>
          <CharString index="224">
            8 -5 rcurveline
            -50 -127 return
          </CharString>
          <CharString index="225">
            rmoveto
            -453 -60 callsubr
            -34 -117 -28 -105 -29 -120 16 -38 58 -24 45 1 57 46 83 73 66 60 7 -7 rcurveline
            -13 -38 -15 -37 -17 -37 -68 -86 -99 -56 -120 -52 -8 -27 10 -22 43 -22 178 99 114 93 53 176 -24 54 rcurveline
            22 20 -30 33 return
          </CharString>
          <CharString index="226">
            -2 -38 -53 -64 -54 -78 100 callsubr
            return
          </CharString>
          <CharString index="227">
            45 -64 25 15 9 15 10 13 9 21 21 13 29 return
          </CharString>
          <CharString index="228">
            8 44 34 46 35 42 33 rrcurveto
            return
          </CharString>
          <CharString index="229">
            127 callgsubr
            39 return
          </CharString>
          <CharString index="230">
            -55 callgsubr
            26 -9 return
          </CharString>
          <CharString index="231">
            448 callsubr
            -57 -40 -35 -42 rrcurveto
            649 hmoveto
            -98 callgsubr
            return
          </CharString>
          <CharString index="232">
            91 -50 235 callsubr
            return
          </CharString>
          <CharString index="233">
            -1 -65 -75 -59 -58 -73 -54 -9 7 rcurveline
            10 23 10 19 8 19 -10 57 -17 37 -51 30 -29 4 -30 0 -34 -6 -89 -49 -67 -97 -1 -56 rrcurveto
            -93 77 -104 84 -53 vhcurveto
            61 11 18 40 -14 24 -91 51 -28 63 -14 68 7 53 43 64 54 20 29 -5 23 -38 4 -32 -7 -20 -10 -19 -17 -24 return
          </CharString>
          <CharString index="234">
            292 callgsubr
            -70 43 -115 130 callsubr
          </CharString>
          <CharString index="235">
            -95 -58 -87 callsubr
            245 167 callgsubr
            return
          </CharString>
          <CharString index="236">
            69 -86 88 -104 112 -22 return
          </CharString>
          <CharString index="237">
            311 callsubr
            97 19 65 397 callsubr
            -23 79 callgsubr
          </CharString>
          <CharString index="238">
            -22 17 -18 13 -16 19 -36 2 -34 -37 -11 -49 rrcurveto
            17 -7 23 -12 -18 vvcurveto
            -4 -41 -57 -63 -61 -15 -41 24 -16 51 -29 callsubr
            230 callgsubr
            -48 -6 -96 -3 callgsubr
            35 -12 return
          </CharString>
          <CharString index="239">
            164 hlineto
            4 -20 -3 -22 -7 -20 -6 3 -6 3 -6 2 -44 -3 -43 -37 -17 -24 -14 -65 20 -62 22 -62 -76 -62 -100 -57 231 callgsubr
            6 9 10 3 19 -8 24 -21 2 -15 -4 -23 -18 -28 -27 -30 rrcurveto
            246 301 rmoveto
            return
          </CharString>
          <CharString index="240">
            rmoveto
            -4 -4 -36 37 -42 30 -30 3 rlinecurve
            -37 -3 -26 -18 -18 -28 5 -34 28 -19 50 -7 30 502 callgsubr
            29 -27 26 1 16 11 4 17 rrcurveto
            95 -35 -92 151 -68 hhcurveto
            -40 -39 -22 -26 -20 hvcurveto
            -3 -42 31 -24 55 -16 45 42 rcurveline
            51 -27 37 -55 25 -43 rrcurveto
            endchar
          </CharString>
          <CharString index="241">
            63 53 60 85 8 80 -18 50 -61 35 -59 -47 24 -138 rcurveline
            -62 -96 rlineto
            -16 8 17 -6 20 hhcurveto
            return
          </CharString>
          <CharString index="242">
            85 69 65 8 -6 rcurveline
            -23 271 callsubr
            return
          </CharString>
          <CharString index="243">
            437 rmoveto
            -61 -58 -104 -84 -72 -54 -10 115 callsubr
            return
          </CharString>
          <CharString index="244">
            -75 108 -21 vhcurveto
            109 116 callgsubr
            -39 -53 -63 -54 -79 350 callsubr
            -2 31 rrcurveto
            -20 27 -24 490 callgsubr
            262 -107 callgsubr
          </CharString>
          <CharString index="245">
            64 -56 callsubr
            return
          </CharString>
          <CharString index="246">
            -24 44 -11 42 125 callgsubr
          </CharString>
          <CharString index="247">
            rmoveto
            -68 -60 -49 -58 -21 hvcurveto
            -64 -20 38 -43 63 hhcurveto
            67 61 50 57 21 hvcurveto
            66 23 -42 41 -62 hhcurveto
            -19 -35 rmoveto
            31 3 -31 -41 -11 hvcurveto
            -6 -25 -9 -22 -12 -16 rrcurveto
            -5 -8 -7 -5 -13 hhcurveto
            -31 -4 32 41 13 hvcurveto
            6 24 11 23 11 16 rrcurveto
            4 9 8 5 9 hhcurveto
            return
          </CharString>
          <CharString index="248">
            -29 -51 268 callsubr
            105 44 153 30 79 -26 40 -30 17 -45 -6 -23 -37 -32 -55 -27 -28 -50 9 -35 17 -33 22 -14 41 -2 30 27 23 return
          </CharString>
          <CharString index="249">
            -65 callsubr
            5 -17 return
          </CharString>
          <CharString index="250">
            106 callgsubr
            -88 -14 return
          </CharString>
          <CharString index="251">
            190 callgsubr
            57 431 return
          </CharString>
          <CharString index="252">
            rmoveto
            -31 14 -15 31 38 vvcurveto
            28 10 28 15 25 vhcurveto
            28 -34 34 -36 27 -27 rrcurveto
            32 31 rmoveto
            -32 32 -30 35 -28 36 16 14 17 10 17 2 31 -6 17 -49 30 -36 rrcurveto
            72 123 469 callgsubr
            -22 -57 -89 -67 -66 -14 rrcurveto
            return
          </CharString>
          <CharString index="253">
            519 callsubr
            -60 -54 -61 483 callgsubr
            1 124 64 117 111 46 43 -27 17 -31 23 -43 rrcurveto
            return
          </CharString>
          <CharString index="254">
            379 callgsubr
            -14 -23 33 -37 hhcurveto
            -108 -73 -148 294 callsubr
            hvcurveto
            3 -5 -55 239 callgsubr
            return
          </CharString>
          <CharString index="255">
            266 callgsubr
            261 -107 callgsubr
          </CharString>
          <CharString index="256">
            -6 4 rcurveline
            11 16 6 27 4 15 -100 callsubr
            return
          </CharString>
          <CharString index="257">
            rmoveto
            -15 12 -18 23 16 vvcurveto
            28 52 48 32 165 callsubr
            return
          </CharString>
          <CharString index="258">
            452 callgsubr
            15 -77 52 -61 45 -6 93 -3 101 86 27 97 return
          </CharString>
          <CharString index="259">
            hlineto
            -28 -147 -6 267 callsubr
            -41 -1 rlinecurve
            return
          </CharString>
          <CharString index="260">
            290 callgsubr
            -19 28 return
          </CharString>
          <CharString index="261">
            rrcurveto
            -45 callsubr
            return
          </CharString>
          <CharString index="262">
            -13 13 -13 rcurveline
            return
          </CharString>
          <CharString index="263">
            472 callgsubr
            250 hlineto
            33 -12 36 -15 19 -22 -1 -5 rcurveline
            -60 -28 -81 -14 -78 -16 -38 -18 -13 -42 10 -33 69 -41 113 -7 70 -36 -1 -6 rcurveline
            -81 -43 -124 -12 -95 -4 -23 -17 10 -34 34 -23 return
          </CharString>
          <CharString index="264">
            -21 38 6 rrcurveto
            30 34 20 44 35 vvcurveto
            50 -76 30 -75 31 vhcurveto
            2 7 81 9 64 15 return
          </CharString>
          <CharString index="265">
            145 90 39 callsubr
            return
          </CharString>
          <CharString index="266">
            29 37 vvcurveto
            46 14 46 20 38 vhcurveto
            29 -38 39 -42 33 -32 -32 -32 return
          </CharString>
          <CharString index="267">
            181 callgsubr
            -41 -71 return
          </CharString>
          <CharString index="268">
            -104 7 -29 36 -15 47 1 return
          </CharString>
          <CharString index="269">
            4 15 -99 callgsubr
            return
          </CharString>
          <CharString index="270">
            -66 callsubr
            43 13 rlinecurve
            57 431 138 callsubr
            return
          </CharString>
          <CharString index="271">
            rmoveto
            28 31 4 26 -16 9 -150 -16 rcurveline
            -161 5 -21 -28 -4 -20 14 -15 rlinecurve
            return
          </CharString>
          <CharString index="272">
            3 vhcurveto
            40 -6 19 -51 -53 vvcurveto
            -15 -3 -16 -5 return
          </CharString>
          <CharString index="273">
            52 116 82 55 247 callsubr
            return
          </CharString>
          <CharString index="274">
            -5 -3 -25 45 -33 43 -42 -1 rlinecurve
            return
          </CharString>
          <CharString index="275">
            429 callgsubr
            35 4 return
          </CharString>
          <CharString index="276">
            348 callsubr
            -25 return
          </CharString>
          <CharString index="277">
            -94 callsubr
            93 hlineto
            -29 callgsubr
            36 1 20 1 25 -9 4 -17 rrcurveto
            -5 -91 -261 -73 -79 vvcurveto
            -53 100 -78 58 63 121 86 89 77 vhcurveto
            return
          </CharString>
          <CharString index="278">
            210 rmoveto
            -34 callsubr
            return
          </CharString>
          <CharString index="279">
            -38 -29 vvcurveto
            -25 -11 -24 -18 return
          </CharString>
          <CharString index="280">
            -6 rlinecurve
            -37 -42 37 27 2 hvcurveto
            23 57 220 95 5 127 -2 57 -56 76 331 callsubr
            22 -6 26 -5 28 -5 rrcurveto
            -82 -62 -119 -50 -55 vvcurveto
            -62 93 -71 71 65 103 return
          </CharString>
          <CharString index="281">
            rmoveto
            23 -5 19 7 7 15 -79 190 rcurveline
            -42 13 -53 -12 -16 -45 86 -84 rcurveline
            return
          </CharString>
          <CharString index="282">
            276 callgsubr
            -66 -78 -49 275 callsubr
            return
          </CharString>
          <CharString index="283">
            -30 1 -37 32 -1 22 12 32 86 38 66 29 8 26 -14 49 -23 9 -96 -6 -106 4 -101 16 -20 -14 3 -54 27 -26 rrcurveto
            79 87 11 9 69 hvcurveto
            2 -7 rlineto
            -68 -35 -130 -40 -49 vvcurveto
            -52 83 -73 71 -3 vhcurveto
            return
          </CharString>
          <CharString index="284">
            -86 94 -83 117 -18 vhcurveto
            146 7 147 100 2 130 -28 50 -82 120 callsubr
            -2 29 -14 23 -23 21 -29 19 rrcurveto
            286 -107 callgsubr
          </CharString>
          <CharString index="285">
            rmoveto
            202 callsubr
            return
          </CharString>
          <CharString index="286">
            -4 19 -26 -38 vvcurveto
            -77 -33 -71 -93 -80 vhcurveto
            -4 -15 return
          </CharString>
          <CharString index="287">
            459 callgsubr
            244 callgsubr
            return
          </CharString>
          <CharString index="288">
            rmoveto
            -74 1 -61 -90 -21 -122 rrcurveto
            -144 -24 72 -62 57 hhcurveto
            80 65 78 134 21 hvcurveto
            21 128 -62 76 -74 1 rrcurveto
            -2 -49 rmoveto
            16 -4 17 -12 7 -19 3 -31 -1 -38 -10 -57 -14 -75 -25 -59 -30 -29 return
          </CharString>
          <CharString index="289">
            hlineto
            14 -98 466 callsubr
            -4 -26 rlinecurve
            return
          </CharString>
          <CharString index="290">
            25 125 79 28 84 -10 61 -37 33 return
          </CharString>
          <CharString index="291">
            18 -23 -2 -6 rcurveline
            -59 -41 -80 -28 -64 -30 rrcurveto
            -46 -31 -31 -34 -43 vvcurveto
            -67 74 -59 101 -20 vhcurveto
            123 6 121 78 109 vvcurveto
            -20 36 -54 33 -48 21 9 6 8 6 8 6 22 17 9 26 -3 26 return
          </CharString>
          <CharString index="292">
            272 callsubr
            267 107 callsubr
            32 489 callgsubr
            -3 -7 rcurveline
            -127 -1 -120 return
          </CharString>
          <CharString index="293">
            -9 rrcurveto
            30 31 43 25 45 hhcurveto
            25 143 callsubr
            -18 2 -17 4 -13 8 return
          </CharString>
          <CharString index="294">
            -8 rcurveline
            -38 -73 -30 64 callgsubr
            return
          </CharString>
          <CharString index="295">
            621 -76 callsubr
            return
          </CharString>
          <CharString index="296">
            -35 -130 -41 -52 vvcurveto
            -53 88 -73 return
          </CharString>
          <CharString index="297">
            -8 8 rcurveline
            28 60 138 callsubr
            return
          </CharString>
          <CharString index="298">
            29 -24 43 -11 43 12 rlinecurve
            return
          </CharString>
          <CharString index="299">
            -12 -10 -11 -25 -1 -17 return
          </CharString>
          <CharString index="300">
            217 449 -80 258 callgsubr
            50 -11 36 -6 74 -26 25 -20 202 callgsubr
            33 58 48 41 rrcurveto
            return
          </CharString>
          <CharString index="301">
            rmoveto
            25 -52 29 -74 21 -79 rrcurveto
            27 12 6 15 5 hvcurveto
            -24 59 -15 51 -5 60 13 10 rcurveline
            35 -9 29 -24 24 -30 450 callgsubr
            -32 35 -53 27 -59 7 -53 -9 -21 -24 -21 -37 rrcurveto
            endchar
          </CharString>
          <CharString index="302">
            rmoveto
            -10 -54 -67 -57 -79 -14 -33 11 -23 18 -13 20 -13 17 -6 15 4 17 11 32 68 29 68 36 37 -19 37 -25 19 -26 rrcurveto
            290 695 273 callsubr
            return
          </CharString>
          <CharString index="303">
            hlineto
            207 callsubr
            return
          </CharString>
          <CharString index="304">
            rrcurveto
            293 -107 callgsubr
          </CharString>
          <CharString index="305">
            280 callgsubr
            -89 -24 rcurveline
            -14 4 -12 13 -4 8 44 34 46 35 42 33 rrcurveto
            return
          </CharString>
          <CharString index="306">
            330 -41 rmoveto
            -3 -64 29 -63 45 -47 29 4 18 15 -2 24 -43 50 -11 35 -7 75 -25 24 -20 284 callsubr
            78 32 58 49 41 rrcurveto
            return
          </CharString>
          <CharString index="307">
            rrcurveto
            27 30 12 418 callsubr
            242 -83 callsubr
          </CharString>
          <CharString index="308">
            374 callsubr
            30 220 callgsubr
            25 -30 hvcurveto
            return
          </CharString>
          <CharString index="309">
            -113 12 callgsubr
            return
          </CharString>
          <CharString index="310">
            268 callgsubr
            33 14 33 287 callgsubr
            return
          </CharString>
          <CharString index="311">
            rmoveto
            269 callsubr
            -68 -26 -34 -41 -29 -39 -2 -22 28 -16 28 2 rrcurveto
            return
          </CharString>
          <CharString index="312">
            23 25 13 51 -23 23 -65 32 -108 11 -60 30 1 5 rcurveline
            62 20 93 12 62 32 26 19 13 35 -8 19 -12 14 -15 11 -17 10 rrcurveto
            208 -107 callgsubr
          </CharString>
          <CharString index="313">
            100 165 callgsubr
            57 431 return
          </CharString>
          <CharString index="314">
            -44 callsubr
            20 1 26 -9 4 -17 -3 return
          </CharString>
          <CharString index="315">
            rmoveto
            -14 12 -19 23 16 vvcurveto
            28 53 48 31 333 callgsubr
            return
          </CharString>
          <CharString index="316">
            -59 -68 -47 -89 14 -88 28 -33 64 -3 38 55 -37 111 rcurveline
            48 99 -12 14 -18 5 -19 -3 rlinecurve
            return
          </CharString>
          <CharString index="317">
            -22 35 -9 34 27 return
          </CharString>
          <CharString index="318">
            372 callgsubr
            -71 43 -114 311 callsubr
            return
          </CharString>
          <CharString index="319">
            -56 -40 48 callgsubr
            193 hlineto
            return
          </CharString>
          <CharString index="320">
            92 callgsubr
            26 -9 48 -1 return
          </CharString>
          <CharString index="321">
            71 rrcurveto
            -161 -366 rmoveto
            -26 9 -19 return
          </CharString>
          <CharString index="322">
            -2 -147 -46 -127 -148 -30 -79 return
          </CharString>
          <CharString index="323">
            1 25 112 23 124 9 66 return
          </CharString>
          <CharString index="324">
            423 callsubr
            -31 528 callsubr
            return
          </CharString>
          <CharString index="325">
            459 callsubr
            34 -20 return
          </CharString>
          <CharString index="326">
            2 -28 -7 -31 rrcurveto
            return
          </CharString>
          <CharString index="327">
            rmoveto
            -50 -52 -51 -52 113 callsubr
            return
          </CharString>
          <CharString index="328">
            3 32 -5 18 -38 -1 -40 -30 -43 -21 -53 -17 17 154 16 126 12 129 rrcurveto
            endchar
          </CharString>
          <CharString index="329">
            125 callsubr
            33 -1 36 8 36 219 callgsubr
            20 hhcurveto
            48 119 45 return
          </CharString>
          <CharString index="330">
            -9 5 rcurveline
            161 callgsubr
            return
          </CharString>
          <CharString index="331">
            -123 -103 -133 -126 -89 62 -57 101 -4 hvcurveto
            return
          </CharString>
          <CharString index="332">
            hhcurveto
            -40 -39 -22 -26 -19 hvcurveto
            -3 -42 30 -24 55 -16 return
          </CharString>
          <CharString index="333">
            rmoveto
            43 50 53 31 3 vhcurveto
            35 -2 27 -58 -31 vvcurveto
            return
          </CharString>
          <CharString index="334">
            -7 rlinecurve
            264 callsubr
            return
          </CharString>
          <CharString index="335">
            34 -16 31 -82 44 -38 455 callgsubr
            return
          </CharString>
          <CharString index="336">
            18 22 193 callgsubr
            return
          </CharString>
          <CharString index="337">
            rrcurveto
            -40 17 59 441 callsubr
            70 64 8 -6 rcurveline
            return
          </CharString>
          <CharString index="338">
            18 -13 14 -17 12 rrcurveto
            return
          </CharString>
          <CharString index="339">
            352 callgsubr
            3 7 24 -9 28 -4 33 2 rlinecurve
            return
          </CharString>
          <CharString index="340">
            -220 rmoveto
            -30 11 -19 15 -17 25 25 14 25 15 26 15 7 -28 0 -29 -7 -31 rrcurveto
            return
          </CharString>
          <CharString index="341">
            123 127 vvcurveto
            return
          </CharString>
          <CharString index="342">
            48 4 8 rcurveline
            return
          </CharString>
          <CharString index="343">
            -62 21 -62 -75 -61 -101 -58 231 callgsubr
            7 9 9 3 19 -8 24 -21 2 -15 -4 -23 -18 -28 -27 -30 rrcurveto
            return
          </CharString>
          <CharString index="344">
            433 callsubr
            -114 -127 -8 6 30 65 31 65 29 65 rlinecurve
            330 -107 callgsubr
          </CharString>
          <CharString index="345">
            94 callsubr
            -77 -93 -254 -54 -119 vvcurveto
            -87 return
          </CharString>
          <CharString index="346">
            -103 callsubr
            443 hlineto
            -9 -7 -7 -8 -5 -7 -5 -23 20 312 callsubr
            33 31 44 21 35 hhcurveto
            24 22 -32 -25 2 hvcurveto
            -1 return
          </CharString>
          <CharString index="347">
            489 callsubr
            53 -2 445 callgsubr
            65 43 rrcurveto
            278 150 rmoveto
            return
          </CharString>
          <CharString index="348">
            5 rcurveline
            14 67 17 64 16 61 67 130 rcurveline
            143 hlineto
            return
          </CharString>
          <CharString index="349">
            120 callgsubr
            11 39 return
          </CharString>
          <CharString index="350">
            50 6 6 rcurveline
            21 -16 24 -16 25 -11 76 -8 return
          </CharString>
          <CharString index="351">
            31 8 -6 -27 -8 -26 -10 -23 rrcurveto
            return
          </CharString>
          <CharString index="352">
            -39 38 -42 48 -36 47 20 40 rcurveline
            return
          </CharString>
          <CharString index="353">
            172 callsubr
            -21 vhcurveto
            return
          </CharString>
          <CharString index="354">
            63 117 callsubr
            return
          </CharString>
          <CharString index="355">
            rmoveto
            -30 10 -19 return
          </CharString>
          <CharString index="356">
            273 callsubr
            230 hlineto
            33 -16 34 -21 14 -21 -2 -6 rcurveline
            -50 -39 -79 -31 -64 -27 -50 -33 -37 -36 1 -46 1 return
          </CharString>
          <CharString index="357">
            -23 -2 -7 rcurveline
            -45 -28 -81 -22 -99 -5 return
          </CharString>
          <CharString index="358">
            66 35 85 41 57 42 17 18 return
          </CharString>
          <CharString index="359">
            307 callsubr
            43 13 rlinecurve
            48 382 57 109 return
          </CharString>
          <CharString index="360">
            785 rmoveto
            29 24 24 28 30 -24 24 -29 -30 -24 -24 -30 -28 24 -24 30 hvcurveto
            return
          </CharString>
          <CharString index="361">
            180 callgsubr
            -14 26 rcurveline
            5 6 26 -9 return
          </CharString>
          <CharString index="362">
            -56 callsubr
            121 -107 callgsubr
          </CharString>
          <CharString index="363">
            167 556 rmoveto
            27 55 48 32 3 vhcurveto
            28 -5 22 -37 -28 vvcurveto
            -26 -12 -24 -20 -22 vhcurveto
            -33 7 -30 8 -21 10 rrcurveto
            -10 10 -11 17 12 vvcurveto
            return
          </CharString>
          <CharString index="364">
            151 -68 225 callsubr
            46 42 rcurveline
            50 -27 38 -55 24 -43 -4 -4 rcurveline
            -36 37 -41 30 -31 3 -37 -3 return
          </CharString>
          <CharString index="365">
            9 rrcurveto
            76 46 61 69 62 vvcurveto
            21 -13 27 -22 23 vhcurveto
            return
          </CharString>
          <CharString index="366">
            -27 46 -45 16 -34 -7 return
          </CharString>
          <CharString index="367">
            5 51 464 callsubr
            48 -36 50 -17 78 16 114 61 95 72 6 -23 5 -23 2 -23 -34 -53 return
          </CharString>
          <CharString index="368">
            346 callgsubr
            -43 -31 -54 410 callsubr
            -36 3 return
          </CharString>
          <CharString index="369">
            196 634 -196 hlineto
            236 -185 rmoveto
            196 185 -196 hlineto
            return
          </CharString>
          <CharString index="370">
            -53 callgsubr
            rrcurveto
            return
          </CharString>
          <CharString index="371">
            -37 380 callgsubr
            523 callgsubr
            return
          </CharString>
          <CharString index="372">
            507 callgsubr
            -33 -32 rrcurveto
            return
          </CharString>
          <CharString index="373">
            90 39 rcurveline
            467 callsubr
            return
          </CharString>
          <CharString index="374">
            -3 -25 44 -33 44 return
          </CharString>
          <CharString index="375">
            -22 15 callsubr
            return
          </CharString>
          <CharString index="376">
            6 2 26 -36 39 -24 75 -20 rlinecurve
            64 30 39 37 22 36 5 24 -25 16 -31 -6 -62 -75 rcurveline
            246 callgsubr
            return
          </CharString>
          <CharString index="377">
            423 callsubr
            -32 528 callsubr
            31 26 25 31 32 -26 25 -31 hvcurveto
            return
          </CharString>
          <CharString index="378">
            -43 -65 -281 259 callgsubr
            rlinecurve
            57 431 138 callsubr
            return
          </CharString>
          <CharString index="379">
            rmoveto
            -522 -73 callsubr
            return
          </CharString>
          <CharString index="380">
            rmoveto
            -581 -104 callsubr
            return
          </CharString>
          <CharString index="381">
            -3 -1 -21 42 -30 41 -48 5 rlinecurve
            return
          </CharString>
          <CharString index="382">
            -53 -48 15 -45 41 -12 43 41 71 return
          </CharString>
          <CharString index="383">
            vhcurveto
            26 -14 callgsubr
            return
          </CharString>
          <CharString index="384">
            23 -22 19 -25 15 rrcurveto
            return
          </CharString>
          <CharString index="385">
            73 121 vvcurveto
            75 return
          </CharString>
          <CharString index="386">
            -12 -37 -14 -33 rrcurveto
            return
          </CharString>
          <CharString index="387">
            4 -17 hhcurveto
            -26 -30 -9 -20 -34 hvcurveto
            endchar
          </CharString>
          <CharString index="388">
            201 171 callsubr
            return
          </CharString>
          <CharString index="389">
            157 callgsubr
            -12 12 rcurveline
            -166 hlineto
            27 76 31 return
          </CharString>
          <CharString index="390">
            -49 474 374 rmoveto
            -212 -16 -188 4 -21 -28 -5 -29 15 -15 rlinecurve
            396 8 27 32 4 34 -16 10 rlinecurve
            endchar
          </CharString>
          <CharString index="391">
            8 245 callgsubr
            -26 20 -29 58 4 vhcurveto
            23 return
          </CharString>
          <CharString index="392">
            3 callsubr
            -28 2 -29 -8 -31 rrcurveto
            return
          </CharString>
          <CharString index="393">
            hlineto
            -19 63 callgsubr
            return
          </CharString>
          <CharString index="394">
            -7 -7 -8 400 callsubr
            return
          </CharString>
          <CharString index="395">
            hlineto
            44 -25 40 -26 18 -28 return
          </CharString>
          <CharString index="396">
            413 callsubr
            -28 return
          </CharString>
          <CharString index="397">
            hlineto
            -125 -539 return
          </CharString>
          <CharString index="398">
            485 rmoveto
            -51 -43 -77 -35 -70 -33 -2 3 rcurveline
            -6 -4 -7 -5 -6 -4 -5 -2 rcurveline
            -10 -7 -61 -37 -58 -21 -43 1 rlinecurve
            return
          </CharString>
          <CharString index="399">
            40 19 15 16 24 vvcurveto
            61 1 -67 60 -58 hhcurveto
            -55 -49 -39 -52 -27 hvcurveto
            12 -22 27 -31 18 -13 11 3 13 5 7 11 return
          </CharString>
          <CharString index="400">
            -84 -2 -90 -93 -5 -52 218 callsubr
            return
          </CharString>
          <CharString index="401">
            348 callgsubr
            51 -1 return
          </CharString>
          <CharString index="402">
            -9 -7 -7 -7 -7 -8 return
          </CharString>
          <CharString index="403">
            -14 324 callgsubr
            return
          </CharString>
          <CharString index="404">
            -20 24 -32 9 return
          </CharString>
          <CharString index="405">
            28 -24 44 -11 return
          </CharString>
          <CharString index="406">
            25 -86 56 -64 return
          </CharString>
          <CharString index="407">
            rmoveto
            -68 -60 -142 212 callsubr
            return
          </CharString>
          <CharString index="408">
            339 callsubr
            -27 -69 -25 -14 rrcurveto
            return
          </CharString>
          <CharString index="409">
            -10 callgsubr
            -3 return
          </CharString>
          <CharString index="410">
            -296 163 callsubr
            return
          </CharString>
          <CharString index="411">
            401 callsubr
            112 62 121 92 79 101 rrcurveto
            return
          </CharString>
          <CharString index="412">
            -9 34 27 32 18 return
          </CharString>
          <CharString index="413">
            4 -180 90 -160 226 -39 272 24 120 175 34 183 -19 201 -50 146 -260 38 return
          </CharString>
          <CharString index="414">
            33 5 37 489 callsubr
            53 -2 58 -19 50 64 39 64 470 callsubr
            return
          </CharString>
          <CharString index="415">
            rmoveto
            -111 -70 callgsubr
            -432 -42 callgsubr
            return
          </CharString>
          <CharString index="416">
            -25 22 -22 35 396 callsubr
            5 -17 -3 -60 -96 -50 -76 -47 rrcurveto
            0 vlineto
            -1 -1 return
          </CharString>
          <CharString index="417">
            357 rmoveto
            35 44 27 36 24 hvcurveto
            38 -6 -36 44 -28 hhcurveto
            -40 -5 -40 -47 -6 -43 rrcurveto
            -29 4 22 -21 27 hhcurveto
            return
          </CharString>
          <CharString index="418">
            16 -67 39 2 9 rcurveline
            67 26 return
          </CharString>
          <CharString index="419">
            -23 35 -9 rrcurveto
            return
          </CharString>
          <CharString index="420">
            15 -38 58 -24 45 1 62 416 callsubr
            -107 -42 rlinecurve
            return
          </CharString>
          <CharString index="421">
            rmoveto
            -50 -52 -51 -52 53 callsubr
            32 -4 27 -39 19 -42 rrcurveto
            return
          </CharString>
          <CharString index="422">
            30 rlinecurve
            27 371 callsubr
            return
          </CharString>
          <CharString index="423">
            380 -100 callgsubr
            return
          </CharString>
          <CharString index="424">
            376 callgsubr
            -15 -22 return
          </CharString>
          <CharString index="425">
            198 callgsubr
            -27 -30 46 -36 hhcurveto
            return
          </CharString>
          <CharString index="426">
            21 -39 -3 -31 -44 -53 -45 -66 -12 return
          </CharString>
          <CharString index="427">
            20 -30 58 5 vhcurveto
            23 77 return
          </CharString>
          <CharString index="428">
            hlineto
            26 -13 28 -16 16 -23 return
          </CharString>
          <CharString index="429">
            82 55 63 8 -5 rcurveline
            return
          </CharString>
          <CharString index="430">
            64 17 119 43 return
          </CharString>
          <CharString index="431">
            -67 callgsubr
            -46 -31 return
          </CharString>
          <CharString index="432">
            -95 329 callgsubr
            return
          </CharString>
          <CharString index="433">
            62 -103 80 -7 return
          </CharString>
          <CharString index="434">
            -123 85 -61 return
          </CharString>
          <CharString index="435">
            169 callsubr
            58 393 callgsubr
            return
          </CharString>
          <CharString index="436">
            -44 callsubr
            20 1 26 -9 4 -17 -2 return
          </CharString>
          <CharString index="437">
            -97 callsubr
            -416 -103 callsubr
            417 hlineto
            return
          </CharString>
          <CharString index="438">
            -65 3 -81 -2 -87 -92 -5 -53 527 callgsubr
            36 -24 return
          </CharString>
          <CharString index="439">
            298 callsubr
            42 12 rlinecurve
            57 431 138 callsubr
            return
          </CharString>
          <CharString index="440">
            453 rmoveto
            -65 -75 -76 -72 -59 -41 -6 4 rcurveline
            11 16 return
          </CharString>
          <CharString index="441">
            -18 rcurveline
            -36 -58 -69 -45 -68 -8 -16 2 -15 5 -15 7 return
          </CharString>
          <CharString index="442">
            hhcurveto
            25 23 -33 -25 return
          </CharString>
          <CharString index="443">
            -10 rrcurveto
            110 84 return
          </CharString>
          <CharString index="444">
            25 -19 5 -47 -1 return
          </CharString>
          <CharString index="445">
            1 callsubr
            -39 36 callsubr
            return
          </CharString>
          <CharString index="446">
            210 rmoveto
            34 callsubr
            return
          </CharString>
          <CharString index="447">
            152 211 25 callgsubr
            return
          </CharString>
          <CharString index="448">
            21 15 33 -5 30 -8 409 callgsubr
          </CharString>
          <CharString index="449">
            20 28 51 43 108 54 5 hvcurveto
            25 return
          </CharString>
          <CharString index="450">
            vvcurveto
            -84 107 -86 108 -9 vhcurveto
            75 4 return
          </CharString>
          <CharString index="451">
            506 callsubr
            54 -4 return
          </CharString>
          <CharString index="452">
            -30 378 callsubr
            return
          </CharString>
          <CharString index="453">
            -44 -19 -22 -52 -10 -45 return
          </CharString>
          <CharString index="454">
            -27 15 -15 38 -10 42 return
          </CharString>
          <CharString index="455">
            vvcurveto
            32 -51 56 return
          </CharString>
          <CharString index="456">
            243 callsubr
            69 27 42 355 callgsubr
            return
          </CharString>
          <CharString index="457">
            100 callsubr
            38 27 65 35 85 41 57 42 17 18 14 29 return
          </CharString>
          <CharString index="458">
            30 -75 31 vhcurveto
            2 7 347 callgsubr
            rlinecurve
            return
          </CharString>
          <CharString index="459">
            hlineto
            -41 -178 -63 -81 -149 -108 -103 -35 rlinecurve
            return
          </CharString>
          <CharString index="460">
            -2 -24 -24 -38 -31 -38 -27 rrcurveto
            return
          </CharString>
          <CharString index="461">
            7 -9 -36 -10 -35 -8 -24 rrcurveto
            return
          </CharString>
          <CharString index="462">
            vhcurveto
            27 -14 callgsubr
            return
          </CharString>
          <CharString index="463">
            20 -10 447 callsubr
            return
          </CharString>
          <CharString index="464">
            488 callgsubr
            8 -15 return
          </CharString>
          <CharString index="465">
            -14 -7 -26 -1 -28 29 -52 return
          </CharString>
          <CharString index="466">
            -57 412 callsubr
            return
          </CharString>
          <CharString index="467">
            50 rmoveto
            -113 hlineto
            return
          </CharString>
          <CharString index="468">
            -71 -119 -16 return
          </CharString>
          <CharString index="469">
            7 -21 16 -16 return
          </CharString>
          <CharString index="470">
            202 386 callsubr
            return
          </CharString>
          <CharString index="471">
            -58 -1 rrcurveto
            -117 -103 -133 -110 -90 62 -56 101 -4 hvcurveto
            37 39 40 43 39 42 return
          </CharString>
          <CharString index="472">
            36 40 vvcurveto
            40 10 38 16 31 vhcurveto
            31 -38 39 -42 32 -31 -29 -34 -30 -33 -23 -22 rrcurveto
            return
          </CharString>
          <CharString index="473">
            294 callsubr
            hvcurveto
            434 callgsubr
            return
          </CharString>
          <CharString index="474">
            37 12 40 354 callsubr
            85 396 rmoveto
            -5 -31 -6 -35 -7 -34 return
          </CharString>
          <CharString index="475">
            29 -63 44 -48 503 callsubr
            -44 51 -10 35 -7 75 -26 24 -19 8 -33 return
          </CharString>
          <CharString index="476">
            -15 20 28 51 43 108 53 5 hvcurveto
            26 -4 19 -43 8 -37 rrcurveto
            -543 -18 rmoveto
            return
          </CharString>
          <CharString index="477">
            182 callsubr
            -57 -32 return
          </CharString>
          <CharString index="478">
            21 15 33 -5 30 -8 231 callsubr
            return
          </CharString>
          <CharString index="479">
            57 48 54 75 7 72 -17 44 -54 32 -53 -42 return
          </CharString>
          <CharString index="480">
            191 callgsubr
            3 -32 return
          </CharString>
          <CharString index="481">
            rmoveto
            354 callgsubr
            return
          </CharString>
          <CharString index="482">
            14 -98 -3 -46 -4 -45 -8 -43 rlinecurve
            return
          </CharString>
          <CharString index="483">
            -48 -90 -39 -76 -36 rrcurveto
            return
          </CharString>
          <CharString index="484">
            460 callgsubr
            54 10 return
          </CharString>
          <CharString index="485">
            1 -38 33 -2 23 return
          </CharString>
          <CharString index="486">
            130 7 119 return
          </CharString>
          <CharString index="487">
            1 34 21 24 vvcurveto
            return
          </CharString>
          <CharString index="488">
            rmoveto
            43 65 83 69 439 callgsubr
            -57 -89 -67 -66 -14 rrcurveto
            return
          </CharString>
          <CharString index="489">
            8 37 15 31 -20 45 -17 27 -8 29 2 30 5 31 9 rrcurveto
            -56 6 96 -72 return
          </CharString>
          <CharString index="490">
            -40 hhcurveto
            -8 -12 5 6 -12 hvcurveto
            78 46 63 70 63 vvcurveto
            21 -13 27 -22 23 vhcurveto
            return
          </CharString>
          <CharString index="491">
            hhcurveto
            -15 6 -18 7 -16 9 rrcurveto
            77 46 62 70 62 vvcurveto
            21 -13 27 -22 23 vhcurveto
            return
          </CharString>
          <CharString index="492">
            105 callsubr
            499 callsubr
            return
          </CharString>
          <CharString index="493">
            32 183 104 callsubr
            48 return
          </CharString>
          <CharString index="494">
            32 rrcurveto
            -159 -44 -95 -140 -127 vvcurveto
            -1 -111 69 -97 130 -20 return
          </CharString>
          <CharString index="495">
            440 callsubr
            45 31 8 -5 rcurveline
            -102 -434 30 -28 return
          </CharString>
          <CharString index="496">
            -34 -42 37 27 -1 hvcurveto
            19 55 230 99 97 vvcurveto
            13 -7 14 -11 12 vhcurveto
            return
          </CharString>
          <CharString index="497">
            13 28 6 37 -31 16 -26 4 -61 39 -14 48 13 23 31 -11 73 -51 66 return
          </CharString>
          <CharString index="498">
            -63 -61 -15 -42 23 -15 52 6 55 4 32 callgsubr
            -25 19 return
          </CharString>
          <CharString index="499">
            184 414 callgsubr
            return
          </CharString>
          <CharString index="500">
            -22 -12 -8 435 callsubr
            18 return
          </CharString>
          <CharString index="501">
            31 25 26 31 32 -25 25 -31 -33 -25 -25 -32 540 callsubr
          </CharString>
          <CharString index="502">
            23 -29 -30 -23 -23 -30 -28 23 -24 30 hvcurveto
            return
          </CharString>
          <CharString index="503">
            305 callsubr
            36 109 callsubr
            return
          </CharString>
          <CharString index="504">
            40 26 24 12 40 -6 23 -18 23 -22 17 return
          </CharString>
          <CharString index="505">
            -18 117 61 134 96 return
          </CharString>
          <CharString index="506">
            rmoveto
            -29 9 -19 15 -17 24 return
          </CharString>
          <CharString index="507">
            544 callgsubr
            34 -9 rrcurveto
            return
          </CharString>
          <CharString index="508">
            -43 -8 -27 11 -22 42 -22 return
          </CharString>
          <CharString index="509">
            71 -61 58 hhcurveto
            80 64 78 134 22 hvcurveto
            128 21 -63 77 -73 hhcurveto
            return
          </CharString>
          <CharString index="510">
            vvcurveto
            -89 62 -57 101 -4 vhcurveto
            396 callgsubr
            return
          </CharString>
          <CharString index="511">
            -57 -71 -47 -75 rrcurveto
            -26 20 -29 58 4 vhcurveto
            23 77 32 58 48 42 rrcurveto
            return
          </CharString>
          <CharString index="512">
            vvcurveto
            84 -67 48 -96 -16 vhcurveto
            -33 -37 -41 -46 -39 -44 -8 6 rcurveline
            30 65 return
          </CharString>
          <CharString index="513" raw="1">
            7e18dff7 b60af797 1d19c4f8 430b
          </CharString>
          <CharString index="514">
            rmoveto
            -32 -26 -26 -31 -31 26 -26 32 31 25 26 31 31 -25 26 -31 hvcurveto
            return
          </CharString>
          <CharString index="515">
            431 64 255 callsubr
          </CharString>
          <CharString index="516">
            377 callsubr
            26 34 return
          </CharString>
          <CharString index="517">
            -4 rlinecurve
            -17 7 -22 16 -15 17 return
          </CharString>
          <CharString index="518">
            44 24 -50 -48 -7 hvcurveto
            return
          </CharString>
          <CharString index="519">
            -9 rrcurveto
            -34 -44 39 28 return
          </CharString>
          <CharString index="520">
            -13 -8 -26 -1 return
          </CharString>
          <CharString index="521">
            395 callgsubr
            378 callgsubr
            return
          </CharString>
          <CharString index="522">
            104 callsubr
            47 return
          </CharString>
          <CharString index="523">
            50 94 83 68 62 8 -6 rcurveline
            -19 -37 -23 -85 305 callgsubr
            return
          </CharString>
          <CharString index="524">
            -22 9 -25 47 -24 78 40 111 82 return
          </CharString>
          <CharString index="525">
            34 -9 483 callsubr
            return
          </CharString>
          <CharString index="526">
            117 callgsubr
            -2 -8 rcurveline
            return
          </CharString>
          <CharString index="527">
            rmoveto
            -33 13 -23 20 return
          </CharString>
          <CharString index="528">
            hhcurveto
            -7 -9 3 3 return
          </CharString>
          <CharString index="529">
            16 10 23 7 18 return
          </CharString>
          <CharString index="530">
            rmoveto
            -32 -25 -25 return
          </CharString>
          <CharString index="531">
            -24 rcurveline
            -14 4 return
          </CharString>
          <CharString index="532">
            20 22 13 23 2 32 -4 24 -39 20 -43 rrcurveto
            -198 -80 rmoveto
            return
          </CharString>
          <CharString index="533">
            496 callgsubr
            -85 -20 -84 -21 return
          </CharString>
          <CharString index="534">
            vvcurveto
            101 callsubr
            vhcurveto
            -52 callsubr
            return
          </CharString>
          <CharString index="535">
            rmoveto
            -7 56 -32 69 -102 -6 295 callgsubr
            -8 8 rcurveline
            return
          </CharString>
          <CharString index="536">
            -14 -51 -18 -43 -5 rrcurveto
            -11 8 -11 10 16 vvcurveto
            2 6 2 return
          </CharString>
          <CharString index="537">
            262 -76 callsubr
            return
          </CharString>
          <CharString index="538">
            13 20 22 16 52 17 72 15 78 381 callgsubr
            48 30 return
          </CharString>
          <CharString index="539">
            411 -100 callgsubr
            return
          </CharString>
          <CharString index="540">
            495 callgsubr
            -95 -16 vhcurveto
            return
          </CharString>
          <CharString index="541">
            21 3 28 -4 35 -64 20 -45 -13 -9 -11 -13 -7 -16 rrcurveto
            return
          </CharString>
          <CharString index="542">
            -29 -1 -22 29 -53 56 -31 57 -8 33 4 39 13 22 22 return
          </CharString>
          <CharString index="543">
            3 rlinecurve
            -1 -3 0 -3 -3 vvcurveto
            -56 return
          </CharString>
          <CharString index="544">
            -56 -85 rlineto
            -14 8 15 -6 17 hhcurveto
            return
          </CharString>
          <CharString index="545">
            -49 -34 hhcurveto
            502 callsubr
            return
          </CharString>
          <CharString index="546">
            -19 320 callgsubr
            30 return
          </CharString>
          <CharString index="547">
            442 callgsubr
            46 29 return
          </CharString>
          <CharString index="548">
            -23 44 487 callgsubr
            return
          </CharString>
          <CharString index="549">
            vvcurveto
            -90 62 -57 101 -4 vhcurveto
            return
          </CharString>
          <CharString index="550">
            11 -10 -40 -70 -46 -194 return
          </CharString>
          <CharString index="551">
            14 -18 28 38 22 37 21 return
          </CharString>
          <CharString index="552">
            29 5 18 14 -2 24 -43 return
          </CharString>
          <CharString index="553">
            14 23 2 33 -4 26 -42 return
          </CharString>
          <CharString index="554">
            -35 -11 -34 -12 -33 rrcurveto
            return
          </CharString>
          <CharString index="555">
            89 -75 7 vhcurveto
            -55 -1 return
          </CharString>
          <CharString index="556">
            -6 -4 -6 -3 -6 -3 return
          </CharString>
          <CharString index="557">
            33 9 19 19 -1 20 return
          </CharString>
          <CharString index="558">
            -10 53 -54 45 -65 -36 return
          </CharString>
          <CharString index="559">
            -26 18 -28 -2 -7 rcurveline
            return
          </CharString>
          <CharString index="560">
            18 -29 55 -10 50 15 return
          </CharString>
          <CharString index="561">
            -154 -66 callsubr
            return
          </CharString>
          <CharString index="562">
            68 48 14 32 -11 return
          </CharString>
          <CharString index="563">
            -34 -7 -22 -12 -19 return
          </CharString>
          <CharString index="564">
            138 38 135 return
          </CharString>
          <CharString index="565">
            124 -18 rcurveline
            return
          </CharString>
          <CharString index="566">
            3 -32 37 -47 return
          </CharString>
          <CharString index="567">
            45 rcurveline
            7 -28 2 -29 -8 -31 rrcurveto
            540 403 rmoveto
            return
          </CharString>
          <CharString index="568">
            hlineto
            -39 -170 -62 -93 -112 -84 -59 -7 rlinecurve
            -30 1 return
          </CharString>
          <CharString index="569">
            -55 -25 -67 -19 -71 -8 -25 -22 11 -34 43 -23 76 14 return
          </CharString>
          <CharString index="570">
            -231 -84 -83 -120 -77 -107 -41 rlinecurve
            -8 -27 10 -22 return
          </CharString>
          <CharString index="571">
            17 36 11 5 -6 rcurveline
            -64 -43 -67 -70 -43 -72 -1 -45 return
          </CharString>
          <CharString index="572">
            -31 169 callsubr
            59 -8 33 5 36 18 15 20 return
          </CharString>
          <CharString index="573">
            -2 -28 -3 -28 return
          </CharString>
          <CharString index="574">
            5 -8 -17 -28 return
          </CharString>
          <CharString index="575">
            rrcurveto
            143 19 callgsubr
            return
          </CharString>
          <CharString index="576">
            hlineto
            -130 35 callgsubr
            21 return
          </CharString>
          <CharString index="577">
            40 65 510 callgsubr
            return
          </CharString>
          <CharString index="578">
            rmoveto
            -333 -70 callgsubr
            return
          </CharString>
          <CharString index="579">
            24 -1 31 rrcurveto
            69 48 71 52 6 vhcurveto
            26 -5 20 return
          </CharString>
          <CharString index="580">
            -63 hhcurveto
            -39 -41 -23 -28 -25 hvcurveto
            -4 -40 30 -29 60 return
          </CharString>
          <CharString index="581">
            212 rmoveto
            -29 11 -16 14 -16 23 35 20 35 20 return
          </CharString>
          <CharString index="582">
            -104 callsubr
            560 hlineto
            return
          </CharString>
          <CharString index="583">
            -7 64 -2 138 82 callgsubr
            return
          </CharString>
          <CharString index="584">
            22 4 18 12 39 82 43 81 46 53 -25 58 -36 return
          </CharString>
          <CharString index="585">
            -6 -57 264 callgsubr
            return
          </CharString>
          <CharString index="586">
            674 rmoveto
            14 -11 21 -4 21 3 58 156 rcurveline
            return
          </CharString>
          <CharString index="587">
            60 68 63 7 -7 rcurveline
            -22 -43 return
          </CharString>
          <CharString index="588">
            rmoveto
            -329 hlineto
            297 callsubr
            return
          </CharString>
          <CharString index="589">
            rcurveline
            30 65 30 65 29 65 rrcurveto
            return
          </CharString>
          <CharString index="590">
            26 338 callgsubr
            -30 19 rrcurveto
            return
          </CharString>
          <CharString index="591">
            rmoveto
            50 -53 28 -47 35 -74 rrcurveto
            return
          </CharString>
          <CharString index="592">
            543 callgsubr
            -60 -142 -56 return
          </CharString>
          <CharString index="593">
            31 37 7 -4 rcurveline
            return
          </CharString>
          <CharString index="594">
            7 -5 rcurveline
            -26 -67 return
          </CharString>
          <CharString index="595" raw="1">
            8f9318f7 130b  
          </CharString>
          <CharString index="596">
            18 15 20 5 return
          </CharString>
          <CharString index="597">
            -16 -14 vvcurveto
            164 -211 rlineto
            32 26 46 45 return
          </CharString>
          <CharString index="598">
            1 58 37 57 51 24 31 -10 16 -22 5 -24 return
          </CharString>
          <CharString index="599">
            -31 15 -15 35 40 vvcurveto
            98 62 313 callgsubr
            return
          </CharString>
          <CharString index="600">
            3 vhcurveto
            29 -6 22 172 callsubr
            return
          </CharString>
          <CharString index="601">
            424 rmoveto
            244 callgsubr
            return
          </CharString>
          <CharString index="602">
            -26 -31 169 callsubr
            59 -9 33 6 37 return
          </CharString>
          <CharString index="603">
            -42 -23 -28 -25 hvcurveto
            -3 421 callgsubr
            rrcurveto
            return
          </CharString>
          <CharString index="604">
            210 rmoveto
            -9 229 callsubr
            return
          </CharString>
          <CharString index="605">
            -512 -103 callsubr
            return
          </CharString>
          <CharString index="606">
            31 489 callgsubr
            return
          </CharString>
          <CharString index="607">
            -14 -14 -9 -14 -15 vvcurveto
            return
          </CharString>
          <CharString index="608">
            -17 362 callsubr
            17 return
          </CharString>
          <CharString index="609">
            -20 -21 20 28 51 43 return
          </CharString>
          <CharString index="610">
            30 5 17 14 -1 24 return
          </CharString>
          <CharString index="611">
            21 21 25 26 -21 21 return
          </CharString>
          <CharString index="612">
            -177 122 return
          </CharString>
          <CharString index="613">
            -2 -30 39 -29 return
          </CharString>
          <CharString index="614">
            6 147 234 callsubr
            81 -58 89 return
          </CharString>
          <CharString index="615">
            -56 100 -77 59 91 callgsubr
            return
          </CharString>
          <CharString index="616">
            440 callgsubr
            100 -77 return
          </CharString>
          <CharString index="617">
            rmoveto
            -28 10 -19 444 callsubr
            return
          </CharString>
          <CharString index="618">
            5 -48 216 callsubr
            return
          </CharString>
          <CharString index="619">
            -74 rmoveto
            -54 -2 -65 23 65 vvcurveto
            38 23 37 return
          </CharString>
          <CharString index="620">
            vvcurveto
            84 -68 48 -95 -16 vhcurveto
            return
          </CharString>
          <CharString index="621">
            453 callsubr
            18 return
          </CharString>
          <CharString index="622">
            7 -31 -3 -30 -21 -19 -25 return
          </CharString>
          <CharString index="623">
            90 38 rcurveline
            5 -7 -17 -28 return
          </CharString>
          <CharString index="624">
            -25 59 -8 33 5 37 18 return
          </CharString>
          <CharString index="625">
            11 58 9 60 7 56 rrcurveto
            return
          </CharString>
          <CharString index="626">
            371 252 rmoveto
            -55 -51 return
          </CharString>
          <CharString index="627">
            vhcurveto
            49 61 48 66 32 37 return
          </CharString>
          <CharString index="628">
            4 -11 13 -5 8 return
          </CharString>
          <CharString index="629" raw="1">
            08f7be1d 0b  
          </CharString>
          <CharString index="630">
            31 -25 25 -31 hvcurveto
            return
          </CharString>
          <CharString index="631">
            418 rmoveto
            -70 -64 return
          </CharString>
          <CharString index="632">
            66 105 73 86 78 return
          </CharString>
          <CharString index="633">
            65 -56 callsubr
            return
          </CharString>
          <CharString index="634">
            72 67 58 rrcurveto
            return
          </CharString>
          <CharString index="635">
            -31 25 -25 32 return
          </CharString>
          <CharString index="636">
            -259 -33 -122 -166 -36 -189 return
          </CharString>
          <CharString index="637">
            -6 -18 -24 3 -47 522 callgsubr
            return
          </CharString>
          <CharString index="638">
            hlineto
            -20 24 -31 169 callgsubr
            return
          </CharString>
          <CharString index="639">
            -1 -22 -96 20 -15 42 -4 23 6 rlinecurve
            return
          </CharString>
          <CharString index="640">
            -11 rrcurveto
            94 142 119 90 40 -59 return
          </CharString>
          <CharString index="641">
            -54 -77 vvcurveto
            -51 94 -68 60 vhcurveto
            59 -1 return
          </CharString>
          <CharString index="642">
            41 59 65 71 55 45 11 43 -23 34 return
          </CharString>
          <CharString index="643">
            -256 5 -21 -28 -4 -29 14 -15 rlinecurve
            return
          </CharString>
          <CharString index="644">
            25 53 -7 4 -6 rcurveline
            -8 -75 -52 -53 return
          </CharString>
          <CharString index="645">
            -4 29 -44 17 -46 -25 -17 -22 -16 -14 return
          </CharString>
          <CharString index="646">
            271 rmoveto
            -5 -75 -88 -83 -108 -17 return
          </CharString>
          <CharString index="647">
            -31 25 -26 33 hvcurveto
            endchar
          </CharString>
          <CharString index="648">
            26 30 12 34 return
          </CharString>
          <CharString index="649">
            49 66 31 37 return
          </CharString>
          <CharString index="650">
            -84 -155 -84 return
          </CharString>
        <CharString name=".notdef">
          185 176 hmoveto
          399 701 -399 hlineto
          59 -55 rmoveto
          281 -591 -281 hlineto
          endchar
        </CharString>
        <CharString name="A">
          50 250 325 -89 callsubr
          endchar
        </CharString>
        <CharString name="AE">
          237 642 736 rmoveto
          -122 -114 -8 -23 -85 hvcurveto
          -104 -256 -48 -83 rlineto
          -115 hlineto
          -24 -27 -3 -27 18 -23 85 6 rcurveline
          -149 -265 15 -28 52 -9 51 13 rlinecurve
          136 295 155 8 -56 -256 rlineto
          -34 28 19 -19 61 hhcurveto
          80 122 13 16 82 hvcurveto
          13 27 12 55 -40 16 -71 -22 -116 -25 -79 -3 rrcurveto
          65 vlineto
          30 166 95 10 37 0 91 -8 rlinecurve
          23 31 3 42 -18 18 -93 -13 -48 -4 -80 -6 10 196 rcurveline
          29 81 61 7 52 4 54 -9 rlinecurve
          61 -53 50 35 21 64 -32 29 rlinecurve
          2 -39 -54 2 -56 hhcurveto
          -254 -98 rmoveto
          10 3 -5 -274 -131 -5 rlineto
          endchar
        </CharString>
        <CharString name="Aacute">
          50 641 949 31 callgsubr
          -221 -463 -89 callsubr
          endchar
        </CharString>
        <CharString name="Abreve">
          50 455 802 rmoveto
          47 callgsubr
          -82 20 57 -45 73 hhcurveto
          -205 -477 -89 callsubr
          endchar
        </CharString>
        <CharString name="Acircumflex">
          50 467 913 rmoveto
          -3 callsubr
          -157 -145 2 -21 21 -8 20 -1 rlinecurve
          -82 -470 -89 callsubr
          endchar
        </CharString>
        <CharString name="Adieresis">
          50 535 854 21 callgsubr
          -97 -489 -89 callsubr
          endchar
        </CharString>
        <CharString name="Agrave">
          50 434 793 174 callsubr
          -129 -547 -89 callsubr
          endchar
        </CharString>
        <CharString name="Amacron">
          50 579 821 164 callsubr
          -23 -488 -89 callsubr
          endchar
        </CharString>
        <CharString name="Aogonek">
          50 250 325 rmoveto
          135 311 10 2 11 -307 rlineto
          -1 hlineto
          104 -329 rmoveto
          5 1 4 2 5 1 -22 279 rcurveline
          93 5 23 34 1 30 -18 14 rlinecurve
          -105 -20 -16 205 17 171 -38 15 -72 6 -68 -36 rlinecurve
          -100 -256 -69 -131 -107 -4 -23 -28 -2 -26 19 -24 rlinecurve
          74 10 -116 -220 16 -28 52 -9 50 13 rlinecurve
          112 259 47 6 133 8 -9 -250 7 -6 8 -5 9 -5 rlinecurve
          -56 -29 -56 -50 -58 vvcurveto
          -47 68 -42 67 68 50 29 39 37 vhcurveto
          -3 23 -11 9 -17 1 rrcurveto
          -24 -29 -38 -13 -36 hhcurveto
          -36 -27 14 22 -13 hvcurveto
          14 52 48 49 60 14 rrcurveto
          endchar
        </CharString>
        <CharString name="Aring">
          50 445 894 38 callgsubr
          -200 -462 -89 callsubr
          endchar
        </CharString>
        <CharString name="Atilde">
          50 250 325 -89 callsubr
          -66 485 rmoveto
          246 callgsubr
          30 callsubr
          rrcurveto
          endchar
        </CharString>
        <CharString name="B">
          54 480 543 rmoveto
          -2 -72 -17 -11 -43 -38 -55 -24 -54 -7 -73 1 46 274 rcurveline
          136 14 64 -64 -2 -73 rrcurveto
          -298 -477 rmoveto
          48 270 115 11 55 -14 54 -43 rlinecurve
          8 -19 3 -18 -18 vvcurveto
          -1 -51 -13 -41 -41 -49 -64 -22 -87 -8 -77 2 rrcurveto
          276 307 rmoveto
          94 48 41 42 1 94 rrcurveto
          92 1 -96 89 -188 hhcurveto
          -61 -68 -6 -13 -56 hvcurveto
          -14 -19 0 -29 29 -20 39 6 rcurveline
          -23 -207 -23 -120 -25 -99 -45 -149 rlinecurve
          5 -43 40 -25 56 -14 117 -5 95 7 113 40 69 70 19 66 1 62 rrcurveto
          26 -6 27 -15 25 vhcurveto
          -27 21 -35 18 -39 9 rrcurveto
          endchar
        </CharString>
        <CharString name="C">
          44 423 675 13 callgsubr
        </CharString>
        <CharString name="CR">
          -132 endchar
        </CharString>
        <CharString name="Cacute">
          44 477 990 -44 callgsubr
          -54 -315 13 callgsubr
        </CharString>
        <CharString name="Ccaron">
          44 442 801 rmoveto
          136 129 -11 36 -43 2 -33 -10 rlinecurve
          -109 -118 -30 callsubr
          -19 -126 13 callgsubr
        </CharString>
        <CharString name="Ccedilla">
          44 423 675 rmoveto
          36 -41 9 -49 5 -60 43 -18 50 14 31 32 -8 76 -46 85 -93 35 -162 -26 -102 -96 -69 -77 rrcurveto
          -47 -83 -25 -72 -74 vvcurveto
          -148 69 -112 173 -52 vhcurveto
          -52 -108 rlineto
          -61 callgsubr
          48 93 81 36 80 53 39 47 rlinecurve
          2 28 -17 30 -38 -7 -40 -42 -71 -49 -76 -31 rrcurveto
          -113 45 -53 68 133 vvcurveto
          141 111 155 143 51 vhcurveto
          endchar
        </CharString>
        <CharString name="D">
          89 215 348 rmoveto
          22 89 26 110 26 110 161 8 77 -114 2 -149 2 -122 -50 -98 -112 -82 -67 -18 -56 -4 -67 -1 rrcurveto
          -17 571 rmoveto
          -2 -159 -30 -159 -31 -100 -51 -153 29 callgsubr
        </CharString>
        <CharString name="Dcaron">
          89 524 930 rmoveto
          -11 36 -43 2 -33 -10 -109 -118 rcurveline
          -30 callsubr
          -173 -453 rmoveto
          22 89 26 110 26 110 161 8 77 -114 2 -149 2 -122 -50 -98 -112 -82 -67 -18 -56 -4 -67 -1 rrcurveto
          -17 571 rmoveto
          -2 -159 -30 -159 -31 -100 -51 -153 29 callgsubr
        </CharString>
        <CharString name="Dcroat">
          37 callgsubr
        </CharString>
        <CharString name="E">
          -21 460 652 -12 callsubr
        </CharString>
        <CharString name="Eacute">
          -21 460 990 -44 callgsubr
          -338 vmoveto
          -88 callgsubr
          endchar
        </CharString>
        <CharString name="Ecaron">
          -21 425 801 rmoveto
          136 129 -11 36 -43 2 -33 -10 rlinecurve
          -109 -118 -30 callsubr
          35 -149 -12 callsubr
        </CharString>
        <CharString name="Ecircumflex">
          -21 227 825 rmoveto
          2 -21 21 -8 20 -1 135 118 rcurveline
          -3 callsubr
          76 -318 -12 callsubr
        </CharString>
        <CharString name="Edieresis">
          -21 285 814 -23 callsubr
          -13 -236 -12 callsubr
        </CharString>
        <CharString name="Edotaccent">
          -21 460 652 rmoveto
          -88 callgsubr
          -71 164 111 callgsubr
          endchar
        </CharString>
        <CharString name="Egrave">
          -21 460 652 rmoveto
          -88 callgsubr
          -117 348 70 callsubr
          endchar
        </CharString>
        <CharString name="Emacron">
          -21 460 652 rmoveto
          -88 callgsubr
          73 235 36 callgsubr
          endchar
        </CharString>
        <CharString name="Eogonek">
          -26 167 492 rmoveto
          -30 -157 -37 -114 -53 -141 2 -40 34 -25 59 -15 189 17 rcurveline
          -56 -34 -46 -47 -48 vvcurveto
          -58 66 -43 79 64 51 29 39 33 vhcurveto
          -1 22 -9 11 -21 -1 rrcurveto
          -25 -31 -38 -16 -37 hhcurveto
          -39 -29 14 21 -15 hvcurveto
          8 59 86 67 61 21 23 33 11 55 -39 13 -86 -19 -100 -18 -102 -13 62 252 rcurveline
          75 2 73 -5 73 -6 21 33 5 41 -18 21 -62 -7 -75 -6 -82 -9 28 157 rcurveline
          30 102 70 9 52 -6 44 -5 rlinecurve
          70 -52 48 32 20 64 -30 35 rlinecurve
          -187 5 -110 -4 -141 -13 -13 -12 0 -23 10 -23 20 -2 19 -4 13 -7 rrcurveto
          endchar
        </CharString>
        <CharString name="Eth">
          37 callgsubr
        </CharString>
        <CharString name="Euro">
          122 460 264 rmoveto
          25 31 3 28 -19 9 -227 -31 rcurveline
          -1 8 0 8 9 vvcurveto
          21 2 21 5 21 vhcurveto
          226 15 25 32 3 28 -20 10 rlinecurve
          -218 -30 35 90 71 84 91 55 rlinecurve
          16 2 35 -42 12 -22 14 -53 rlinecurve
          48 -17 42 15 23 33 -22 76 -52 54 -86 30 -116 -33 -104 -79 -71 -83 -20 -42 -16 -39 -11 -37 -91 4 rcurveline
          -20 -26 -4 -24 16 -14 85 6 rcurveline
          -3 -21 -2 -20 -20 vvcurveto
          -9 0 -9 1 -8 vhcurveto
          -87 5 -22 -27 -3 -24 16 -15 rlinecurve
          103 7 24 -117 82 -86 164 -38 rlinecurve
          91 35 101 62 45 54 2 28 -18 30 -38 -7 -51 -50 -70 -49 -66 -23 -88 35 -53 50 -18 84 rrcurveto
          endchar
        </CharString>
        <CharString name="F">
          -25 294 655 rmoveto
          70 8 52 -5 44 -5 70 -53 rcurveline
          48 32 20 66 -30 34 -187 5 -110 -4 -141 -13 -13 -12 0 -23 10 -23 20 -2 19 -4 13 -7 -4 -136 rcurveline
          -29 -163 -25 -129 -55 -187 25 -32 72 -10 32 17 10 123 10 87 12 92 76 3 73 -4 72 -7 24 35 1 42 -14 18 -62 -8 -77 -4 -81 -10 25 177 rcurveline
          endchar
        </CharString>
        <CharString name="G">
          44 callsubr
          endchar
        </CharString>
        <CharString name="Gbreve">
          44 callsubr
          -201 687 rmoveto
          -82 20 57 -45 73 hhcurveto
          47 callgsubr
          endchar
        </CharString>
        <CharString name="H">
          143 604 430 rmoveto
          75 298 rlineto
          7 -15 -15 4 -18 hhcurveto
          -26 -29 -9 -20 -35 hvcurveto
          -11 -203 -5 -32 -5 -30 -6 -28 rlinecurve
          -141 -22 -142 -3 2 21 79 315 rlineto
          7 -15 -16 4 -17 hhcurveto
          -27 -28 -9 -20 -35 hvcurveto
          -11 -203 -7 -43 -7 -38 -7 -36 rlinecurve
          -67 -1 -24 -28 -3 -28 18 -24 rlinecurve
          61 8 -19 -91 -21 -81 -29 -109 rlinecurve
          19 -34 65 -10 46 15 12 117 14 112 10 93 10 1 rcurveline
          268 20 -21 -104 -23 -88 -32 -122 rlinecurve
          18 -34 66 -10 46 15 12 129 16 123 11 98 79 6 rcurveline
          25 35 2 31 -20 13 rrcurveto
          endchar
        </CharString>
        <CharString name="I">
          -32 callsubr
          endchar
        </CharString>
        <CharString name="Iacute">
          -32 callsubr
          156 280 331 callgsubr
        </CharString>
        <CharString name="Icircumflex">
          -32 callsubr
          -77 115 rmoveto
          2 -21 21 -8 20 -1 135 118 rcurveline
          -3 callsubr
          endchar
        </CharString>
        <CharString name="Idieresis">
          -32 callsubr
          -19 104 -23 callsubr
          endchar
        </CharString>
        <CharString name="Idotaccent">
          -32 callsubr
          84 106 111 callgsubr
          endchar
        </CharString>
        <CharString name="Igrave">
          -32 callsubr
          38 290 70 callsubr
          endchar
        </CharString>
        <CharString name="Imacron">
          -32 callsubr
          229 177 36 callgsubr
          endchar
        </CharString>
        <CharString name="Iogonek">
          -313 145 5 rmoveto
          5 2 16 155 19 146 10 105 rlinecurve
          79 315 rlineto
          7 -16 -15 4 -17 hhcurveto
          -26 -30 -9 -20 -34 hvcurveto
          -12 -203 -30 -189 -26 -104 -48 -178 rlinecurve
          7 -12 12 -9 15 -6 rrcurveto
          -57 -31 -37 -48 -47 vvcurveto
          -51 49 -45 86 61 53 28 40 35 vhcurveto
          -1 22 -11 9 -21 1 rrcurveto
          -26 -28 -40 -14 -37 hhcurveto
          -28 -28 8 19 -19 hvcurveto
          2 61 62 48 50 20 rrcurveto
          endchar
        </CharString>
        <CharString name="J">
          11 323 660 rmoveto
          -6 -148 -27 -170 -27 -109 -34 -153 rlinecurve
          -16 -8 -42 44 -28 49 -8 67 rlinecurve
          -36 20 -43 -18 -31 -44 17 -67 56 -75 83 -46 72 -6 62 23 29 50 11 131 13 97 9 103 63 262 rcurveline
          185 -17 31 35 2 30 -16 15 rlinecurve
          -204 10 -119 -4 -191 -12 -15 -24 -1 -22 28 -31 rrcurveto
          endchar
        </CharString>
        <CharString name="K">
          56 339 489 79 callsubr
        </CharString>
        <CharString name="L">
          -81 141 710 20 callsubr
        </CharString>
        <CharString name="Lacute">
          -81 278 990 -44 callgsubr
          -137 -280 20 callsubr
        </CharString>
        <CharString name="Lcaron">
          -81 376 585 rmoveto
          57 48 54 75 7 72 -16 45 -55 31 -53 -42 22 -124 rcurveline
          -56 -85 7 -14 16 -7 17 1 rlinecurve
          -235 125 20 callsubr
        </CharString>
        <CharString name="Lslash">
          -21 252 369 rmoveto
          149 29 23 32 -20 31 -26 4 rlinecurve
          -112 -37 73 300 -41 21 -43 -8 -54 -31 rlinecurve
          -10 -204 -8 -38 -7 -37 -8 -35 rlinecurve
          -126 -9 -19 -17 7 -36 35 -18 rlinecurve
          92 28 -22 -91 -24 -85 -34 -91 rlinecurve
          5 -38 36 -24 53 -15 315 34 rcurveline
          20 28 11 52 -38 15 -83 -19 -98 -19 -103 -14 rrcurveto
          endchar
        </CharString>
        <CharString name="M">
          175 532 495 rmoveto
          -148 -223 -52 79 -35 104 -24 152 -8 111 rlinecurve
          14 -16 -21 6 -22 hhcurveto
          -26 -25 -6 -14 -25 hvcurveto
          -13 -212 -31 -187 -25 -103 -48 -180 rlinecurve
          18 -34 66 -10 45 15 15 156 21 146 10 104 27 121 rcurveline
          16 -97 27 -103 54 -108 35 -28 28 -7 48 14 197 331 rcurveline
          -3 -52 -31 -183 -23 -94 -46 -171 rlinecurve
          20 -34 64 -10 47 15 14 153 20 144 10 108 78 312 rcurveline
          11 -14 -19 4 -19 hhcurveto
          -27 -25 -9 -7 -19 hvcurveto
          endchar
        </CharString>
        <CharString name="N">
          101 550 505 -66 callgsubr
        </CharString>
        <CharString name="NULL">
          endchar
        </CharString>
        <CharString name="Nacute">
          101 625 949 31 callgsubr
          95 -283 -66 callgsubr
        </CharString>
        <CharString name="Ncaron">
          101 607 930 rmoveto
          -11 36 -43 2 -33 -10 -109 -118 rcurveline
          -30 callsubr
          79 -296 -66 callgsubr
        </CharString>
        <CharString name="Ntilde">
          101 361 869 204 callsubr
          245 -289 -66 callgsubr
        </CharString>
        <CharString name="O">
          105 callgsubr
          endchar
        </CharString>
        <CharString name="OE">
          343 530 667 rmoveto
          37 -35 -44 38 -43 hhcurveto
          -173 -185 -220 -219 2 hvcurveto
          -126 117 505 callsubr
          42 53 28 41 44 vhcurveto
          22 -39 27 -17 45 -13 302 28 rcurveline
          23 33 11 55 -41 13 -95 -19 -98 -18 -91 -8 59 247 rcurveline
          83 1 70 -5 65 -5 20 33 5 41 -18 21 -59 -6 -71 -5 -89 -10 -10 198 rcurveline
          33 49 70 18 60 -3 45 -5 rlinecurve
          71 -52 46 32 21 64 -31 35 rlinecurve
          -192 3 -95 -8 -88 -60 rrcurveto
          -370 -348 rmoveto
          146 100 141 141 73 vhcurveto
          91 -90 18 -73 7 -133 -21 -129 -71 -119 -131 -71 -92 51 -43 105 1 99 rrcurveto
          endchar
        </CharString>
        <CharString name="Oacute">
          69 503 992 -44 callgsubr
          -453 -689 -78 callsubr
          endchar
        </CharString>
        <CharString name="Ocircumflex">
          69 270 827 rmoveto
          2 -21 21 -8 20 -1 135 118 rcurveline
          -3 callsubr
          -377 -669 -78 callsubr
          endchar
        </CharString>
        <CharString name="Odieresis">
          69 328 816 -23 callsubr
          -466 -587 -78 callsubr
          endchar
        </CharString>
        <CharString name="Ograve">
          105 callgsubr
          -133 639 70 callsubr
          endchar
        </CharString>
        <CharString name="Ohungarumlaut">
          69 306 802 99 callgsubr
          -481 -659 -78 callsubr
          endchar
        </CharString>
        <CharString name="Omacron">
          69 577 889 36 callgsubr
          -527 -586 -78 callsubr
          endchar
        </CharString>
        <CharString name="Oslash">
          155 533 464 rmoveto
          7 -32 5 -34 4 -35 -41 -125 -65 -99 -125 -75 -47 28 -34 45 -22 50 rrcurveto
          -18 58 rmoveto
          -6 24 -3 25 25 vvcurveto
          146 100 141 141 73 vhcurveto
          43 -46 28 -53 18 -61 rrcurveto
          243 143 rmoveto
          -3 41 -36 26 -54 8 -79 -130 rcurveline
          79 -42 -58 56 -52 hhcurveto
          -174 -185 -220 -219 2 hvcurveto
          -41 13 -45 20 -44 vhcurveto
          -109 -93 1 -47 30 -20 53 -13 rlinecurve
          66 105 rlineto
          -60 44 60 -45 61 hhcurveto
          129 204 229 147 -2 hvcurveto
          -1 55 -11 56 -19 52 rrcurveto
          endchar
        </CharString>
        <CharString name="Otilde">
          105 callgsubr
          -140 575 rmoveto
          30 callsubr
          -62 -75 rcurveline
          -4 1 -24 32 -39 26 -70 24 rlinecurve
          endchar
        </CharString>
        <CharString name="P">
          9 288 669 rmoveto
          133 5 61 -62 2 -82 rrcurveto
          -66 -33 -62 -51 -35 vhcurveto
          -48 -25 -58 -14 -69 -12 3 34 3 33 2 35 rrcurveto
          -59 241 rmoveto
          -17 -189 -25 -141 -23 -132 -47 -166 rlinecurve
          24 -30 74 -9 32 17 10 87 10 82 8 82 70 6 77 16 68 23 rrcurveto
          104 55 49 81 94 vvcurveto
          107 -1 -99 99 -184 hhcurveto
          -71 -57 -7 -14 -49 hvcurveto
          -17 -10 -2 -29 18 -24 rrcurveto
          endchar
        </CharString>
        <CharString name="Q">
          87 159 319 rmoveto
          146 98 141 142 73 vhcurveto
          77 -82 28 -107 15 -127 -41 -125 -65 -99 -126 -75 rrcurveto
          -84 51 -44 105 99 vvcurveto
          231 -355 rmoveto
          -31 54 122 56 141 180 -2 122 rlinecurve
          176 -3 -115 190 -96 hhcurveto
          -174 -184 -220 -219 2 hvcurveto
          -126 1 116 505 callsubr
          hhcurveto
          9 hlineto
          98 -166 60 -2 44 24 -1 52 rlinecurve
          endchar
        </CharString>
        <CharString name="R">
          42 289 671 -72 callsubr
          endchar
        </CharString>
        <CharString name="Racute">
          42 536 949 31 callgsubr
          -77 -117 -72 callsubr
          endchar
        </CharString>
        <CharString name="Rcaron">
          42 518 930 rmoveto
          -11 36 -43 2 -33 -10 -109 -118 rcurveline
          -30 callsubr
          -93 -130 -72 callsubr
          endchar
        </CharString>
        <CharString name="S">
          32 561 239 rmoveto
          -34 callgsubr
          21 -72 106 -90 109 -30 183 29 103 90 19 120 rrcurveto
          endchar
        </CharString>
        <CharString name="Sacute">
          32 472 990 -44 callgsubr
          89 -751 rmoveto
          -34 callgsubr
          21 -72 106 -90 109 -30 183 29 103 90 19 120 rrcurveto
          endchar
        </CharString>
        <CharString name="Scaron">
          32 437 801 rmoveto
          136 129 -11 36 -43 2 -33 -10 rlinecurve
          -109 -118 -30 callsubr
          124 -562 rmoveto
          -34 callgsubr
          21 -72 106 -90 109 -30 183 29 103 90 19 120 rrcurveto
          endchar
        </CharString>
        <CharString name="T">
          11 296 657 45 callgsubr
        </CharString>
        <CharString name="Tcaron">
          11 558 930 rmoveto
          -11 36 -43 2 -33 -10 -109 -118 rcurveline
          -30 callsubr
          -126 -144 45 callgsubr
        </CharString>
        <CharString name="Thorn">
          5 397 283 rmoveto
          -64 -21 -50 -5 -69 12 9 85 11 88 10 79 35 16 47 15 41 -3 65 -19 40 -47 3 -65 1 -53 -31 -38 -48 -44 rrcurveto
          -86 528 rmoveto
          -40 20 -41 -9 -54 -32 -6 -250 rcurveline
          -43 -207 -26 -144 -47 -157 21 -30 77 -11 33 19 7 58 8 73 9 80 65 -18 71 -1 90 18 100 67 46 54 -2 82 -1 94 -78 72 -112 26 -41 -1 -51 -12 -42 -18 rrcurveto
          endchar
        </CharString>
        <CharString name="U">
          -6 callgsubr
          endchar
        </CharString>
        <CharString name="Uacute">
          39 459 990 -44 callgsubr
          112 -624 -83 callgsubr
          endchar
        </CharString>
        <CharString name="Ucircumflex">
          39 227 825 rmoveto
          2 -21 21 -8 20 -1 135 118 rcurveline
          -3 callsubr
          187 -604 -83 callgsubr
          endchar
        </CharString>
        <CharString name="Udieresis">
          39 285 814 -23 callsubr
          98 -522 -83 callgsubr
          endchar
        </CharString>
        <CharString name="Ugrave">
          -6 callgsubr
          -229 634 70 callsubr
          endchar
        </CharString>
        <CharString name="Uhungarumlaut">
          -6 callgsubr
          -308 434 99 callgsubr
          endchar
        </CharString>
        <CharString name="Umacron">
          -6 callgsubr
          -38 521 36 callgsubr
          endchar
        </CharString>
        <CharString name="Uogonek">
          39 508 494 rmoveto
          -28 -175 -28 -138 -85 -94 -131 -48 -80 85 5 90 3 158 49 186 52 172 rrcurveto
          8 -15 -16 3 -17 hhcurveto
          -26 -30 -9 -19 -35 hvcurveto
          -17 -197 -25 -135 -35 -202 10 -64 53 -84 101 -24 rrcurveto
          -57 -33 -30 -45 -42 vvcurveto
          -54 49 -46 94 58 53 28 40 35 vhcurveto
          22 -3 -10 10 -19 hhcurveto
          -26 -30 -39 -15 -35 hhcurveto
          -32 -28 11 23 -21 hvcurveto
          10 57 47 45 63 21 rrcurveto
          0 vlineto
          156 22 56 136 41 205 28 137 15 114 23 113 rrcurveto
          8 -15 -15 3 -18 hhcurveto
          -27 -29 -9 -19 -34 hvcurveto
          endchar
        </CharString>
        <CharString name="Uring">
          39 456 1001 140 callsubr
          134 -600 -83 callgsubr
          endchar
        </CharString>
        <CharString name="V">
          19 508 533 rmoveto
          -231 -454 -29 194 -14 446 -27 22 -67 -10 -36 -33 rlinecurve
          83 -665 33 -33 57 -8 46 13 rlinecurve
          57 152 71 129 66 104 71 127 rlinecurve
          28 55 22 65 -6 71 -31 26 -56 8 -59 -36 rrcurveto
          endchar
        </CharString>
        <CharString name="W">
          293 789 535 rmoveto
          -192 -456 -36 221 -7 366 -45 20 -44 -14 -34 -32 rlinecurve
          31 -210 -180 -339 -30 182 -18 450 -28 21 -65 -7 -36 -34 rlinecurve
          90 -670 33 -33 56 -8 46 13 rlinecurve
          56 150 92 175 32 -298 31 -32 59 -8 45 13 rlinecurve
          46 155 179 360 29 59 19 64 -5 70 rlinecurve
          -33 24 -54 9 -59 -35 rrcurveto
          endchar
        </CharString>
        <CharString name="X">
          75 354 416 rmoveto
          -27 122 -64 130 -79 71 -63 -8 -33 -42 6 -53 76 -52 87 -96 60 -120 -88 -91 -118 -122 -95 -72 -3 -40 19 -34 72 -9 226 316 rcurveline
          26 -105 73 -145 60 -66 70 13 32 43 -8 44 -76 55 -88 135 -47 81 116 120 99 98 87 75 -8 51 -24 29 -54 -4 rrcurveto
          endchar
        </CharString>
        <CharString name="Y">
          14 callgsubr
          endchar
        </CharString>
        <CharString name="Yacute">
          14 callgsubr
          359 292 331 callgsubr
        </CharString>
        <CharString name="Ydieresis">
          14 callgsubr
          184 116 -23 callsubr
          endchar
        </CharString>
        <CharString name="Z">
          48 122 49 -59 callsubr
          endchar
        </CharString>
        <CharString name="Zacute">
          48 467 990 -44 callgsubr
          -345 -941 -59 callsubr
          endchar
        </CharString>
        <CharString name="Zcaron">
          48 432 801 rmoveto
          136 129 -11 36 -43 2 -33 -10 rlinecurve
          -109 -118 -30 callsubr
          -310 -752 -59 callsubr
          endchar
        </CharString>
        <CharString name="Zdotaccent">
          48 122 49 -59 callsubr
          279 771 111 callgsubr
          endchar
        </CharString>
        <CharString name="a">
          -6 371 252 -92 callgsubr
          endchar
        </CharString>
        <CharString name="aacute">
          -6 579 750 31 callgsubr
          -38 -337 -92 callgsubr
          endchar
        </CharString>
        <CharString name="abreve">
          -6 393 603 rmoveto
          47 callgsubr
          -82 20 57 -45 73 hhcurveto
          -22 -351 -92 callgsubr
          endchar
        </CharString>
        <CharString name="acircumflex">
          -6 405 714 rmoveto
          -3 callsubr
          -157 -145 2 -21 21 -8 20 -1 rlinecurve
          101 -344 -92 callgsubr
          endchar
        </CharString>
        <CharString name="acute">
          -366 173 791 331 callgsubr
        </CharString>
        <CharString name="adieresis">
          -6 473 655 21 callgsubr
          86 -363 -92 callgsubr
          endchar
        </CharString>
        <CharString name="ae">
          290 582 72 rmoveto
          -70 28 -29 46 -8 63 498 callgsubr
          -123 28 -67 -14 -60 -43 -38 -46 33 78 rcurveline
          -14 23 -37 3 -38 -7 -10 -22 -6 -30 -1 -51 -25 42 -33 40 -37 19 -158 -2 -135 -190 2 -165 1 -99 59 -72 123 -4 44 51 47 51 42 47 10 -10 rcurveline
          -43 -118 19 -28 31 -14 46 11 rlinecurve
          16 109 24 -48 48 -41 70 -23 rlinecurve
          72 11 114 55 40 44 rrcurveto
          38 5 -10 14 -32 hhcurveto
          -41 -39 -69 -30 -67 -21 rrcurveto
          56 414 rmoveto
          53 -32 14 -42 -4 -67 -70 -34 -74 -26 -84 -22 2 83 65 89 82 47 rrcurveto
          -305 -5 rmoveto
          42 -28 22 -27 20 -42 -11 -30 -17 -56 -3 -45 -55 -50 -58 -53 -60 -56 518 callgsubr
          124 62 113 110 47 vhcurveto
          endchar
        </CharString>
        <CharString name="agrave">
          -6 373 594 174 callsubr
          53 -421 -92 callgsubr
          endchar
        </CharString>
        <CharString name="amacron">
          -6 517 622 164 callsubr
          160 -362 -92 callgsubr
          endchar
        </CharString>
        <CharString name="ampersand">
          68 580 186 rmoveto
          13 46 -26 38 -51 -11 -45 -52 -65 -41 -89 -30 -55 17 -47 36 -14 49 58 79 80 26 107 14 11 37 -2 27 -32 15 -22 -8 -24 -7 -36 -6 -55 17 -35 20 -24 42 rrcurveto
          48 57 60 50 103 5 62 -85 rcurveline
          66 14 18 22 -7 36 rrcurveto
          38 -31 -50 35 -68 hhcurveto
          -127 -120 -62 -111 -72 hvcurveto
          11 -52 66 -48 87 -14 -88 -24 -55 -40 -43 -89 23 -65 72 -65 127 -25 122 25 74 36 75 54 rrcurveto
          -135 535 rmoveto
          43 166 -32 26 -28 -3 -52 -28 rlinecurve
          1 -154 15 -14 21 -1 32 8 rlinecurve
          -160 -714 rmoveto
          -44 -166 33 -25 29 2 50 28 rlinecurve
          -1 154 -14 14 -22 1 -31 -8 rlinecurve
          endchar
        </CharString>
        <CharString name="aogonek">
          -10 519 callsubr
          -59 -54 -62 483 callgsubr
          124 62 113 110 47 vhcurveto
          42 -28 22 -27 21 -43 rrcurveto
          42 -375 rmoveto
          4 1 4 1 4 1 6 379 callsubr
          13 102 80 153 rcurveline
          -19 33 -35 9 -69 -6 -10 -21 -6 -33 -1 -49 -1 -2 rcurveline
          -24 43 -35 40 -38 20 -158 -2 -135 -190 2 -165 1 -99 58 -72 124 -4 44 50 51 53 42 47 12 -11 rcurveline
          -45 -117 7 -7 9 -6 9 -5 rlinecurve
          -66 -34 -42 -56 474 callgsubr
          -3 -10 9 -21 hhcurveto
          -44 -42 -73 -7 -49 30 13 68 52 45 72 20 rrcurveto
          endchar
        </CharString>
        <CharString name="apostrophemod">
          -248 203 638 rmoveto
          134 callsubr
          endchar
        </CharString>
        <CharString name="approxequal">
          51 217 493 408 callgsubr
          34 117 -81 78 hhcurveto
          51 74 63 34 21 hvcurveto
          -3 32 -21 16 -46 -5 -74 -83 rcurveline
          -5 hlineto
          15 -63 -101 68 -77 hhcurveto
          -23 -164 408 callgsubr
          33 118 -81 77 hhcurveto
          52 74 63 34 21 hvcurveto
          -3 32 -21 16 -47 -5 -74 -82 rcurveline
          -5 hlineto
          14 -62 -101 68 -77 hhcurveto
          endchar
        </CharString>
        <CharString name="aring">
          -6 384 695 38 callgsubr
          -18 -336 -92 callgsubr
          endchar
        </CharString>
        <CharString name="asciicircum">
          -79 54 418 rmoveto
          3 -18 19 -11 23 2 199 323 rcurveline
          90 -312 19 -12 46 -8 33 29 rlinecurve
          -111 348 -23 16 -35 4 -41 -8 rlinecurve
          endchar
        </CharString>
        <CharString name="asciitilde">
          83 198 420 rmoveto
          -62 -24 -48 -42 -32 -39 -2 -22 37 -17 40 3 69 74 rcurveline
          7 3 54 -43 60 -23 112 -16 rlinecurve
          72 27 46 30 36 48 -1 24 -31 16 -40 -7 -80 -72 rcurveline
          -7 1 -69 43 -38 21 -123 15 rlinecurve
          endchar
        </CharString>
        <CharString name="asterisk">
          -198 306 793 rmoveto
          100 70 -6 18 -12 14 -17 8 rlinecurve
          -80 -90 29 112 -19 5 -19 0 -20 -5 rlinecurve
          2 -112 -59 90 -20 -8 -14 -13 -11 -18 rlinecurve
          85 -71 -113 16 -10 -19 -2 -20 5 -18 rlinecurve
          114 15 -98 -69 8 -19 12 -13 16 -9 rlinecurve
          80 91 -29 -113 20 -6 19 0 18 6 rlinecurve
          -2 113 60 -91 21 8 14 12 10 20 rlinecurve
          -82 70 110 -15 9 18 3 19 -5 20 rlinecurve
          endchar
        </CharString>
        <CharString name="at">
          415 634 379 rmoveto
          -30 -129 -54 -51 -58 -53 -61 -56 rlinecurve
          -40 24 -12 33 46 vvcurveto
          124 62 113 111 47 vhcurveto
          41 -27 21 -27 21 -41 rrcurveto
          159 129 rmoveto
          -22 34 -28 9 -73 -7 -11 -22 -5 -31 -1 -49 rrcurveto
          0 vlineto
          -24 41 -35 39 -37 20 -158 -2 -135 -190 2 -165 1 -99 59 -72 123 -4 45 51 53 55 42 46 11 -7 rcurveline
          -18 -52 10 -40 58 -39 rrcurveto
          163 55 152 144 150 vvcurveto
          200 -161 184 -205 -280 -294 -237 -282 -228 185 -155 231 -40 vhcurveto
          87 23 87 35 51 49 1 37 -11 20 -48 1 -37 -38 -65 -42 -70 -26 rrcurveto
          -171 43 -140 116 199 vvcurveto
          228 215 218 272 24 vhcurveto
          192 -63 79 -93 17 -194 -30 -114 -86 -88 -113 -65 12 89 14 91 15 89 rrcurveto
          endchar
        </CharString>
        <CharString name="atilde">
          -6 371 252 -92 callgsubr
          53 210 rmoveto
          246 callgsubr
          30 callsubr
          rrcurveto
          endchar
        </CharString>
        <CharString name="b">
          -24 146 70 rmoveto
          17 81 12 76 12 85 51 62 48 47 43 38 58 -25 25 -37 11 -69 -21 -116 -96 -108 -160 -34 rrcurveto
          25 328 rmoveto
          33 60 21 115 58 238 -40 19 -36 -6 -58 -32 rlinecurve
          -11 -252 -28 -155 -34 -156 -36 -138 rlinecurve
          7 -42 35 -32 69 -17 189 37 141 111 45 177 -23 117 -39 67 -137 36 -48 -47 -49 -53 -46 -60 rrcurveto
          endchar
        </CharString>
        <CharString name="backslash">
          -90 65 842 rmoveto
          281 -958 30 -11 27 -2 21 27 rlinecurve
          -166 466 -118 509 -32 14 -31 -13 -12 -32 rlinecurve
          endchar
        </CharString>
        <CharString name="bar">
          -315 117 524 rmoveto
          -29 -193 -55 -307 -48 -179 18 -34 63 -10 46 14 17 161 51 348 10 99 127 551 rcurveline
          7 -15 -15 4 -18 hhcurveto
          -26 -27 -9 -21 -34 hvcurveto
          endchar
        </CharString>
        <CharString name="braceleft">
          85 533 751 rmoveto
          27 10 15 19 1 27 rrcurveto
          37 -47 -57 33 -58 hhcurveto
          -49 -57 -28 -40 -33 hvcurveto
          -163 100 -101 -169 -117 hhcurveto
          -25 -84 54 -24 48 -63 -2 -73 rlinecurve
          -3 -84 -40 -73 -77 -51 20 -65 50 -46 61 -17 64 4 55 16 46 16 5 20 -12 24 -17 12 -136 -27 rcurveline
          -27 36 69 61 53 77 2 87 rlinecurve
          1 77 -38 60 -73 46 3 15 rcurveline
          85 3 67 57 23 84 19 63 -8 83 -40 85 39 23 rcurveline
          endchar
        </CharString>
        <CharString name="braceright">
          85 443 548 rmoveto
          3 83 40 73 78 51 -21 66 -54 59 -66 3 -54 -2 -59 -15 -43 -19 -4 -21 11 -23 17 -12 136 27 rcurveline
          28 -36 -70 -60 -53 -78 -1 -87 rlinecurve
          -2 -77 38 -59 74 -47 -4 -15 rcurveline
          -84 -3 -67 -57 -24 -84 -19 -63 8 -83 40 -85 -39 -23 rcurveline
          -110 67 -27 -8 -15 -20 -1 -27 rlinecurve
          50 -34 51 -26 61 -14 58 5 50 24 31 43 rrcurveto
          163 -100 102 169 116 hhcurveto
          25 84 -54 24 -48 63 2 74 rlinecurve
          endchar
        </CharString>
        <CharString name="bracketleft">
          -24 459 804 rmoveto
          100 -6 19 30 5 15 -5 24 rlinecurve
          -300 -6 -67 -443 -107 -436 5 -20 17 -20 28 -15 rlinecurve
          246 41 20 22 4 21 -9 14 rlinecurve
          -185 -26 40 260 71 373 48 168 rlineto
          endchar
        </CharString>
        <CharString name="bracketright">
          -2 373 236 rmoveto
          132 544 -3 32 -10 22 -20 19 rlinecurve
          -291 13 -13 -16 6 -23 19 -28 rlinecurve
          190 5 -72 -386 -72 -410 -211 -4 -15 -30 3 -25 16 -25 rlinecurve
          325 45 rlineto
          endchar
        </CharString>
        <CharString name="breve">
          -248 95 730 rmoveto
          -82 20 57 -45 73 hhcurveto
          47 callgsubr
          endchar
        </CharString>
        <CharString name="brokenbar">
          -307 166 751 rmoveto
          -15 -88 -19 -58 -29 -112 24 -19 61 -9 44 15 6 82 12 99 4 47 74 261 rcurveline
          10 -15 -19 6 -22 hhcurveto
          -24 -25 -5 -12 -31 hvcurveto
          -150 -876 rmoveto
          -16 -89 -19 -62 -29 -110 23 -23 63 -18 44 25 6 83 12 104 3 46 70 254 rcurveline
          10 -14 -18 6 -20 hhcurveto
          -24 -27 -3 -12 -28 hvcurveto
          endchar
        </CharString>
        <CharString name="bullet">
          -180 163 253 rmoveto
          63 80 47 67 45 hvcurveto
          70 -12 -66 78 -51 hhcurveto
          -72 -9 -74 -85 -11 -77 rrcurveto
          -55 8 41 -36 49 hhcurveto
          endchar
        </CharString>
        <CharString name="c">
          -51 330 547 22 callgsubr
        </CharString>
        <CharString name="cacute">
          -51 415 791 -44 callgsubr
          -85 -244 22 callgsubr
        </CharString>
        <CharString name="caron">
          -227 272 602 rmoveto
          136 129 -11 36 -43 2 -33 -10 rlinecurve
          -109 -118 -30 callsubr
          endchar
        </CharString>
        <CharString name="ccaron">
          -51 380 602 rmoveto
          136 129 -11 36 -43 2 -33 -10 rlinecurve
          -109 -118 -30 callsubr
          -50 -55 22 callgsubr
        </CharString>
        <CharString name="ccedilla">
          -51 315 482 rmoveto
          33 -32 16 -28 1 -61 43 -13 46 11 25 32 -11 75 -48 66 -90 15 -113 -24 -89 -84 -55 -76 -20 -37 -14 -38 -1 -45 -5 -105 51 -102 143 -34 -48 -101 rcurveline
          -61 callgsubr
          50 96 62 23 63 37 32 33 rlinecurve
          5 33 -9 19 -33 -1 -40 -37 -74 -36 -59 -18 -87 42 -21 62 5 89 3 69 55 94 87 51 rrcurveto
          endchar
        </CharString>
        <CharString name="cedilla">
          -232 89 22 rmoveto
          -58 -121 rlineto
          -61 callgsubr
          52 100 rlineto
          endchar
        </CharString>
        <CharString name="cent">
          -49 217 91 rmoveto
          -58 41 -14 56 4 76 3 66 51 90 82 52 rrcurveto
          106 165 rmoveto
          -14 30 -24 11 -34 -11 -23 -129 rcurveline
          -97 -32 -77 -75 -49 -68 -20 -37 -14 -38 -2 -45 -4 -95 42 -93 116 -42 -42 -105 rcurveline
          16 -31 27 -15 32 9 22 131 rcurveline
          79 14 97 51 41 44 6 33 -9 19 -34 -1 -38 -36 -69 -34 -60 -19 68 398 rcurveline
          26 -25 16 -29 4 -56 40 -12 45 11 25 34 -12 67 -45 60 -74 21 rrcurveto
          endchar
        </CharString>
        <CharString name="circumflex">
          -208 74 626 rmoveto
          2 -21 21 -8 20 -1 135 118 rcurveline
          -3 callsubr
          endchar
        </CharString>
        <CharString name="colon">
          -306 71 hmoveto
          35 44 27 36 24 hvcurveto
          38 -6 -36 43 -28 hhcurveto
          -41 -4 -39 -47 -7 -43 rrcurveto
          -30 5 22 -20 27 hhcurveto
          55 310 callsubr
          endchar
        </CharString>
        <CharString name="comma">
          -336 155 47 rmoveto
          451 callsubr
          -1 -142 rcurveline
          243 callgsubr
          rrcurveto
          endchar
        </CharString>
        <CharString name="copyright">
          224 42 374 rmoveto
          306 callsubr
          529 callsubr
          rrcurveto
          686 2 rmoveto
          -29 -155 -92 -158 -240 -25 315 callgsubr
          rrcurveto
          -136 101 rmoveto
          -9 64 -41 57 -77 13 -97 -20 -75 -73 -46 -66 -18 -31 -11 -33 -2 -38 -4 -90 44 -90 130 -27 66 9 89 46 37 39 rrcurveto
          29 4 -7 16 -29 hhcurveto
          -34 -33 -62 -31 -51 -16 -75 37 -18 53 4 76 3 59 47 82 75 43 18 3 rcurveline
          28 -26 14 -24 1 -54 36 -10 39 9 21 27 rrcurveto
          endchar
        </CharString>
        <CharString name="currency">
          123 239 340 rmoveto
          17 91 49 81 103 58 55 -51 38 -71 8 -69 -21 -99 -54 -65 -109 -49 -55 45 -28 53 -3 76 rrcurveto
          272 240 rmoveto
          31 -29 -33 21 -29 hhcurveto
          -56 -60 -34 -48 -50 hvcurveto
          -96 123 -66 -2 -17 -33 13 -37 rlinecurve
          128 -93 rlineto
          -46 -57 -30 -67 -55 vvcurveto
          -49 18 -45 26 -37 vhcurveto
          -125 -79 -15 -37 14 -33 66 -6 rlinecurve
          100 111 rlineto
          -28 31 36 -17 30 hhcurveto
          46 52 23 36 47 hvcurveto
          102 -114 67 5 15 34 -16 37 rlinecurve
          -123 78 rlineto
          54 54 39 69 59 vvcurveto
          -1 41 -22 53 -31 47 120 75 rcurveline
          15 38 -15 33 -66 5 rrcurveto
          endchar
        </CharString>
        <CharString name="d">
          -43 146 callsubr
          37 161 rmoveto
          50 callgsubr
          61 229 rcurveline
          -38 20 -37 -7 -62 -32 rrcurveto
          endchar
        </CharString>
        <CharString name="dagger">
          -110 326 584 rmoveto
          64 217 -34 24 -52 -5 -51 -26 rlinecurve
          -22 -218 -129 18 -24 -30 -4 -31 18 -20 rlinecurve
          133 10 -3 -32 -121 -775 21 -13 17 0 15 10 rlinecurve
          156 814 144 -6 27 34 4 35 -18 14 rlinecurve
          endchar
        </CharString>
        <CharString name="daggerdbl">
          -105 316 533 rmoveto
          143 -6 27 33 4 36 -17 13 rlinecurve
          -143 -21 62 220 -33 24 -50 -4 -50 -27 rlinecurve
          -20 -220 -132 18 -23 -29 -4 -32 17 -20 rlinecurve
          136 11 -33 -273 -59 -263 -145 6 -28 -34 -3 -35 17 -14 rlinecurve
          145 21 -64 -220 33 -24 50 5 49 27 rlinecurve
          21 219 131 -19 24 31 4 30 -17 21 rlinecurve
          -137 -10 33 270 rlineto
          endchar
        </CharString>
        <CharString name="danda">
          -184 247 446 250 callgsubr
        </CharString>
        <CharString name="dcaron">
          61 146 callsubr
          37 161 rmoveto
          50 callgsubr
          61 229 rcurveline
          -38 20 -37 -7 -62 -32 rrcurveto
          214 -18 rmoveto
          437 callsubr
          493 callgsubr
          rrcurveto
          endchar
        </CharString>
        <CharString name="dcroat">
          -43 146 callsubr
          139 297 rmoveto
          36 135 -38 20 -37 -7 -62 -32 rlinecurve
          -118 vlineto
          -97 3 -21 -28 -4 -20 14 -15 rlinecurve
          107 3 rlineto
          -77 vlineto
          50 callgsubr
          10 37 rcurveline
          112 3 28 31 4 26 -16 9 rlinecurve
          endchar
        </CharString>
        <CharString name="degree">
          -126 309 762 rmoveto
          -96 -110 -111 -85 1 hvcurveto
          -72 80 -64 54 91 121 102 77 -2 vhcurveto
          57 -2 -78 96 -59 hhcurveto
          -13 -43 rmoveto
          30 -32 21 -43 5 -42 -12 -61 -29 -40 -62 -31 -28 29 -16 32 -3 46 9 56 28 50 57 36 rrcurveto
          endchar
        </CharString>
        <CharString name="dieresis">
          -239 141 615 -23 callsubr
          endchar
        </CharString>
        <CharString name="divide">
          148 683 381 rmoveto
          -310 -16 -307 4 -21 -28 -4 -28 14 -16 rlinecurve
          612 8 28 32 4 34 -16 10 rlinecurve
          -366 -285 rmoveto
          32 40 25 32 22 hvcurveto
          35 -5 -34 39 -26 hhcurveto
          -36 -5 -37 -42 -4 -39 rrcurveto
          -27 3 21 -18 24 hhcurveto
          58 349 rmoveto
          32 41 25 33 21 hvcurveto
          34 -5 -34 39 -26 hhcurveto
          -36 -4 -37 -42 -4 -39 rrcurveto
          -28 3 21 -18 24 hhcurveto
          endchar
        </CharString>
        <CharString name="dollar">
          32 333 320 rmoveto
          63 -34 51 -29 -31 vvcurveto
          -67 -66 -59 -90 -29 vhcurveto
          21 372 rmoveto
          -64 37 -51 34 -2 35 -1 42 86 64 75 24 rrcurveto
          31 -46 rmoveto
          12 32 28 -27 24 -35 21 -64 rlinecurve
          61 -9 34 22 8 40 -32 62 -52 49 -67 30 38 101 rcurveline
          -14 30 -24 11 -34 -11 -22 -118 rcurveline
          -114 -15 -122 -77 -46 -108 14 -91 102 -63 92 -50 -40 -220 rcurveline
          -13 -40 -59 46 -24 38 -23 77 rlinecurve
          -57 18 -28 -22 -29 -47 18 -63 85 -78 94 -38 -35 -105 rcurveline
          15 -31 27 -15 33 9 23 133 rcurveline
          168 33 95 87 18 115 -31 76 -95 57 -85 49 rrcurveto
          endchar
        </CharString>
        <CharString name="dotaccent">
          -422 144 617 111 callgsubr
          endchar
        </CharString>
        <CharString name="dotlessi">
          232 callgsubr
          endchar
        </CharString>
        <CharString name="dottedcircle">
          94 139 517 rmoveto
          -26 18 -19 26 26 18 19 26 25 -18 19 -26 -26 -18 -19 -25 vhcurveto
          -82 -110 rmoveto
          -25 20 -19 26 24 20 19 25 25 -20 19 -24 -26 -20 -19 -25 vhcurveto
          -13 -126 rmoveto
          -25 19 -18 25 26 18 18 529 callgsubr
          52 -116 rmoveto
          -26 18 -18 26 25 19 18 26 25 -19 19 -25 -26 -18 -19 -25 vhcurveto
          101 -75 rmoveto
          -26 19 -20 26 25 19 20 26 24 -19 20 -25 -26 -19 -20 -24 vhcurveto
          127 -16 rmoveto
          -26 18 -18 26 26 19 18 26 26 -19 18 -26 -26 -18 -18 -26 vhcurveto
          121 53 rmoveto
          -26 19 -18 25 25 20 18 26 25 -20 19 -25 -25 -19 -19 -25 vhcurveto
          73 98 rmoveto
          -25 19 -19 26 24 19 19 25 26 -19 19 -24 -26 -19 -19 -26 vhcurveto
          10 134 rmoveto
          -26 18 -18 26 25 19 18 26 26 -19 18 -25 -26 -18 -18 -26 vhcurveto
          -50 118 rmoveto
          -25 19 -19 25 26 18 19 529 callgsubr
          -95 68 rmoveto
          -24 19 -20 26 25 18 20 24 26 -18 19 -25 -26 -19 -19 -26 vhcurveto
          -126 15 rmoveto
          -26 18 -18 26 26 18 18 26 26 -18 18 -26 -26 -18 -18 -26 vhcurveto
          endchar
        </CharString>
        <CharString name="doubledanda">
          33 464 446 rmoveto
          -25 -133 -26 -116 -44 -166 22 -29 48 -9 42 13 15 148 17 134 17 134 69 290 rcurveline
          -25 27 -35 -7 -53 -25 rrcurveto
          -239 -261 250 callgsubr
        </CharString>
        <CharString name="dvA">
          152 158 callsubr
          715 531 rmoveto
          -113 -76 callgsubr
          115 hlineto
          14 -106 callsubr
          endchar
        </CharString>
        <CharString name="dvAA">
          384 158 callsubr
          947 531 rmoveto
          -110 hlineto
          -84 callgsubr
          rrcurveto
          endchar
        </CharString>
        <CharString name="dvAI">
          -59 336 829 rmoveto
          50 -53 28 -46 35 -74 rrcurveto
          21 17 8 11 3 hvcurveto
          95 -37 -84 161 473 callsubr
          -20 rrcurveto
          362 -170 -25 callsubr
        </CharString>
        <CharString name="dvAU">
          384 783 870 rmoveto
          50 -27 38 -55 24 -43 -4 -4 rcurveline
          -36 37 -41 30 -31 3 -37 -3 -25 -18 -18 -28 5 -34 28 -19 49 -7 31 36 rcurveline
          462 callgsubr
          -34 -93 151 -68 225 callsubr
          rrcurveto
          -592 -738 39 callsubr
          947 531 rmoveto
          -110 hlineto
          -84 callgsubr
          rrcurveto
          endchar
        </CharString>
        <CharString name="dvAbbreviationsign">
          -245 190 409 rmoveto
          -65 -74 -75 -57 hvcurveto
          -49 1 53 -42 37 hhcurveto
          62 82 68 51 -1 hvcurveto
          39 -1 -54 65 -40 hhcurveto
          -8 -30 rmoveto
          19 -22 14 -28 4 -28 -8 -41 -20 -26 -41 -21 -19 19 -10 22 -2 30 5 37 20 34 38 24 rrcurveto
          endchar
        </CharString>
        <CharString name="dvAcandra">
          152 158 callsubr
          602 531 rmoveto
          -90 callgsubr
          -7 -30 rcurveline
          -104 -104 callsubr
          106 hlineto
          -28 -123 -74 -41 -77 -40 -74 -37 rlinecurve
          -27 16 -34 13 -41 5 -2 5 rcurveline
          95 33 68 56 20 92 -11 47 -29 36 -59 13 -78 3 -73 -25 -68 -55 -9 -26 26 -32 39 -11 51 49 61 25 54 -8 4 -5 rcurveline
          -11 -73 -49 -45 -77 -33 -18 -4 -18 -4 -19 -4 -16 -29 11 -42 33 -20 15 2 14 1 14 1 14 -2 13 -3 12 -4 7 -3 6 -3 5 -3 rrcurveto
          -163 -73 -127 -48 -51 vvcurveto
          -37 68 -52 66 -5 vhcurveto
          101 -1 197 103 112 vvcurveto
          17 -8 19 -15 18 vhcurveto
          62 32 64 35 60 33 7 -10 rcurveline
          -35 -42 -72 -311 163 callsubr
          115 19 callgsubr
          -17 222 callgsubr
        </CharString>
        <CharString name="dvAnusvara">
          2 707 rmoveto
          394 callsubr
        </CharString>
        <CharString name="dvAnusvara.amI">
          683 vmoveto
          394 callsubr
        </CharString>
        <CharString name="dvAvagraha">
          -22 270 532 rmoveto
          110 19 144 8 129 -6 30 22 2 34 -22 12 -136 6 -185 -14 -118 -30 -67 -39 -50 -96 -1 -35 -2 -78 285 -51 -2 -55 -1 -57 -80 -88 -82 -25 -59 15 -65 38 -44 44 rrcurveto
          -26 -13 -17 -28 2 hvcurveto
          -40 32 98 -71 71 hhcurveto
          90 169 132 108 3 hvcurveto
          3 88 -186 31 -96 67 9 38 20 39 38 29 rrcurveto
          endchar
        </CharString>
        <CharString name="dvB">
          -320 256 254 rmoveto
          265 callsubr
          -22 11 -14 25 41 vvcurveto
          46 14 47 21 37 vhcurveto
          29 -38 38 -42 33 -32 rrcurveto
          107 128 rmoveto
          -24 52 -35 71 -61 4 rrcurveto
          80 callsubr
          59 66 67 73 53 61 -31 21 rcurveline
          430 callgsubr
          34 -4 26 -41 20 -44 rrcurveto
          121 264 211 callgsubr
        </CharString>
        <CharString name="dvBA">
          -88 319 317 rmoveto
          430 callgsubr
          34 -4 25 328 callgsubr
          34 -32 265 callsubr
          463 462 rmoveto
          -113 hlineto
          -20 63 callgsubr
          -360 -103 callsubr
          362 hlineto
          -31 -149 274 callsubr
          80 callsubr
          51 410 callgsubr
          -40 -66 -37 190 callgsubr
          58 -101 callgsubr
        </CharString>
        <CharString name="dvBH">
          -197 172 212 rmoveto
          -29 11 -16 13 -15 23 34 18 34 19 33 19 -10 -33 -11 -33 -11 -31 rrcurveto
          95 395 -24 callgsubr
          220 -79 rmoveto
          -50 -33 -55 -34 -56 -32 15 75 14 76 13 76 17 callgsubr
          266 callsubr
          -4 -18 -4 -20 -5 -19 rlinecurve
          -56 -31 -57 -29 -53 -25 393 callsubr
          65 15 65 14 65 70 42 67 42 65 41 rrcurveto
          72 120 rmoveto
          -139 -104 callsubr
          140 -83 callsubr
        </CharString>
        <CharString name="dvBHA">
          22 172 474 callsubr
          34 20 -11 447 callsubr
          95 395 -24 callgsubr
          -15 -141 rmoveto
          467 callsubr
          -3 -17 -4 -17 -4 -18 rlinecurve
          -56 -31 -57 -30 -55 -29 393 callsubr
          440 callsubr
          46 31 8 -5 -67 callgsubr
          -44 -32 -48 -31 -50 -30 15 73 13 74 13 74 17 callgsubr
          rrcurveto
          532 185 rmoveto
          -246 -104 callsubr
          247 -83 callsubr
        </CharString>
        <CharString name="dvBH_LA">
          497 181 210 420 callsubr
          -17 28 32 22 38 12 39 354 callsubr
          86 396 -24 callgsubr
          934 5 -76 callsubr
          -534 -103 callsubr
          536 hlineto
          -27 -117 -64 -75 -77 -73 -60 -41 rlinecurve
          -5 4 10 422 callsubr
          rlinecurve
          144 callgsubr
          -40 -18 -46 -43 -31 -44 -46 9 -52 6 -53 216 callsubr
          296 callsubr
          -45 -46 -95 -68 -52 -28 rrcurveto
          166 callgsubr
          266 callsubr
          -2 -15 -6 -30 -8 -35 rlinecurve
          -61 -6 -57 -14 -43 -25 -20 -14 -10 -26 -1 -30 27 -52 55 226 callgsubr
          12 53 rrcurveto
          48 47 -5 -6 43 hvcurveto
          -10 -21 -6 -20 -17 vvcurveto
          -75 58 460 callgsubr
          406 callgsubr
          33 376 callgsubr
          -16 -22 506 callsubr
          55 -4 56 44 70 65 52 49 9 -9 rcurveline
          -28 -48 -61 -262 -99 callsubr
        </CharString>
        <CharString name="dvBH_NA">
          393 551 262 callgsubr
          -385 -24 rmoveto
          -33 13 -23 21 -17 28 35 22 39 13 42 7 -10 -40 -11 -37 -9 -20 rrcurveto
          88 412 -24 callgsubr
          -15 -141 rmoveto
          467 callsubr
          -1 -19 -6 -35 -8 -37 rlinecurve
          -64 -7 -61 -17 -42 -25 -21 -15 -9 -25 -2 -30 28 -53 55 -40 64 -11 33 319 callgsubr
          13 53 rrcurveto
          46 46 -5 -5 41 hvcurveto
          -13 -17 -6 -22 -26 169 callsubr
          59 -8 418 callgsubr
          -19 51 64 39 65 40 65 43 9 -5 -67 callgsubr
          -106 -75 -136 -76 -115 -62 -49 18 -60 9 -62 1 27 116 25 131 9 66 17 callgsubr
          rrcurveto
          934 185 rmoveto
          -674 -94 callsubr
          675 -83 callsubr
        </CharString>
        <CharString name="dvBH_R">
          -196 174 219 rmoveto
          -30 11 -14 12 -15 21 34 18 33 18 33 19 -9 -32 -11 -31 -11 -31 rrcurveto
          92 389 -24 callgsubr
          220 -79 rmoveto
          -50 -33 -54 -34 -56 -32 15 74 13 76 13 77 17 callgsubr
          266 callsubr
          -3 -18 -4 -18 -5 -19 rlinecurve
          -55 -30 -56 -27 -51 -25 389 callgsubr
          63 14 63 14 64 69 41 68 42 64 41 rrcurveto
          -94 -249 rmoveto
          -78 -85 -128 -90 -118 304 callsubr
          endchar
        </CharString>
        <CharString name="dvBH_RA">
          22 174 219 rmoveto
          -30 11 -14 13 -16 21 35 20 34 19 33 19 -9 -33 -11 -33 -12 -32 rrcurveto
          92 389 -24 callgsubr
          -15 -141 rmoveto
          467 callsubr
          -3 -16 -4 -17 -3 -17 rlinecurve
          -56 -30 -55 -29 -53 -28 389 callgsubr
          65 15 65 14 65 48 29 46 29 45 31 8 -5 rcurveline
          -54 -231 -83 304 callgsubr
          115 82 55 63 9 -5 rcurveline
          -50 -127 298 callsubr
          42 12 -38 callgsubr
          -44 -32 -47 -31 -50 -29 14 72 13 73 13 75 17 callgsubr
          rrcurveto
          532 185 rmoveto
          -246 -104 callsubr
          247 -83 callsubr
        </CharString>
        <CharString name="dvBH_R_YA">
          393 817 69 callsubr
          -680 -344 rmoveto
          -30 11 -13 16 -15 23 31 15 31 10 32 7 -8 -25 -8 -25 -10 -26 rrcurveto
          90 380 -24 callgsubr
          829 5 -100 callgsubr
          -469 -73 callsubr
          94 -15 callsubr
          32 18 36 400 callgsubr
          -3 -67 -119 -54 -79 -53 -49 9 -48 5 -47 2 22 98 17 98 18 106 rrcurveto
          17 callgsubr
          266 callsubr
          -5 -27 -6 -26 -6 -26 rlinecurve
          -60 -6 -53 -15 -40 -24 -23 358 callsubr
          52 -30 59 -8 33 5 39 13 20 21 11 41 10 41 9 40 35 1 36 -3 38 -4 rrcurveto
          500 callsubr
          -12 5 -14 8 -13 vhcurveto
          -79 -78 -116 -79 -108 -39 -8 -27 11 -22 42 -22 102 57 110 81 78 91 rrcurveto
          -32 34 47 -24 33 104 callgsubr
          116 hlineto
          13 -106 callsubr
          endchar
        </CharString>
        <CharString name="dvBH_VA">
          328 735 317 -9 callgsubr
          -564 -148 420 callsubr
          -17 28 32 22 38 12 39 354 callsubr
          86 396 -24 callgsubr
          765 5 rmoveto
          -113 hlineto
          -20 63 callgsubr
          -364 -94 callsubr
          368 152 callsubr
          -90 -80 -71 -88 -36 hvcurveto
          -42 8 -49 511 callsubr
          131 callgsubr
          47 47 -5 -6 42 hvcurveto
          -4 -20 -3 -20 -20 vvcurveto
          -89 62 -57 101 -4 vhcurveto
          42 50 48 55 45 297 callgsubr
          -40 102 callgsubr
        </CharString>
        <CharString name="dvBH_YA">
          393 817 69 callsubr
          -675 -361 420 callsubr
          -17 28 32 22 38 12 39 354 callsubr
          86 396 -24 callgsubr
          829 5 -100 callgsubr
          -440 -94 callsubr
          65 -15 callsubr
          32 18 36 400 callgsubr
          -3 -67 -118 -54 -79 -52 -44 8 -50 6 -51 419 callgsubr
          131 callgsubr
          37 37 -3 -5 35 hvcurveto
          500 callsubr
          508 callsubr
          12 -10 -41 -70 -46 -194 -86 callsubr
        </CharString>
        <CharString name="dvB_BA">
          158 565 317 rmoveto
          430 callgsubr
          33 -4 26 328 callgsubr
          33 -32 -32 -32 507 callgsubr
          rrcurveto
          -246 hmoveto
          11 callgsubr
          93 287 rmoveto
          24 -3 20 -21 17 -28 -18 -28 -13 -31 -9 -31 -31 33 -29 36 -27 34 296 callgsubr
          rrcurveto
          616 175 rmoveto
          -113 hlineto
          -20 63 callgsubr
          -606 -103 callsubr
          608 hlineto
          -31 -149 274 callsubr
          -57 -53 -32 -46 -41 hvcurveto
          -22 39 -30 36 -43 3 rrcurveto
          80 callsubr
          30 34 33 36 31 35 15 -67 58 -35 79 -3 51 410 callgsubr
          -40 -66 -37 -154 -99 callsubr
        </CharString>
        <CharString name="dvB_BHA">
          265 430 474 callsubr
          33 356 callsubr
          -263 -26 75 callgsubr
          223 315 -24 callgsubr
          -104 5 rmoveto
          -398 -103 callsubr
          350 302 callgsubr
          -17 -4 -18 rlinecurve
          -46 -25 -46 -25 -46 -24 -13 78 -32 102 -72 332 callgsubr
          34 33 36 36 34 34 30 -52 55 -30 56 -8 33 4 39 13 22 22 18 442 callgsubr
          47 29 45 31 8 -5 -67 callgsubr
          -44 -32 -48 -31 -50 -30 15 73 13 74 13 74 296 callsubr
          -25 -26 -42 -33 -40 -29 rrcurveto
          525 6 rmoveto
          -246 -104 callsubr
          247 -83 callsubr
        </CharString>
        <CharString name="dvB_BH_RA">
          238 421 219 rmoveto
          -30 11 -14 13 -15 21 34 20 34 19 33 19 -9 -33 -11 -33 -12 -32 rrcurveto
          -255 -32 75 callgsubr
          212 315 -24 callgsubr
          -93 5 rmoveto
          -398 -103 callsubr
          339 302 callgsubr
          -16 -4 -17 rlinecurve
          -43 -24 -43 -22 -42 -23 -14 78 -32 95 -70 332 callgsubr
          33 32 35 34 33 34 30 -49 51 -23 56 -8 34 4 39 13 20 21 17 65 15 65 14 66 48 28 46 29 45 31 8 -5 rcurveline
          -54 -231 -83 304 callgsubr
          115 82 56 85 callsubr
          42 12 -38 callgsubr
          -43 -32 -48 -31 -50 -29 15 72 13 73 13 75 -15 324 callgsubr
          -24 -25 -38 -30 -39 -28 rrcurveto
          519 1 rmoveto
          -246 -104 callsubr
          247 -83 callsubr
        </CharString>
        <CharString name="dvB_DA">
          190 175 159 rmoveto
          -32 16 -16 36 41 vvcurveto
          31 10 32 16 27 vhcurveto
          29 -36 38 -41 31 -30 rrcurveto
          -11 178 rmoveto
          33 -4 30 -47 23 -47 -18 -14 -16 -15 -10 -17 -35 36 -34 39 -30 39 18 17 20 11 19 2 rrcurveto
          622 208 rmoveto
          -835 -103 callsubr
          493 117 callgsubr
          -3 -8 rcurveline
          -46 -56 -110 -42 -81 -50 -27 57 -40 77 -60 4 rrcurveto
          -115 -95 -124 -102 -93 64 -57 101 -4 hvcurveto
          82 93 20 -74 92 -64 106 -15 rlinecurve
          12 callsubr
        </CharString>
        <CharString name="dvB_DHA">
          307 174 216 145 callsubr
          601 141 -76 callsubr
          -64 -94 callsubr
          66 hlineto
          -41 -178 -62 -81 -150 -108 30 callgsubr
          89 24 138 500 callgsubr
          -36 -45 -48 -206 -99 callsubr
        </CharString>
        <CharString name="dvB_DH_VA">
          581 988 317 -9 callgsubr
          -824 -142 145 callsubr
          875 141 -50 callgsubr
          -340 -94 callsubr
          344 459 callgsubr
          -6 -3 -24 44 -33 44 -42 -1 rlinecurve
          -74 -67 -49 -66 -42 hvcurveto
          -1 1 -62 -81 -151 -109 30 callgsubr
          78 21 118 74 86 75 rrcurveto
          -1 -6 0 -5 -5 86 callgsubr
        </CharString>
        <CharString name="dvB_JA">
          353 157 159 -26 callsubr
        </CharString>
        <CharString name="dvB_JHA">
          399 833 445 rmoveto
          -74 -57 -122 -62 -86 -35 -40 6 -76 22 -30 21 4 12 rcurveline
          68 21 100 26 55 28 24 21 13 40 -5 26 -18 277 callsubr
          263 hlineto
          -705 -412 rmoveto
          11 callgsubr
          131 127 rmoveto
          -37 39 -35 41 -32 41 296 callgsubr
          30 -4 24 -32 19 -38 -8 -20 -3 -21 3 -18 rrcurveto
          791 308 -100 callgsubr
          -846 -103 callsubr
          473 416 callgsubr
          -5 -3 -5 -4 -4 -4 -24 45 -32 49 -50 3 rrcurveto
          80 callsubr
          57 64 65 70 52 60 80 -44 125 -5 32 -40 2 -8 rcurveline
          -29 -39 -56 -33 -72 -1 -32 15 -25 19 -22 24 -42 12 -44 -46 -20 -47 64 -71 73 -100 44 -83 rrcurveto
          43 380 callsubr
          -49 72 -61 75 -48 349 callsubr
          26 -16 21 -33 16 vhcurveto
          60 25 80 41 71 46 8 -10 rcurveline
          -36 -43 -68 -293 -95 callgsubr
        </CharString>
        <CharString name="dvB_J_YA">
          721 1145 356 callgsubr
          -58 -87 callsubr
          -1027 -412 rmoveto
          11 callgsubr
          131 127 rmoveto
          -37 39 -35 41 -32 41 296 callgsubr
          31 -4 24 -34 19 -39 -16 -27 -11 -27 -4 -24 rrcurveto
          1136 330 -100 callgsubr
          -1169 -103 callsubr
          792 51 callgsubr
          -2 -62 -102 -51 -77 -48 -52 -25 -55 -7 -44 16 -18 11 -21 13 -14 18 rrcurveto
          -36 335 callgsubr
          rrcurveto
          16 150 callgsubr
          -4 33 -25 19 -37 -3 -17 -10 -14 -13 -13 -14 -24 48 -33 53 -52 3 rrcurveto
          80 callsubr
          40 45 44 48 40 45 14 -78 54 -70 65 -6 423 callgsubr
          7 92 callgsubr
          30 -14 19 -4 22 0 23 436 callsubr
          100 -77 58 91 callgsubr
          12 -10 -41 -70 -46 -194 -66 callsubr
          43 13 rlinecurve
          56 -98 callsubr
        </CharString>
        <CharString name="dvB_JxA">
          353 367 67 -31 callgsubr
          -210 92 -26 callsubr
        </CharString>
        <CharString name="dvB_LA">
          333 157 159 rmoveto
          11 callgsubr
          93 287 rmoveto
          30 -4 23 -31 19 -38 -19 -23 -17 -26 -11 -24 -32 35 -31 36 -28 36 296 callgsubr
          rrcurveto
          790 175 1 callgsubr
          -780 -103 callsubr
          782 hlineto
          -27 -117 -64 -75 -77 -73 -60 -41 rlinecurve
          -5 4 10 422 callsubr
          rlinecurve
          144 callgsubr
          -22 -10 -23 -17 -22 -20 -23 47 -33 54 -53 3 rrcurveto
          80 callsubr
          32 35 33 38 33 36 18 -68 53 -81 85 -56 406 callgsubr
          32 -11 18 358 callgsubr
          -16 -22 rrcurveto
          506 callsubr
          55 -4 56 44 70 65 52 49 9 -9 rcurveline
          -28 -48 -61 -262 -86 callsubr
        </CharString>
        <CharString name="dvB_L_YA">
          653 1077 356 callgsubr
          -58 -87 callsubr
          -959 -412 rmoveto
          11 callgsubr
          93 287 rmoveto
          33 -4 25 -38 20 -42 -19 -24 -15 -25 -7 -25 -37 38 -35 41 -31 40 296 callgsubr
          rrcurveto
          1111 175 -100 callgsubr
          -1101 -103 callsubr
          724 209 callgsubr
          -3 -79 -164 -61 -70 -61 -30 -19 -31 -16 -27 -14 -6 5 rcurveline
          12 21 5 23 4 15 -4 51 -25 46 -46 22 -26 5 -49 -2 -29 -7 -24 -12 -27 -19 -23 -24 -24 50 -34 60 -56 4 rrcurveto
          80 callsubr
          36 41 40 43 37 42 14 -75 57 -89 87 -60 45 8 27 34 -1 30 -85 52 -37 64 -5 61 1 58 37 57 52 24 30 -10 17 -22 4 -24 rrcurveto
          -25 -13 -29 -19 -26 vhcurveto
          -27 2 46 -30 47 hhcurveto
          22 14 24 15 24 17 rrcurveto
          -50 25 77 -53 48 hhcurveto
          62 118 82 88 77 hvcurveto
          11 -10 -40 -70 -47 -194 30 -64 callsubr
        </CharString>
        <CharString name="dvB_NA">
          266 424 4 callgsubr
          -258 -26 75 callgsubr
          394 168 rmoveto
          223 callgsubr
          -108 -76 -138 -76 -115 -63 -14 77 -32 94 -70 332 callgsubr
          32 32 35 34 33 33 32 -50 56 -25 57 -8 34 5 36 240 callsubr
          -947 -103 callsubr
          946 -107 callgsubr
        </CharString>
        <CharString name="dvB_R">
          -322 155 211 rmoveto
          -24 17 -10 24 27 vvcurveto
          30 12 33 18 29 vhcurveto
          26 -33 34 -36 29 -29 -31 -23 -30 -22 -24 -17 rrcurveto
          206 168 rmoveto
          -25 52 -36 72 -58 6 rrcurveto
          -121 -3 -98 -132 -106 vvcurveto
          -63 35 -54 81 -14 vhcurveto
          59 52 59 43 46 38 12 -14 rcurveline
          -76 -90 -138 -88 -119 -44 -8 -27 11 -22 42 -22 167 100 129 105 32 103 -16 29 rcurveline
          0 vlineto
          -16 35 -47 -35 -33 35 -31 38 -29 37 rlinecurve
          20 19 23 12 22 3 33 -5 27 -42 19 -42 rrcurveto
          124 266 211 callgsubr
        </CharString>
        <CharString name="dvB_RA">
          -93 318 331 rmoveto
          -40 -30 -37 37 -27 32 -31 39 rlinecurve
          20 425 callsubr
          30 10 32 16 28 vhcurveto
          27 -33 32 -34 29 -28 -28 -21 -28 -21 -28 -20 rrcurveto
          -19 14 -11 22 31 vvcurveto
          489 343 -50 callgsubr
          -356 -103 callsubr
          358 hlineto
          -31 -149 -3 -1 rlineto
          41 -23 -33 46 -40 hhcurveto
          -115 -104 -133 -109 -64 42 -51 74 -14 hvcurveto
          65 52 56 47 61 48 11 -9 rcurveline
          -79 -99 -142 -93 -129 -49 -8 -27 11 -22 42 -22 94 -18 callgsubr
        </CharString>
        <CharString name="dvB_SA">
          404 835 439 rmoveto
          -68 -61 -141 -55 -40 -49 callsubr
          194 hlineto
          -693 -394 447 callgsubr
          34 11 35 17 30 vhcurveto
          31 -38 39 -43 32 -31 rrcurveto
          34 32 rmoveto
          -39 37 -35 43 -32 41 19 20 21 13 434 callsubr
          813 328 -100 callgsubr
          -851 -103 callsubr
          405 hlineto
          -9 -7 -8 287 callsubr
          30 32 43 25 44 335 callsubr
          3 hvcurveto
          -3 -76 -108 -72 -88 -14 -15 2 -15 3 -12 5 -25 57 -49 113 364 callsubr
          68 -74 108 -110 78 -56 31 8 24 33 -7 30 -69 54 -88 222 callsubr
          54 75 hvcurveto
          9 -11 -34 -46 -63 -268 -66 callsubr
          43 13 rlinecurve
          56 -98 callsubr
        </CharString>
        <CharString name="dvB_SHA">
          363 173 177 447 callgsubr
          35 11 35 17 30 vhcurveto
          31 -38 39 -43 32 -31 rrcurveto
          34 31 rmoveto
          -37 38 -37 42 -32 42 19 20 21 12 434 callsubr
          207 211 -39 callsubr
          -579 142 rmoveto
          -93 callsubr
          380 373 callsubr
          37 -47 34 361 callgsubr
          -37 -58 -69 -45 -67 -8 -15 2 -13 4 -13 5 -26 57 -48 112 364 callsubr
          67 -73 104 -109 79 -58 -15 callgsubr
          147 234 callsubr
          81 -59 124 callsubr
          -81 hlineto
          -14 -9 -9 -15 -5 -13 14 -13 rcurveline
          84 hlineto
          -125 -539 -95 callgsubr
        </CharString>
        <CharString name="dvB_TA">
          231 175 175 rmoveto
          -32 16 -16 36 41 vvcurveto
          35 12 36 17 30 vhcurveto
          32 -39 40 -45 33 -31 -28 -26 -30 -27 -28 -26 rrcurveto
          120 110 rmoveto
          -39 39 -37 43 -32 43 20 21 22 13 20 2 30 -4 37 -69 21 -45 -13 -9 -11 -12 -9 -14 rrcurveto
          635 328 -76 callsubr
          -678 -103 callsubr
          680 hlineto
          -32 -137 -86 -47 -105 -34 -90 -14 rlinecurve
          -25 53 -45 113 -67 4 rrcurveto
          -117 -104 -132 -111 -93 64 -57 101 -4 hvcurveto
          89 95 26 -82 55 -62 77 -65 rlinecurve
          34 9 18 32 callsubr
          -17 64 192 callgsubr
          323 callsubr
          82 49 6 -9 rcurveline
          -26 -33 -69 -296 -99 callsubr
        </CharString>
        <CharString name="dvB_VA">
          163 569 31 callsubr
          -422 -200 rmoveto
          11 callgsubr
          93 287 rmoveto
          24 -3 20 -22 17 -28 -17 -28 -13 -31 -7 -32 -32 34 -30 36 -28 35 296 callgsubr
          rrcurveto
          620 175 -50 callgsubr
          -611 -103 callsubr
          614 459 callgsubr
          167 callsubr
          -60 -54 -31 -47 -41 hvcurveto
          -23 40 -30 36 -43 3 rrcurveto
          80 callsubr
          33 37 35 38 34 38 16 -66 57 -41 85 -3 43 50 48 55 44 51 10 -10 rcurveline
          -39 -59 -36 -154 -95 callgsubr
        </CharString>
        <CharString name="dvB_YA">
          256 680 356 callgsubr
          -58 -87 callsubr
          -546 -407 rmoveto
          -31 15 -15 365 callsubr
          80 283 rmoveto
          32 538 callsubr
          -17 -31 33 -30 36 -26 34 20 22 24 15 26 4 rrcurveto
          711 174 -100 callgsubr
          -704 -103 callsubr
          327 51 callgsubr
          -2 -56 -84 -47 -74 -45 -20 68 -42 63 -54 7 rrcurveto
          -126 -3 -98 -131 -125 442 callsubr
          25 31 34 42 33 42 rrcurveto
          -42 33 61 -38 41 57 callsubr
          12 -10 -41 -70 -46 -194 -66 callsubr
          43 13 rlinecurve
          56 -98 callsubr
        </CharString>
        <CharString name="dvC">
          -145 597 571 rmoveto
          -8 callsubr
          -588 -104 callsubr
          41 -192 rmoveto
          322 callgsubr
          3 -8 rlineto
          353 callgsubr
          101 11 126 116 77 106 -37 36 rcurveline
          -61 -94 -114 -86 -60 -7 89 callsubr
          -20 -15 3 -55 27 -26 rrcurveto
          endchar
        </CharString>
        <CharString name="dvCA">
          87 795 71 callgsubr
          -539 -104 callsubr
          542 hlineto
          -39 -169 -61 -93 -113 -85 -60 -7 rlinecurve
          -30 1 -38 33 -2 23 93 callsubr
          70 -3 vhcurveto
          80 9 96 74 74 84 13 -11 rcurveline
          -39 -71 -44 -188 -95 callgsubr
        </CharString>
        <CharString name="dvCH">
          75 457 413 16 callsubr
        </CharString>
        <CharString name="dvCHA">
          75 164 133 rmoveto
          308 callgsubr
          132 callsubr
          -706 -94 callsubr
          224 hlineto
          -82 -48 -78 -63 -45 306 callgsubr
          77 16 115 61 94 72 6 -23 5 -23 2 -23 -33 -53 -72 -37 -64 -33 -11 -22 9 -25 48 -24 77 40 111 82 6 66 rrcurveto
          3 32 -13 46 -14 46 60 55 285 callgsubr
          126 -107 callgsubr
        </CharString>
        <CharString name="dvCH_R">
          75 199 callsubr
          132 451 16 callsubr
        </CharString>
        <CharString name="dvCH_RA">
          75 496 445 rmoveto
          19 -8 24 -21 2 -15 -3 -23 -18 -29 -28 -31 rrcurveto
          -15 35 -11 35 32 vvcurveto
          6 9 11 11 13 5 rrcurveto
          242 176 rmoveto
          -706 -94 callsubr
          223 hlineto
          -82 -48 -78 -63 -44 306 callgsubr
          71 23 108 65 51 42 6 -6 rcurveline
          -57 -66 -115 -93 -74 -45 -2 -31 13 -20 50 -13 72 65 125 119 67 112 9 -16 10 -21 8 -19 -23 -77 -43 -55 -59 -53 2 -28 20 -23 50 1 58 67 49 91 14 77 rrcurveto
          -10 36 -21 37 -22 40 50 49 42 54 1 44 2 45 -64 52 -48 17 rrcurveto
          -44 -48 -44 -28 -17 hvcurveto
          -9 -71 22 -51 27 -50 -75 -64 -105 -63 -84 -22 -11 9 rcurveline
          308 callgsubr
          356 -107 callgsubr
        </CharString>
        <CharString name="dvCH_R_YA">
          603 199 callsubr
          694 405 -32 callgsubr
        </CharString>
        <CharString name="dvCH_YA">
          614 1019 367 -32 callgsubr
        </CharString>
        <CharString name="dvC_CA">
          549 1257 71 callgsubr
          -1001 -104 callsubr
          1003 461 callsubr
          -38 33 -2 23 14 31 88 40 65 28 9 28 -15 48 -25 12 -96 -6 -107 4 -102 16 -17 -13 1 -44 18 -28 -65 -84 -90 -83 -65 -6 -35 378 callsubr
          rrcurveto
          93 callsubr
          75 -3 vhcurveto
          114 8 119 136 72 101 67 3 70 9 56 8 2 -8 rcurveline
          -71 373 callgsubr
          80 9 95 74 75 83 13 -10 rcurveline
          -39 -71 -44 -188 -95 callgsubr
        </CharString>
        <CharString name="dvC_CHA">
          518 608 133 rmoveto
          40 59 65 71 56 45 10 43 -22 34 -52 18 -41 -10 -49 -15 -38 -4 -7 14 rcurveline
          49 52 96 82 96 49 rrcurveto
          164 hlineto
          4 -20 -3 -22 -7 -20 -6 3 -6 3 -6 2 -44 -3 -42 -37 -18 -24 -14 -65 21 236 callsubr
          247 301 rmoveto
          -1159 -104 callsubr
          676 hlineto
          -81 -48 -79 -63 -45 -50 -3 -14 2 -15 7 -14 -64 -79 -92 -65 -52 -6 55 callsubr
          3 -8 rlineto
          353 callgsubr
          87 10 107 88 77 92 9 -9 11 -7 11 -6 48 260 callsubr
          -72 -37 -64 -33 -10 417 callsubr
          5 66 rrcurveto
          3 33 -12 45 -15 47 60 54 285 callgsubr
          127 hlineto
          14 -106 callsubr
          endchar
        </CharString>
        <CharString name="dvC_CH_VA">
          535 601 167 rmoveto
          39 52 62 62 55 41 10 47 -24 28 -43 14 -40 -10 -44 -11 -36 -3 -5 10 rcurveline
          52 50 85 77 98 47 rrcurveto
          92 hlineto
          -28 -13 -24 -22 -12 -17 -14 -61 16 -68 19 -70 -73 -70 -97 -68 -81 -22 rrcurveto
          308 220 rmoveto
          -8 41 -4 36 6 28 4 13 5 8 9 3 17 -8 22 -19 1 -15 -5 -22 -19 -31 -28 -34 rrcurveto
          -71 -401 rmoveto
          -46 -42 -50 -41 -44 -39 -22 12 -7 25 3 30 9 70 57 70 52 6 27 -5 18 -30 11 -35 -7 -22 rcurveline
          336 643 rmoveto
          -1159 -104 callsubr
          672 hlineto
          -78 -47 -71 -60 -47 -47 -4 -15 2 -16 7 -14 -64 -81 -95 -68 -53 -6 55 callsubr
          3 -8 rlineto
          353 callgsubr
          90 10 109 92 77 95 8 -6 8 -6 9 -4 43 8 47 15 36 10 4 -6 rcurveline
          -61 -39 -66 -64 -44 -64 -3 -43 44 -34 48 -15 78 18 113 69 92 78 8 -31 7 -31 3 -32 -6 -28 -8 -31 -10 -33 rrcurveto
          33 -18 -24 31 -32 hhcurveto
          -103 -99 -106 -99 -10 hvcurveto
          -7 -73 47 -46 85 -2 36 35 36 34 36 33 -18 -45 -17 -42 -17 -33 rrcurveto
          -26 29 -14 38 3 vhcurveto
          42 110 63 179 19 124 -4 48 -10 48 -10 45 62 62 45 62 4 46 3 37 -41 42 -40 22 rrcurveto
          202 -83 callsubr
        </CharString>
        <CharString name="dvC_MA">
          395 540 212 -20 callgsubr
          552 402 rmoveto
          -1079 -104 callsubr
          586 370 callsubr
          -56 -30 -54 -29 -4 -2 -4 -3 -3 -3 -50 -38 -54 -32 -40 -5 55 callsubr
          3 -8 rlineto
          353 callgsubr
          58 8 58 35 50 39 32 -43 50 -25 51 -7 34 callgsubr
        </CharString>
        <CharString name="dvC_NA">
          383 541 262 callgsubr
          -260 174 rmoveto
          353 callgsubr
          58 8 58 35 50 39 33 -43 52 -22 54 -7 418 callgsubr
          -19 51 64 39 65 40 65 43 9 -5 -67 callgsubr
          -118 543 callsubr
          -123 -66 -4 -3 -4 -5 -4 -4 -50 -38 -54 -31 -39 -5 55 callsubr
          803 221 rmoveto
          -1067 -104 callsubr
          1068 -83 callsubr
        </CharString>
        <CharString name="dvC_R">
          -145 519 415 rmoveto
          -62 -94 -118 -90 -61 -8 176 callsubr
          75 9 88 65 73 75 15 -14 rcurveline
          -59 -103 -143 -86 -131 -54 -8 -27 11 -22 42 -22 133 81 131 88 74 127 -23 80 rcurveline
          10 12 9 11 9 12 rrcurveto
          71 247 rmoveto
          -599 -104 callsubr
          600 -83 callsubr
        </CharString>
        <CharString name="dvC_RA">
          87 795 71 callgsubr
          -539 -104 callsubr
          541 hlineto
          -38 -163 -60 -91 -115 -87 -59 -7 rlinecurve
          176 callsubr
          81 10 99 76 76 85 13 -11 rcurveline
          -46 -105 -170 -109 -135 -54 -8 -27 11 -22 42 -22 94 52 115 22 callsubr
          115 hlineto
          14 -106 callsubr
          endchar
        </CharString>
        <CharString name="dvC_YA">
          427 851 402 rmoveto
          -56 -92 -126 128 callsubr
          -61 -3 -7 -30 rcurveline
          -879 -104 callsubr
          503 209 callgsubr
          -3 -85 -190 -64 -58 -67 -55 -44 -66 -41 -44 -3 345 callsubr
          rrcurveto
          93 callsubr
          70 -3 vhcurveto
          66 7 66 43 59 48 rrcurveto
          -48 28 73 -49 46 hhcurveto
          62 118 82 88 77 hvcurveto
          443 callsubr
          29 -64 callsubr
        </CharString>
        <CharString name="dvCandrabindu">
          24 253 callsubr
          107 51 110 callsubr
        </CharString>
        <CharString name="dvD">
          -63 122 -126 rmoveto
          -31 -7 -13 -24 6 -42 110 -21 73 -28 90 -54 17 10 8 12 -4 14 -65 61 -107 58 -84 21 rrcurveto
          488 747 43 callgsubr
        </CharString>
        <CharString name="dvDA">
          -63 610 621 43 callgsubr
        </CharString>
        <CharString name="dvDA_mU">
          94 callsubr
          -69 -82 -262 -59 -130 vvcurveto
          -84 109 -84 113 -11 vhcurveto
          46 61 49 66 34 37 7 -5 rcurveline
          -25 -60 -31 -75 -30 -79 -37 -3 -52 -20 -37 -24 -2 -30 25 -27 37 -11 34 25 18 12 34 5 rrcurveto
          7 7 -5 -7 5 hvcurveto
          -5 -51 -64 -38 -57 -13 -91 34 -31 48 -25 72 -37 6 -31 -15 -24 -43 38 -71 99 -75 97 -4 rrcurveto
          85 4 144 73 70 vvcurveto
          19 -22 22 -27 17 vhcurveto
          28 96 21 70 42 102 194 callgsubr
        </CharString>
        <CharString name="dvDA_mUU">
          94 callsubr
          -69 -82 -262 -59 -130 vvcurveto
          -84 109 -84 113 -11 vhcurveto
          46 61 49 66 34 37 7 -5 rcurveline
          -26 -62 -32 -77 -31 -83 rrcurveto
          5 -16 -15 3 -13 hhcurveto
          -54 -60 -60 -38 -32 44 -51 60 -28 hvcurveto
          44 15 17 20 -3 33 -34 14 -28 18 -17 25 5 13 6 7 9 5 102 -32 57 -54 65 -90 48 13 25 26 -3 34 -32 35 -59 46 -59 34 28 101 19 72 46 112 rrcurveto
          194 callgsubr
        </CharString>
        <CharString name="dvDA_mvR">
          238 callsubr
          103 -82 123 -15 520 callsubr
          6 -5 rcurveline
          -20 -61 -24 -59 -35 -88 -79 -36 -83 -71 -1 -50 rrcurveto
          -35 -1 49 -49 45 hhcurveto
          75 82 15 54 62 hvcurveto
          7 26 -19 21 -40 8 -39 -35 -56 -38 -76 7 -16 24 rcurveline
          32 52 49 30 78 30 40 124 18 60 41 98 175 callsubr
          175 72 67 58 27 30 12 34 -9 26 rrcurveto
          23 callsubr
        </CharString>
        <CharString name="dvDD">
          -106 107 -19 rmoveto
          -35 -6 -17 -24 2 -47 126 -36 83 -42 99 -73 21 10 8 11 -2 15 -69 78 -118 80 -98 34 rrcurveto
          495 640 -86 callgsubr
        </CharString>
        <CharString name="dvDDA">
          -106 602 621 -86 callgsubr
        </CharString>
        <CharString name="dvDDH">
          -28 169 -19 rmoveto
          -34 530 callsubr
          99 -73 21 10 8 11 -1 15 -70 78 -118 80 -98 34 rrcurveto
          189 245 -64 callgsubr
        </CharString>
        <CharString name="dvDDHA">
          -28 358 226 -64 callgsubr
        </CharString>
        <CharString name="dvDDH_DDHA">
          -103 319 304 rmoveto
          24 -9 11 -8 8 -16 -22 -32 -56 -36 -56 -11 -14 5 -13 6 -12 7 47 35 48 34 35 25 rrcurveto
          -67 -399 rmoveto
          23 -9 12 -8 7 -16 -21 -32 -57 -36 -56 -11 -14 4 -13 7 -12 7 48 35 47 34 36 25 rrcurveto
          350 716 472 callgsubr
          246 hlineto
          30 -19 18 -13 15 -25 -3 -7 rcurveline
          -48 -45 -136 -55 -67 -48 -18 -17 -10 -29 -3 -24 19 -69 91 -73 77 -2 rrcurveto
          5 hlineto
          9 -9 8 -9 8 -12 156 callgsubr
          -9 12 -10 10 -12 9 67 25 74 51 1 39 rrcurveto
          2 33 -54 49 -66 2 -55 -39 -52 -34 -61 -45 -15 17 -10 18 -1 17 1 46 189 64 60 63 20 22 6 20 -7 20 -10 16 -16 14 -18 12 rrcurveto
          239 -107 callgsubr
        </CharString>
        <CharString name="dvDDH_R">
          -28 248 -27 24 callgsubr
          23 61 27 208 callgsubr
          -75 17 -30 -7 -13 -25 5 -41 rrcurveto
          217 484 rmoveto
          18 -6 18 -15 5 -14 -22 -46 -54 -37 -68 -13 -16 6 -16 8 -14 9 62 46 48 38 39 24 rrcurveto
          308 382 rmoveto
          -624 -104 callsubr
          236 hlineto
          45 -29 29 -18 19 -32 -4 -10 rcurveline
          -56 -54 -158 -68 -76 -56 rrcurveto
          -22 -22 -10 -30 -29 vvcurveto
          28 -81 100 -85 94 -2 rrcurveto
          80 161 90 64 37 -63 58 -74 2 hvcurveto
          -75 -57 -40 -33 -71 -54 rrcurveto
          -21 22 -14 25 24 vvcurveto
          56 212 73 70 76 vhcurveto
          20 26 7 22 -8 22 -15 24 -28 20 -31 19 rrcurveto
          289 -107 callgsubr
        </CharString>
        <CharString name="dvDDH_RA">
          -28 252 -84 rmoveto
          -3 -63 368 callsubr
          -2 -60 -36 404 callsubr
          112 306 -64 callgsubr
        </CharString>
        <CharString name="dvDDH_YA">
          493 902 364 rmoveto
          -47 -73 -115 -82 -50 368 callgsubr
          -105 -8 -99 -17 -99 -36 -1 6 -1 5 -2 6 -15 24 -31 22 -34 20 rrcurveto
          592 hlineto
          -545 -384 rmoveto
          -24 -49 -58 -38 -74 -13 -17 6 -18 8 -15 10 55 40 63 48 41 27 21 -8 20 -15 6 -16 rrcurveto
          790 434 rmoveto
          -114 12 callgsubr
          -919 -104 callsubr
          231 hlineto
          47 -29 34 -20 20 -35 -3 -10 rcurveline
          -58 -56 -166 -71 -81 -59 rrcurveto
          -21 -21 -12 -33 -29 vvcurveto
          28 -83 105 -89 96 -2 rrcurveto
          89 1 161 93 65 vvcurveto
          40 -64 56 -74 4 vhcurveto
          -71 -53 -62 -51 -64 -49 rrcurveto
          -24 25 -16 28 27 vvcurveto
          53 193 82 100 71 vhcurveto
          127 47 131 19 83 -9 160 callgsubr
          72 76 9 -8 rcurveline
          -40 -69 -41 -171 -30 callgsubr
        </CharString>
        <CharString name="dvDDHxA">
          -28 210 -20 407 callsubr
          148 246 -64 callgsubr
        </CharString>
        <CharString name="dvDD_DDA">
          -106 602 621 156 callsubr
          49 4 57 7 54 12 26 -11 25 -13 15 -17 -1 -5 rcurveline
          -61 -28 -80 -14 -79 -16 -37 -18 -13 -42 10 -33 69 -41 113 -7 70 -36 -1 -6 rcurveline
          -81 -43 -124 -12 -95 -3 -24 -18 10 -34 34 -23 113 8 153 31 67 40 23 26 13 50 -23 23 -66 32 -107 11 -61 30 2 5 rcurveline
          62 20 93 13 62 31 26 19 12 36 -7 18 -17 19 -22 14 -24 12 40 11 34 13 23 14 205 callsubr
        </CharString>
        <CharString name="dvDD_DDHA">
          -103 252 -95 rmoveto
          23 -9 12 -8 7 -16 -21 -32 -57 -36 -56 -11 -14 4 -13 7 -12 7 48 35 47 34 36 25 rrcurveto
          350 716 156 callsubr
          44 3 51 7 49 9 22 -14 14 -12 12 -21 156 callgsubr
          -12 19 -18 15 -21 13 49 13 44 15 28 17 rrcurveto
          205 callsubr
        </CharString>
        <CharString name="dvDD_R">
          -106 196 -27 24 callgsubr
          24 61 26 37 35 31 rrcurveto
          -101 -220 rmoveto
          92 -17 72 -20 72 -46 15 9 7 11 1 16 -57 54 -90 49 -74 17 -31 -7 -13 -25 6 -41 rrcurveto
          512 866 46 callsubr
        </CharString>
        <CharString name="dvDD_RA">
          -106 187 -80 258 callgsubr
          51 -11 35 -6 74 -26 25 -20 7 -33 -1 404 callgsubr
          41 rrcurveto
          420 698 -86 callgsubr
        </CharString>
        <CharString name="dvDD_VA">
          -103 245 -25 rmoveto
          -40 -42 -43 -39 -39 -39 -23 12 -10 472 callsubr
          -28 16 -33 rrcurveto
          355 619 rmoveto
          -579 -103 callsubr
          261 hlineto
          33 -12 35 -16 18 -22 -1 -5 rcurveline
          -59 -28 -79 -15 -77 -16 -37 -17 -14 -42 11 -34 68 -42 110 -6 69 -37 -1 -6 rcurveline
          -79 -43 -122 -12 -93 -4 -23 -17 9 -35 34 -23 67 5 81 13 69 19 -21 -119 rcurveline
          -6 -4 -21 36 -28 36 -35 -1 rlinecurve
          -103 -85 -106 -99 1 hvcurveto
          1 -72 54 -46 85 -3 509 callgsubr
          -25 -98 24 -23 39 -10 37 12 rlinecurve
          37 312 55 146 6 3 6 3 5 3 rlinecurve
          22 25 13 51 -23 22 -65 34 -105 11 -59 31 1 4 rcurveline
          62 20 90 13 61 31 26 20 13 36 -8 18 -12 14 -15 12 -17 10 rrcurveto
          204 -107 callgsubr
        </CharString>
        <CharString name="dvDD_YA">
          429 844 364 rmoveto
          -47 -73 -115 -82 -50 172 callgsubr
          32 -31 21 -50 14 -103 -8 -85 -18 -91 -32 1 9 0 9 -2 7 -18 23 -21 17 -24 15 rrcurveto
          545 hlineto
          244 163 callgsubr
          -876 -103 callsubr
          219 hlineto
          38 -18 44 -20 23 -32 -3 -8 rcurveline
          -61 -37 -86 -20 -83 -21 -40 -22 -14 -49 11 -41 75 216 callgsubr
          -80 26 callgsubr
          66 50 24 32 11 121 callgsubr
          77 29 82 33 84 26 104 32 106 24 97 -5 160 callgsubr
          72 76 9 -8 rcurveline
          -41 -69 -40 -171 -86 callsubr
        </CharString>
        <CharString name="dvDDxA">
          -106 161 -20 270 callsubr
          441 641 -86 callgsubr
        </CharString>
        <CharString name="dvDH">
          -175 134 475 10 callsubr
          -9 -302 rmoveto
          98 callgsubr
          111 30 192 138 64 94 -44 37 rcurveline
          482 callgsubr
          rrcurveto
          442 452 rmoveto
          -139 -94 callsubr
          139 -107 callgsubr
        </CharString>
        <CharString name="dvDHA">
          57 134 475 10 callsubr
          600 141 -100 callgsubr
          -65 -94 callsubr
          67 352 callsubr
          -8 9 43 336 callgsubr
          rlinecurve
          42 callgsubr
          91 183 callsubr
          -38 -21 callsubr
          88 24 139 500 callgsubr
          -37 -45 -47 -206 -95 callgsubr
        </CharString>
        <CharString name="dvDH_MA">
          348 562 473 rmoveto
          466 callsubr
          -4 -26 -57 -32 -56 -30 -54 -29 -2 -1 -2 -2 -2 -1 rrcurveto
          0 vlineto
          -57 -45 -72 -51 -87 -31 -8 9 rcurveline
          41 callsubr
          76 21 99 58 47 67 rrcurveto
          155 hlineto
          -55 -359 -20 callgsubr
          -369 256 10 callsubr
          890 141 rmoveto
          -641 hlineto
          -12 56 -36 30 -36 -21 callsubr
          69 21 78 50 63 49 31 -42 50 -24 50 -7 133 callgsubr
        </CharString>
        <CharString name="dvDH_NA">
          336 134 475 10 callsubr
          329 -269 366 callgsubr
          -630 hlineto
          -12 56 -36 30 -36 -21 callsubr
          69 21 79 50 62 50 33 -42 51 -22 53 -7 34 357 callgsubr
          445 callgsubr
          66 43 9 -5 -67 callgsubr
          -118 543 callsubr
          -123 -66 -3 -2 -3 -3 -2 -3 -57 -45 -72 -50 -86 -31 -8 9 rcurveline
          41 callsubr
          76 21 99 58 47 67 rrcurveto
          637 -107 callgsubr
        </CharString>
        <CharString name="dvDH_N_YA">
          724 1148 356 callgsubr
          -58 -87 callsubr
          -1031 -393 rmoveto
          41 callsubr
          76 21 99 58 47 67 rrcurveto
          416 209 callgsubr
          -3 454 callgsubr
          -124 27 -192 -19 -86 -56 -3 -2 -3 -3 -2 -3 rrcurveto
          -57 -39 -64 -41 -76 -28 rrcurveto
          313 24 rmoveto
          -30 10 299 callgsubr
          24 16 25 12 28 8 5 -26 1 -26 -6 -28 rrcurveto
          -353 275 10 callsubr
          1267 141 -100 callgsubr
          -785 hlineto
          -12 56 -36 30 -36 -21 callsubr
          63 19 68 42 60 43 33 -43 52 -22 54 -7 33 5 37 18 15 21 4 41 -1 44 -10 431 callgsubr
          100 -77 58 91 callgsubr
          12 -10 -40 -70 -47 -194 -74 callsubr
        </CharString>
        <CharString name="dvDH_R">
          -175 136 478 rmoveto
          45 64 80 67 439 callgsubr
          -55 -88 -65 -62 -14 rrcurveto
          312 -79 rmoveto
          -63 -81 -150 -110 -103 -34 -8 9 rcurveline
          43 54 60 57 62 49 112 callgsubr
          -147 -46 -127 -148 -30 -79 -3 -44 40 -38 45 -24 53 7 44 15 34 15 4 -5 rcurveline
          -64 -50 -72 417 callgsubr
          83 24 130 84 81 81 11 -15 rcurveline
          -63 -109 -141 -83 -128 -50 -8 -27 10 -22 43 -22 128 79 134 87 73 128 -28 69 rcurveline
          14 17 12 17 7 15 rrcurveto
          81 246 rmoveto
          -132 -94 callsubr
          132 -107 callgsubr
        </CharString>
        <CharString name="dvDH_RA">
          58 136 478 rmoveto
          45 64 237 callgsubr
          -5 -13 14 -13 rcurveline
          67 hlineto
          -39 -167 -63 -81 -149 -109 -103 -34 rlinecurve
          -8 9 43 54 60 57 62 49 rlinecurve
          112 callgsubr
          -147 -46 -127 -148 -30 -79 -3 -44 40 -38 45 -24 53 7 44 15 34 15 4 -5 rcurveline
          -64 -50 -72 417 callgsubr
          88 24 140 94 85 86 9 -8 rcurveline
          -37 -63 -84 -83 -121 -77 -107 -41 rlinecurve
          -8 -27 10 -22 43 -22 93 -18 callgsubr
        </CharString>
        <CharString name="dvDH_VA">
          332 738 31 callsubr
          -614 116 10 callsubr
          874 141 -50 callgsubr
          -340 -94 callsubr
          344 459 callgsubr
          167 callsubr
          -74 -67 -48 -66 -42 hvcurveto
          0 vlineto
          482 callgsubr
          -8 9 rcurveline
          98 callgsubr
          78 21 117 74 86 75 rrcurveto
          -1 -6 0 -5 -5 8 callgsubr
          116 hlineto
          13 -106 callsubr
          endchar
        </CharString>
        <CharString name="dvDH_YA">
          378 802 69 callgsubr
          -685 -393 rmoveto
          41 callsubr
          76 21 99 58 47 67 rrcurveto
          70 -15 callsubr
          33 18 35 400 callgsubr
          -3 -75 -149 -59 -75 -58 rrcurveto
          0 vlineto
          517 callgsubr
          -30 306 10 callsubr
          920 141 1 callgsubr
          -438 hlineto
          -12 56 -36 30 -36 -21 callsubr
          75 22 86 55 72 57 rrcurveto
          -47 29 70 -46 46 104 callgsubr
          116 hlineto
          13 -106 callsubr
          endchar
        </CharString>
        <CharString name="dvD_BA">
          41 callgsubr
          50 63 rrcurveto
          0 vlineto
          46 54 41 60 29 34 -19 callgsubr
        </CharString>
        <CharString name="dvD_BHA">
          -40 398 199 rmoveto
          -11 -31 -22 -62 -24 -69 -45 -23 -48 -21 -50 -19 12 34 11 34 12 36 17 -4 17 -4 17 -2 46 58 31 40 29 37 rrcurveto
          -332 -391 rmoveto
          -18 11 -15 14 -12 23 29 10 29 10 29 11 -10 -24 -10 -24 -14 -27 rrcurveto
          105 281 rmoveto
          -7 -24 -8 -23 -7 -22 -72 -10 rcurveline
          -10 7 -7 9 -3 9 37 22 38 16 34 20 rrcurveto
          504 520 rmoveto
          -645 -94 callsubr
          268 hlineto
          44 -26 33 -22 16 -28 -2 -8 rcurveline
          -75 -93 -253 -25 -121 vvcurveto
          -43 28 -39 43 -31 vhcurveto
          -34 -19 -33 -17 -30 -12 -11 -6 -13 -23 -2 -14 rrcurveto
          -26 36 -38 41 -10 vhcurveto
          71 23 4 -7 -15 -21 -7 -19 -48 -17 -48 -15 -44 -14 rlinecurve
          -25 -13 -11 -23 -1 -23 15 -40 44 -36 45 -17 31 -2 28 6 22 21 19 52 17 48 16 47 48 19 47 19 45 21 -24 -70 -25 -71 -15 -50 7 -28 37 -15 47 3 rrcurveto
          38 155 61 216 43 108 -29 46 -45 14 -33 -7 -22 -26 -49 -57 -45 -46 -53 15 -47 30 -25 47 53 80 161 39 67 58 26 30 11 33 -9 26 -15 23 -26 20 -29 19 rrcurveto
          276 -107 callgsubr
        </CharString>
        <CharString name="dvD_B_RA">
          41 callgsubr
          48 62 rrcurveto
          -1 hlineto
          44 59 43 59 34 49 7 -4 rcurveline
          -14 -45 -29 -83 -34 -110 -84 -84 -98 -63 -106 -42 -8 -27 11 -22 42 -22 81 52 92 68 53 62 8 -5 rcurveline
          -39 -86 12 -23 32 -9 39 3 rlinecurve
          42 150 50 210 41 105 -28 45 -46 15 -33 -7 -24 -29 -67 -89 -50 -59 -48 15 -43 40 -13 43 42 71 175 72 67 58 26 30 13 418 callsubr
          241 -107 callgsubr
        </CharString>
        <CharString name="dvD_DA">
          -81 636 621 rmoveto
          -609 -104 callsubr
          248 hlineto
          38 -12 37 -15 22 -22 -4 -10 rcurveline
          -60 -25 -62 -11 -75 -5 -35 -21 -31 -39 -2 -40 -2 -47 31 -38 61 -25 -66 -22 -76 -55 -1 -53 -3 -72 73 -62 131 -20 51 61 28 27 29 33 7 -4 rcurveline
          -28 -67 -42 -91 -36 -79 6 -27 35 -15 47 2 38 111 24 86 49 106 -26 47 -41 14 -37 -7 -34 -41 -47 -47 -39 -40 -63 20 -31 26 -10 43 58 78 109 20 70 6 rrcurveto
          8 41 -9 25 -28 12 -29 -16 -27 -10 -26 -8 -53 24 -15 29 1 27 1 15 7 15 16 12 56 5 81 16 48 22 30 24 16 35 -8 31 -11 13 -14 11 -17 9 rrcurveto
          241 -107 callgsubr
        </CharString>
        <CharString name="dvD_DHA">
          143 156 -101 rmoveto
          34 57 40 47 53 53 -7 44 -28 28 -41 4 -27 -14 -51 -28 -38 -14 -11 4 -15 9 -4 15 1 11 3 9 5 11 50 -11 rcurveline
          43 15 41 24 30 25 14 -54 54 -51 79 -24 -57 -62 -78 -62 -81 -43 rrcurveto
          92 463 rmoveto
          15 -6 10 -12 2 -22 -33 -47 -77 -72 -86 -19 36 69 71 70 62 39 rrcurveto
          558 266 rmoveto
          -790 -73 callsubr
          450 117 callgsubr
          -3 -8 rcurveline
          -41 -49 -88 -37 -76 -43 rrcurveto
          45 -16 -34 21 -24 hhcurveto
          -91 -161 -189 -117 -43 hvcurveto
          -1 -46 54 -46 53 -10 52 17 33 17 29 18 5 -5 rcurveline
          -58 -59 -46 -36 -40 -70 3 -41 50 -33 60 -2 177 90 131 171 92 118 140 callgsubr
          38 135 45 106 259 callsubr
          -41 -53 -48 -58 -48 -48 -49 14 -47 42 -12 43 41 71 175 72 67 58 200 callsubr
        </CharString>
        <CharString name="dvD_GA">
          -56 85 -135 rmoveto
          -21 12 -17 14 -13 23 34 10 34 10 30 12 -11 -29 -12 -26 -14 -22 rrcurveto
          521 752 171 callgsubr
          -54 -119 vvcurveto
          -66 61 -62 78 -32 vhcurveto
          -30 vlineto
          -2 -8 -2 -8 -3 -8 -55 -22 -58 -16 -48 -6 -20 -10 -13 -24 -5 -23 18 -56 42 -29 53 -19 34 1 30 8 24 16 28 50 29 85 24 79 rrcurveto
          1 hlineto
          53 58 49 66 486 callsubr
          -22 -72 -78 -223 -38 -115 8 -29 36 293 callgsubr
          438 callgsubr
          -79 -47 -50 -49 12 -46 39 -12 45 84 callsubr
        </CharString>
        <CharString name="dvD_GHA">
          143 158 -94 rmoveto
          38 57 25 24 57 51 -4 45 -33 30 -40 5 -36 -18 -34 -18 -45 -17 -8 9 rcurveline
          38 47 51 33 55 39 22 -65 51 -45 84 -30 -53 -59 -69 -55 -90 -40 rrcurveto
          648 722 rmoveto
          -790 -94 callsubr
          450 hlineto
          44 -27 34 -26 17 -28 -3 -8 rcurveline
          -62 -66 -215 -73 -46 -80 -78 -39 -92 -64 -69 -70 -2 -42 35 -36 43 -16 49 17 45 26 34 16 6 -5 rcurveline
          -57 -51 -52 -29 -33 -59 5 -41 48 -36 55 -11 192 87 123 169 89 121 140 callgsubr
          38 135 45 106 259 callsubr
          -24 -26 -58 -70 -58 -63 -48 15 -45 41 -19 51 61 71 162 71 67 51 200 callsubr
        </CharString>
        <CharString name="dvD_G_RA">
          -56 96 -95 rmoveto
          -21 11 -17 14 -13 22 35 10 33 11 29 11 -11 -28 -12 -26 -14 -21 rrcurveto
          511 712 171 callgsubr
          -39 -116 vvcurveto
          -69 63 -58 85 -32 vhcurveto
          -13 vlineto
          -7 -24 -54 -22 -57 -15 -46 -7 rlinecurve
          -19 -9 -13 -23 -5 -22 18 -55 41 -29 52 -18 33 1 28 8 23 15 26 46 27 76 22 73 52 59 49 61 486 callsubr
          -14 -45 -35 -114 -34 -110 -83 -84 -98 -62 -107 -42 -8 -28 11 -22 42 -21 82 52 91 67 53 63 8 -5 rcurveline
          -39 -86 12 -24 32 -9 40 3 rlinecurve
          41 151 57 240 41 105 438 callgsubr
          -75 -47 -50 -60 13 -35 33 -12 46 40 70 176 54 70 62 23 28 13 34 -8 25 338 callgsubr
          -30 19 rrcurveto
          241 -107 callgsubr
        </CharString>
        <CharString name="dvD_MA">
          59 213 124 rmoveto
          -24 5 -24 15 -15 29 42 28 38 28 35 28 -8 -44 -14 -46 -20 -37 rrcurveto
          543 491 rmoveto
          -771 -73 callsubr
          227 hlineto
          15 -9 13 -9 8 -11 -2 -5 rcurveline
          -45 -28 -53 -18 -47 -25 rrcurveto
          -26 -17 -18 -21 -27 vvcurveto
          -41 49 -45 69 -22 vhcurveto
          39 26 32 24 24 18 7 -5 rcurveline
          1 -11 -1 -12 -14 vvcurveto
          -49 -38 -53 -38 -61 -36 -21 -14 -8 -23 -1 -24 24 -41 48 -32 55 -9 34 4 27 12 20 20 38 67 17 87 9 75 49 43 47 44 52 46 5 -2 rcurveline
          -102 -428 259 callgsubr
          rlinecurve
          49 382 57 109 -24 29 -36 13 -50 -1 rlinecurve
          -59 -53 -53 -51 -56 -49 -22 23 -29 11 -39 -6 -19 -17 -35 -25 -27 -18 rrcurveto
          -25 11 -14 16 19 vvcurveto
          9 6 9 10 7 vhcurveto
          31 20 60 28 37 24 23 19 13 22 -8 21 -5 5 -5 5 -6 4 rrcurveto
          457 -83 callsubr
        </CharString>
</ttFont>
